solid OpenSCAD_Model
  facet normal 0.994522 0.104529 0
    outer loop
      vertex 25 0 10
      vertex 24.4537 5.19779 2
      vertex 24.4537 5.19779 10
    endloop
  endfacet
  facet normal 0.994522 0.104529 0
    outer loop
      vertex 24.4537 5.19779 2
      vertex 25 0 10
      vertex 25 0 2
    endloop
  endfacet
  facet normal -0.994522 0.104529 0
    outer loop
      vertex -25 0 2
      vertex -24.4537 5.19779 10
      vertex -24.4537 5.19779 2
    endloop
  endfacet
  facet normal -0.994522 0.104529 0
    outer loop
      vertex -24.4537 5.19779 10
      vertex -25 0 2
      vertex -25 0 10
    endloop
  endfacet
  facet normal 0 1 -0
    outer loop
      vertex 2.61321 24.863 2
      vertex -2.61321 24.863 10
      vertex 2.61321 24.863 10
    endloop
  endfacet
  facet normal 0 1 0
    outer loop
      vertex -2.61321 24.863 10
      vertex 2.61321 24.863 2
      vertex -2.61321 24.863 2
    endloop
  endfacet
  facet normal 0 -1 0
    outer loop
      vertex -2.61321 -24.863 2
      vertex 2.61321 -24.863 10
      vertex -2.61321 -24.863 10
    endloop
  endfacet
  facet normal 0 -1 -0
    outer loop
      vertex 2.61321 -24.863 10
      vertex -2.61321 -24.863 2
      vertex 2.61321 -24.863 2
    endloop
  endfacet
  facet normal 0.587785 0.809017 -0
    outer loop
      vertex 16.7283 18.5786 2
      vertex 12.5 21.6506 10
      vertex 16.7283 18.5786 10
    endloop
  endfacet
  facet normal 0.587785 0.809017 0
    outer loop
      vertex 12.5 21.6506 10
      vertex 16.7283 18.5786 2
      vertex 12.5 21.6506 2
    endloop
  endfacet
  facet normal -0.743145 0.669131 0
    outer loop
      vertex -20.2254 14.6946 2
      vertex -16.7283 18.5786 10
      vertex -16.7283 18.5786 2
    endloop
  endfacet
  facet normal -0.743145 0.669131 0
    outer loop
      vertex -16.7283 18.5786 10
      vertex -20.2254 14.6946 2
      vertex -20.2254 14.6946 10
    endloop
  endfacet
  facet normal -0.866025 0.5 0
    outer loop
      vertex -22.8386 10.1684 2
      vertex -20.2254 14.6946 10
      vertex -20.2254 14.6946 2
    endloop
  endfacet
  facet normal -0.866025 0.5 0
    outer loop
      vertex -20.2254 14.6946 10
      vertex -22.8386 10.1684 2
      vertex -22.8386 10.1684 10
    endloop
  endfacet
  facet normal -0.406737 0.913545 0
    outer loop
      vertex -7.72542 23.7764 2
      vertex -12.5 21.6506 10
      vertex -7.72542 23.7764 10
    endloop
  endfacet
  facet normal -0.406737 0.913545 0
    outer loop
      vertex -12.5 21.6506 10
      vertex -7.72542 23.7764 2
      vertex -12.5 21.6506 2
    endloop
  endfacet
  facet normal 0.951057 -0.309017 0
    outer loop
      vertex 22.8386 -10.1684 10
      vertex 24.4537 -5.19779 2
      vertex 24.4537 -5.19779 10
    endloop
  endfacet
  facet normal 0.951057 -0.309017 0
    outer loop
      vertex 24.4537 -5.19779 2
      vertex 22.8386 -10.1684 10
      vertex 22.8386 -10.1684 2
    endloop
  endfacet
  facet normal 0.866025 0.5 0
    outer loop
      vertex 22.8386 10.1684 10
      vertex 20.2254 14.6946 2
      vertex 20.2254 14.6946 10
    endloop
  endfacet
  facet normal 0.866025 0.5 0
    outer loop
      vertex 20.2254 14.6946 2
      vertex 22.8386 10.1684 10
      vertex 22.8386 10.1684 2
    endloop
  endfacet
  facet normal 0.951057 0.309017 0
    outer loop
      vertex 24.4537 5.19779 10
      vertex 22.8386 10.1684 2
      vertex 22.8386 10.1684 10
    endloop
  endfacet
  facet normal 0.951057 0.309017 0
    outer loop
      vertex 22.8386 10.1684 2
      vertex 24.4537 5.19779 10
      vertex 24.4537 5.19779 2
    endloop
  endfacet
  facet normal 0.743145 0.669131 0
    outer loop
      vertex 20.2254 14.6946 10
      vertex 16.7283 18.5786 2
      vertex 16.7283 18.5786 10
    endloop
  endfacet
  facet normal 0.743145 0.669131 0
    outer loop
      vertex 16.7283 18.5786 2
      vertex 20.2254 14.6946 10
      vertex 20.2254 14.6946 2
    endloop
  endfacet
  facet normal 0.207912 0.978148 -0
    outer loop
      vertex 7.72542 23.7764 2
      vertex 2.61321 24.863 10
      vertex 7.72542 23.7764 10
    endloop
  endfacet
  facet normal 0.207912 0.978148 0
    outer loop
      vertex 2.61321 24.863 10
      vertex 7.72542 23.7764 2
      vertex 2.61321 24.863 2
    endloop
  endfacet
  facet normal 0.406737 0.913545 -0
    outer loop
      vertex 12.5 21.6506 2
      vertex 7.72542 23.7764 10
      vertex 12.5 21.6506 10
    endloop
  endfacet
  facet normal 0.406737 0.913545 0
    outer loop
      vertex 7.72542 23.7764 10
      vertex 12.5 21.6506 2
      vertex 7.72542 23.7764 2
    endloop
  endfacet
  facet normal -0.951057 0.309017 0
    outer loop
      vertex -24.4537 5.19779 2
      vertex -22.8386 10.1684 10
      vertex -22.8386 10.1684 2
    endloop
  endfacet
  facet normal -0.951057 0.309017 0
    outer loop
      vertex -22.8386 10.1684 10
      vertex -24.4537 5.19779 2
      vertex -24.4537 5.19779 10
    endloop
  endfacet
  facet normal 0 0 1
    outer loop
      vertex 14.5 0 10
      vertex 25 0 10
      vertex 24.4537 5.19779 10
    endloop
  endfacet
  facet normal 0 0 1
    outer loop
      vertex 14.1831 3.01472 10
      vertex 24.4537 5.19779 10
      vertex 22.8386 10.1684 10
    endloop
  endfacet
  facet normal 0 0 1
    outer loop
      vertex 25 0 10
      vertex 14.5 0 10
      vertex 24.4537 -5.19779 10
    endloop
  endfacet
  facet normal 0 0 1
    outer loop
      vertex 13.2464 5.89768 10
      vertex 22.8386 10.1684 10
      vertex 20.2254 14.6946 10
    endloop
  endfacet
  facet normal -0 0 1
    outer loop
      vertex 14.1831 -3.01472 10
      vertex 24.4537 -5.19779 10
      vertex 14.5 0 10
    endloop
  endfacet
  facet normal 0 0 1
    outer loop
      vertex 11.7307 8.52289 10
      vertex 20.2254 14.6946 10
      vertex 16.7283 18.5786 10
    endloop
  endfacet
  facet normal 0 0 1
    outer loop
      vertex 24.4537 -5.19779 10
      vertex 14.1831 -3.01472 10
      vertex 22.8386 -10.1684 10
    endloop
  endfacet
  facet normal -0 0 1
    outer loop
      vertex 13.2464 -5.89768 10
      vertex 22.8386 -10.1684 10
      vertex 14.1831 -3.01472 10
    endloop
  endfacet
  facet normal 0 0 1
    outer loop
      vertex 24.4537 5.19779 10
      vertex 14.1831 3.01472 10
      vertex 14.5 0 10
    endloop
  endfacet
  facet normal 0 0 1
    outer loop
      vertex 22.8386 10.1684 10
      vertex 13.2464 5.89768 10
      vertex 14.1831 3.01472 10
    endloop
  endfacet
  facet normal 0 0 1
    outer loop
      vertex 9.70239 10.7756 10
      vertex 16.7283 18.5786 10
      vertex 12.5 21.6506 10
    endloop
  endfacet
  facet normal 0 0 1
    outer loop
      vertex 20.2254 14.6946 10
      vertex 11.7307 8.52289 10
      vertex 13.2464 5.89768 10
    endloop
  endfacet
  facet normal 0 0 1
    outer loop
      vertex 16.7283 18.5786 10
      vertex 9.70239 10.7756 10
      vertex 11.7307 8.52289 10
    endloop
  endfacet
  facet normal 0 0 1
    outer loop
      vertex 7.25 12.5574 10
      vertex 12.5 21.6506 10
      vertex 7.72542 23.7764 10
    endloop
  endfacet
  facet normal 0 0 1
    outer loop
      vertex 12.5 21.6506 10
      vertex 7.25 12.5574 10
      vertex 9.70239 10.7756 10
    endloop
  endfacet
  facet normal 0 0 1
    outer loop
      vertex 7.72542 23.7764 10
      vertex 4.48075 13.7903 10
      vertex 7.25 12.5574 10
    endloop
  endfacet
  facet normal 0 0 1
    outer loop
      vertex 2.61321 24.863 10
      vertex 4.48075 13.7903 10
      vertex 7.72542 23.7764 10
    endloop
  endfacet
  facet normal 0 0 1
    outer loop
      vertex 2.61321 24.863 10
      vertex 1.51566 14.4206 10
      vertex 4.48075 13.7903 10
    endloop
  endfacet
  facet normal 0 0 1
    outer loop
      vertex 2.61321 24.863 10
      vertex -1.51566 14.4206 10
      vertex 1.51566 14.4206 10
    endloop
  endfacet
  facet normal -0 0 1
    outer loop
      vertex -2.61321 24.863 10
      vertex -1.51566 14.4206 10
      vertex 2.61321 24.863 10
    endloop
  endfacet
  facet normal 0 0 1
    outer loop
      vertex -2.61321 24.863 10
      vertex -4.48075 13.7903 10
      vertex -1.51566 14.4206 10
    endloop
  endfacet
  facet normal -0 0 1
    outer loop
      vertex -7.72542 23.7764 10
      vertex -4.48075 13.7903 10
      vertex -2.61321 24.863 10
    endloop
  endfacet
  facet normal 0 0 1
    outer loop
      vertex -4.48075 13.7903 10
      vertex -7.72542 23.7764 10
      vertex -7.25 12.5574 10
    endloop
  endfacet
  facet normal -0 0 1
    outer loop
      vertex -12.5 21.6506 10
      vertex -7.25 12.5574 10
      vertex -7.72542 23.7764 10
    endloop
  endfacet
  facet normal 0 0 1
    outer loop
      vertex -7.25 12.5574 10
      vertex -12.5 21.6506 10
      vertex -9.70239 10.7756 10
    endloop
  endfacet
  facet normal -0 0 1
    outer loop
      vertex -16.7283 18.5786 10
      vertex -9.70239 10.7756 10
      vertex -12.5 21.6506 10
    endloop
  endfacet
  facet normal 0 0 1
    outer loop
      vertex -9.70239 10.7756 10
      vertex -16.7283 18.5786 10
      vertex -11.7307 8.52289 10
    endloop
  endfacet
  facet normal -0 0 1
    outer loop
      vertex -20.2254 14.6946 10
      vertex -11.7307 8.52289 10
      vertex -16.7283 18.5786 10
    endloop
  endfacet
  facet normal 0 0 1
    outer loop
      vertex -11.7307 8.52289 10
      vertex -20.2254 14.6946 10
      vertex -13.2464 5.89768 10
    endloop
  endfacet
  facet normal -0 0 1
    outer loop
      vertex -22.8386 10.1684 10
      vertex -13.2464 5.89768 10
      vertex -20.2254 14.6946 10
    endloop
  endfacet
  facet normal 0 0 1
    outer loop
      vertex 22.8386 -10.1684 10
      vertex 13.2464 -5.89768 10
      vertex 20.2254 -14.6946 10
    endloop
  endfacet
  facet normal -0 0 1
    outer loop
      vertex 11.7307 -8.52289 10
      vertex 20.2254 -14.6946 10
      vertex 13.2464 -5.89768 10
    endloop
  endfacet
  facet normal 0 0 1
    outer loop
      vertex 20.2254 -14.6946 10
      vertex 11.7307 -8.52289 10
      vertex 16.7283 -18.5786 10
    endloop
  endfacet
  facet normal -0 0 1
    outer loop
      vertex 9.70239 -10.7756 10
      vertex 16.7283 -18.5786 10
      vertex 11.7307 -8.52289 10
    endloop
  endfacet
  facet normal 0 0 1
    outer loop
      vertex 16.7283 -18.5786 10
      vertex 9.70239 -10.7756 10
      vertex 12.5 -21.6506 10
    endloop
  endfacet
  facet normal -0 0 1
    outer loop
      vertex 7.25 -12.5574 10
      vertex 12.5 -21.6506 10
      vertex 9.70239 -10.7756 10
    endloop
  endfacet
  facet normal 0 0 1
    outer loop
      vertex 12.5 -21.6506 10
      vertex 7.25 -12.5574 10
      vertex 7.72542 -23.7764 10
    endloop
  endfacet
  facet normal -0 0 1
    outer loop
      vertex 4.48075 -13.7903 10
      vertex 7.72542 -23.7764 10
      vertex 7.25 -12.5574 10
    endloop
  endfacet
  facet normal 0 0 1
    outer loop
      vertex 4.48075 -13.7903 10
      vertex 2.61321 -24.863 10
      vertex 7.72542 -23.7764 10
    endloop
  endfacet
  facet normal -0 0 1
    outer loop
      vertex 1.51566 -14.4206 10
      vertex 2.61321 -24.863 10
      vertex 4.48075 -13.7903 10
    endloop
  endfacet
  facet normal -0 0 1
    outer loop
      vertex -1.51566 -14.4206 10
      vertex 2.61321 -24.863 10
      vertex 1.51566 -14.4206 10
    endloop
  endfacet
  facet normal 0 0 1
    outer loop
      vertex -1.51566 -14.4206 10
      vertex -2.61321 -24.863 10
      vertex 2.61321 -24.863 10
    endloop
  endfacet
  facet normal 0 0 1
    outer loop
      vertex -4.48075 -13.7903 10
      vertex -2.61321 -24.863 10
      vertex -1.51566 -14.4206 10
    endloop
  endfacet
  facet normal 0 0 1
    outer loop
      vertex -7.72542 -23.7764 10
      vertex -4.48075 -13.7903 10
      vertex -7.25 -12.5574 10
    endloop
  endfacet
  facet normal 0 0 1
    outer loop
      vertex -4.48075 -13.7903 10
      vertex -7.72542 -23.7764 10
      vertex -2.61321 -24.863 10
    endloop
  endfacet
  facet normal 0 0 1
    outer loop
      vertex -12.5 -21.6506 10
      vertex -7.25 -12.5574 10
      vertex -9.70239 -10.7756 10
    endloop
  endfacet
  facet normal 0 0 1
    outer loop
      vertex -16.7283 -18.5786 10
      vertex -9.70239 -10.7756 10
      vertex -11.7307 -8.52289 10
    endloop
  endfacet
  facet normal 0 0 1
    outer loop
      vertex -7.25 -12.5574 10
      vertex -12.5 -21.6506 10
      vertex -7.72542 -23.7764 10
    endloop
  endfacet
  facet normal 0 0 1
    outer loop
      vertex -20.2254 -14.6946 10
      vertex -11.7307 -8.52289 10
      vertex -13.2464 -5.89768 10
    endloop
  endfacet
  facet normal 0 0 1
    outer loop
      vertex -22.8386 -10.1684 10
      vertex -13.2464 -5.89768 10
      vertex -14.1831 -3.01472 10
    endloop
  endfacet
  facet normal 0 0 1
    outer loop
      vertex -24.4537 -5.19779 10
      vertex -14.1831 -3.01472 10
      vertex -14.5 0 10
    endloop
  endfacet
  facet normal 0 0 1
    outer loop
      vertex -13.2464 5.89768 10
      vertex -22.8386 10.1684 10
      vertex -14.1831 3.01472 10
    endloop
  endfacet
  facet normal 0 0 1
    outer loop
      vertex -9.70239 -10.7756 10
      vertex -16.7283 -18.5786 10
      vertex -12.5 -21.6506 10
    endloop
  endfacet
  facet normal -0 0 1
    outer loop
      vertex -24.4537 5.19779 10
      vertex -14.1831 3.01472 10
      vertex -22.8386 10.1684 10
    endloop
  endfacet
  facet normal 0 0 1
    outer loop
      vertex -11.7307 -8.52289 10
      vertex -20.2254 -14.6946 10
      vertex -16.7283 -18.5786 10
    endloop
  endfacet
  facet normal 0 0 1
    outer loop
      vertex -14.1831 3.01472 10
      vertex -24.4537 5.19779 10
      vertex -14.5 0 10
    endloop
  endfacet
  facet normal 0 0 1
    outer loop
      vertex -13.2464 -5.89768 10
      vertex -22.8386 -10.1684 10
      vertex -20.2254 -14.6946 10
    endloop
  endfacet
  facet normal 0 0 1
    outer loop
      vertex -25 0 10
      vertex -14.5 0 10
      vertex -24.4537 5.19779 10
    endloop
  endfacet
  facet normal 0 0 1
    outer loop
      vertex -14.1831 -3.01472 10
      vertex -24.4537 -5.19779 10
      vertex -22.8386 -10.1684 10
    endloop
  endfacet
  facet normal 0 0 1
    outer loop
      vertex -14.5 0 10
      vertex -25 0 10
      vertex -24.4537 -5.19779 10
    endloop
  endfacet
  facet normal -0.587785 0.809017 0
    outer loop
      vertex -12.5 21.6506 2
      vertex -16.7283 18.5786 10
      vertex -12.5 21.6506 10
    endloop
  endfacet
  facet normal -0.587785 0.809017 0
    outer loop
      vertex -16.7283 18.5786 10
      vertex -12.5 21.6506 2
      vertex -16.7283 18.5786 2
    endloop
  endfacet
  facet normal -0.207912 0.978148 0
    outer loop
      vertex -2.61321 24.863 2
      vertex -7.72542 23.7764 10
      vertex -2.61321 24.863 10
    endloop
  endfacet
  facet normal -0.207912 0.978148 0
    outer loop
      vertex -7.72542 23.7764 10
      vertex -2.61321 24.863 2
      vertex -7.72542 23.7764 2
    endloop
  endfacet
  facet normal 0.994522 -0.104529 0
    outer loop
      vertex 24.4537 -5.19779 10
      vertex 25 0 2
      vertex 25 0 10
    endloop
  endfacet
  facet normal 0.994522 -0.104529 0
    outer loop
      vertex 25 0 2
      vertex 24.4537 -5.19779 10
      vertex 24.4537 -5.19779 2
    endloop
  endfacet
  facet normal 0 0 -1
    outer loop
      vertex 18.5 0 0
      vertex 30.5 0 0
      vertex 29.8335 -6.34131 0
    endloop
  endfacet
  facet normal 0 0 -1
    outer loop
      vertex 18.0957 -3.84637 0
      vertex 29.8335 -6.34131 0
      vertex 27.8631 -12.4055 0
    endloop
  endfacet
  facet normal 0 0 -1
    outer loop
      vertex 30.5 0 0
      vertex 18.5 0 0
      vertex 29.8335 6.34131 0
    endloop
  endfacet
  facet normal 0 0 -1
    outer loop
      vertex 16.9006 -7.52463 0
      vertex 27.8631 -12.4055 0
      vertex 24.675 -17.9275 0
    endloop
  endfacet
  facet normal 0 0 -1
    outer loop
      vertex 18.0957 3.84637 0
      vertex 29.8335 6.34131 0
      vertex 18.5 0 0
    endloop
  endfacet
  facet normal 0 0 -1
    outer loop
      vertex 14.9668 -10.874 0
      vertex 24.675 -17.9275 0
      vertex 20.4085 -22.6659 0
    endloop
  endfacet
  facet normal -0 0 -1
    outer loop
      vertex 29.8335 6.34131 0
      vertex 18.0957 3.84637 0
      vertex 27.8631 12.4055 0
    endloop
  endfacet
  facet normal 0 0 -1
    outer loop
      vertex 16.9006 7.52463 0
      vertex 27.8631 12.4055 0
      vertex 18.0957 3.84637 0
    endloop
  endfacet
  facet normal 0 0 -1
    outer loop
      vertex 29.8335 -6.34131 0
      vertex 18.0957 -3.84637 0
      vertex 18.5 0 0
    endloop
  endfacet
  facet normal 0 0 -1
    outer loop
      vertex 27.8631 -12.4055 0
      vertex 16.9006 -7.52463 0
      vertex 18.0957 -3.84637 0
    endloop
  endfacet
  facet normal 0 0 -1
    outer loop
      vertex 12.3789 -13.7482 0
      vertex 20.4085 -22.6659 0
      vertex 15.25 -26.4138 0
    endloop
  endfacet
  facet normal 0 0 -1
    outer loop
      vertex 24.675 -17.9275 0
      vertex 14.9668 -10.874 0
      vertex 16.9006 -7.52463 0
    endloop
  endfacet
  facet normal 0 0 -1
    outer loop
      vertex 20.4085 -22.6659 0
      vertex 12.3789 -13.7482 0
      vertex 14.9668 -10.874 0
    endloop
  endfacet
  facet normal 0 0 -1
    outer loop
      vertex 9.25 -16.0215 0
      vertex 15.25 -26.4138 0
      vertex 9.42502 -29.0072 0
    endloop
  endfacet
  facet normal 0 0 -1
    outer loop
      vertex 15.25 -26.4138 0
      vertex 9.25 -16.0215 0
      vertex 12.3789 -13.7482 0
    endloop
  endfacet
  facet normal 0 0 -1
    outer loop
      vertex 9.42502 -29.0072 0
      vertex 5.71681 -17.5945 0
      vertex 9.25 -16.0215 0
    endloop
  endfacet
  facet normal 0 0 -1
    outer loop
      vertex 3.18812 -30.3329 0
      vertex 5.71681 -17.5945 0
      vertex 9.42502 -29.0072 0
    endloop
  endfacet
  facet normal 0 0 -1
    outer loop
      vertex 3.18812 -30.3329 0
      vertex 1.93378 -18.3987 0
      vertex 5.71681 -17.5945 0
    endloop
  endfacet
  facet normal 0 0 -1
    outer loop
      vertex 3.18812 -30.3329 0
      vertex -1.93378 -18.3987 0
      vertex 1.93378 -18.3987 0
    endloop
  endfacet
  facet normal 0 0 -1
    outer loop
      vertex -3.18812 -30.3329 0
      vertex -1.93378 -18.3987 0
      vertex 3.18812 -30.3329 0
    endloop
  endfacet
  facet normal 0 0 -1
    outer loop
      vertex -3.18812 -30.3329 0
      vertex -5.71681 -17.5945 0
      vertex -1.93378 -18.3987 0
    endloop
  endfacet
  facet normal 0 0 -1
    outer loop
      vertex -9.42502 -29.0072 0
      vertex -5.71681 -17.5945 0
      vertex -3.18812 -30.3329 0
    endloop
  endfacet
  facet normal -0 0 -1
    outer loop
      vertex -5.71681 -17.5945 0
      vertex -9.42502 -29.0072 0
      vertex -9.25 -16.0215 0
    endloop
  endfacet
  facet normal 0 0 -1
    outer loop
      vertex -15.25 -26.4138 0
      vertex -9.25 -16.0215 0
      vertex -9.42502 -29.0072 0
    endloop
  endfacet
  facet normal -0 0 -1
    outer loop
      vertex -9.25 -16.0215 0
      vertex -15.25 -26.4138 0
      vertex -12.3789 -13.7482 0
    endloop
  endfacet
  facet normal 0 0 -1
    outer loop
      vertex -20.4085 -22.6659 0
      vertex -12.3789 -13.7482 0
      vertex -15.25 -26.4138 0
    endloop
  endfacet
  facet normal -0 0 -1
    outer loop
      vertex -12.3789 -13.7482 0
      vertex -20.4085 -22.6659 0
      vertex -14.9668 -10.874 0
    endloop
  endfacet
  facet normal 0 0 -1
    outer loop
      vertex -24.675 -17.9275 0
      vertex -14.9668 -10.874 0
      vertex -20.4085 -22.6659 0
    endloop
  endfacet
  facet normal 0 0 -1
    outer loop
      vertex -27.8631 -12.4055 0
      vertex -16.9006 -7.52463 0
      vertex -24.675 -17.9275 0
    endloop
  endfacet
  facet normal -0 0 -1
    outer loop
      vertex -14.9668 -10.874 0
      vertex -24.675 -17.9275 0
      vertex -16.9006 -7.52463 0
    endloop
  endfacet
  facet normal -0 0 -1
    outer loop
      vertex 27.8631 12.4055 0
      vertex 16.9006 7.52463 0
      vertex 24.675 17.9275 0
    endloop
  endfacet
  facet normal 0 0 -1
    outer loop
      vertex 14.9668 10.874 0
      vertex 24.675 17.9275 0
      vertex 16.9006 7.52463 0
    endloop
  endfacet
  facet normal -0 0 -1
    outer loop
      vertex 24.675 17.9275 0
      vertex 14.9668 10.874 0
      vertex 20.4085 22.6659 0
    endloop
  endfacet
  facet normal 0 0 -1
    outer loop
      vertex 12.3789 13.7482 0
      vertex 20.4085 22.6659 0
      vertex 14.9668 10.874 0
    endloop
  endfacet
  facet normal -0 0 -1
    outer loop
      vertex 20.4085 22.6659 0
      vertex 12.3789 13.7482 0
      vertex 15.25 26.4138 0
    endloop
  endfacet
  facet normal 0 0 -1
    outer loop
      vertex 9.25 16.0215 0
      vertex 15.25 26.4138 0
      vertex 12.3789 13.7482 0
    endloop
  endfacet
  facet normal -0 0 -1
    outer loop
      vertex 15.25 26.4138 0
      vertex 9.25 16.0215 0
      vertex 9.42502 29.0072 0
    endloop
  endfacet
  facet normal 0 0 -1
    outer loop
      vertex 5.71681 17.5945 0
      vertex 9.42502 29.0072 0
      vertex 9.25 16.0215 0
    endloop
  endfacet
  facet normal 0 0 -1
    outer loop
      vertex 5.71681 17.5945 0
      vertex 3.18812 30.3329 0
      vertex 9.42502 29.0072 0
    endloop
  endfacet
  facet normal 0 0 -1
    outer loop
      vertex 1.93378 18.3987 0
      vertex 3.18812 30.3329 0
      vertex 5.71681 17.5945 0
    endloop
  endfacet
  facet normal 0 0 -1
    outer loop
      vertex -1.93378 18.3987 0
      vertex 3.18812 30.3329 0
      vertex 1.93378 18.3987 0
    endloop
  endfacet
  facet normal 0 0 -1
    outer loop
      vertex -1.93378 18.3987 0
      vertex -3.18812 30.3329 0
      vertex 3.18812 30.3329 0
    endloop
  endfacet
  facet normal 0 0 -1
    outer loop
      vertex -5.71681 17.5945 0
      vertex -3.18812 30.3329 0
      vertex -1.93378 18.3987 0
    endloop
  endfacet
  facet normal 0 0 -1
    outer loop
      vertex -9.42502 29.0072 0
      vertex -5.71681 17.5945 0
      vertex -9.25 16.0215 0
    endloop
  endfacet
  facet normal 0 0 -1
    outer loop
      vertex -5.71681 17.5945 0
      vertex -9.42502 29.0072 0
      vertex -3.18812 30.3329 0
    endloop
  endfacet
  facet normal 0 0 -1
    outer loop
      vertex -15.25 26.4138 0
      vertex -9.25 16.0215 0
      vertex -12.3789 13.7482 0
    endloop
  endfacet
  facet normal 0 0 -1
    outer loop
      vertex -20.4085 22.6659 0
      vertex -12.3789 13.7482 0
      vertex -14.9668 10.874 0
    endloop
  endfacet
  facet normal 0 0 -1
    outer loop
      vertex -9.25 16.0215 0
      vertex -15.25 26.4138 0
      vertex -9.42502 29.0072 0
    endloop
  endfacet
  facet normal 0 0 -1
    outer loop
      vertex -24.675 17.9275 0
      vertex -14.9668 10.874 0
      vertex -16.9006 7.52463 0
    endloop
  endfacet
  facet normal 0 0 -1
    outer loop
      vertex -27.8631 12.4055 0
      vertex -16.9006 7.52463 0
      vertex -18.0957 3.84637 0
    endloop
  endfacet
  facet normal 0 0 -1
    outer loop
      vertex -12.3789 13.7482 0
      vertex -20.4085 22.6659 0
      vertex -15.25 26.4138 0
    endloop
  endfacet
  facet normal 0 0 -1
    outer loop
      vertex -29.8335 6.34131 0
      vertex -18.0957 3.84637 0
      vertex -18.5 0 0
    endloop
  endfacet
  facet normal -0 0 -1
    outer loop
      vertex -16.9006 -7.52463 0
      vertex -27.8631 -12.4055 0
      vertex -18.0957 -3.84637 0
    endloop
  endfacet
  facet normal 0 0 -1
    outer loop
      vertex -29.8335 -6.34131 0
      vertex -18.0957 -3.84637 0
      vertex -27.8631 -12.4055 0
    endloop
  endfacet
  facet normal 0 0 -1
    outer loop
      vertex -14.9668 10.874 0
      vertex -24.675 17.9275 0
      vertex -20.4085 22.6659 0
    endloop
  endfacet
  facet normal -0 0 -1
    outer loop
      vertex -18.0957 -3.84637 0
      vertex -29.8335 -6.34131 0
      vertex -18.5 0 0
    endloop
  endfacet
  facet normal 0 0 -1
    outer loop
      vertex -16.9006 7.52463 0
      vertex -27.8631 12.4055 0
      vertex -24.675 17.9275 0
    endloop
  endfacet
  facet normal 0 0 -1
    outer loop
      vertex -30.5 0 0
      vertex -18.5 0 0
      vertex -29.8335 -6.34131 0
    endloop
  endfacet
  facet normal 0 0 -1
    outer loop
      vertex -18.0957 3.84637 0
      vertex -29.8335 6.34131 0
      vertex -27.8631 12.4055 0
    endloop
  endfacet
  facet normal 0 0 -1
    outer loop
      vertex -18.5 0 0
      vertex -30.5 0 0
      vertex -29.8335 6.34131 0
    endloop
  endfacet
  facet normal 0.866025 -0.5 0
    outer loop
      vertex 20.2254 -14.6946 10
      vertex 22.8386 -10.1684 2
      vertex 22.8386 -10.1684 10
    endloop
  endfacet
  facet normal 0.866025 -0.5 0
    outer loop
      vertex 22.8386 -10.1684 2
      vertex 20.2254 -14.6946 10
      vertex 20.2254 -14.6946 2
    endloop
  endfacet
  facet normal -0.866025 -0.5 0
    outer loop
      vertex -20.2254 -14.6946 2
      vertex -22.8386 -10.1684 10
      vertex -22.8386 -10.1684 2
    endloop
  endfacet
  facet normal -0.866025 -0.5 0
    outer loop
      vertex -22.8386 -10.1684 10
      vertex -20.2254 -14.6946 2
      vertex -20.2254 -14.6946 10
    endloop
  endfacet
  facet normal 0.587785 -0.809017 0
    outer loop
      vertex 12.5 -21.6506 2
      vertex 16.7283 -18.5786 10
      vertex 12.5 -21.6506 10
    endloop
  endfacet
  facet normal 0.587785 -0.809017 0
    outer loop
      vertex 16.7283 -18.5786 10
      vertex 12.5 -21.6506 2
      vertex 16.7283 -18.5786 2
    endloop
  endfacet
  facet normal -0.207912 -0.978148 0
    outer loop
      vertex -7.72542 -23.7764 2
      vertex -2.61321 -24.863 10
      vertex -7.72542 -23.7764 10
    endloop
  endfacet
  facet normal -0.207912 -0.978148 -0
    outer loop
      vertex -2.61321 -24.863 10
      vertex -7.72542 -23.7764 2
      vertex -2.61321 -24.863 2
    endloop
  endfacet
  facet normal -0.743145 -0.669131 0
    outer loop
      vertex -16.7283 -18.5786 2
      vertex -20.2254 -14.6946 10
      vertex -20.2254 -14.6946 2
    endloop
  endfacet
  facet normal -0.743145 -0.669131 0
    outer loop
      vertex -20.2254 -14.6946 10
      vertex -16.7283 -18.5786 2
      vertex -16.7283 -18.5786 10
    endloop
  endfacet
  facet normal -0.951057 -0.309017 0
    outer loop
      vertex -22.8386 -10.1684 2
      vertex -24.4537 -5.19779 10
      vertex -24.4537 -5.19779 2
    endloop
  endfacet
  facet normal -0.951057 -0.309017 0
    outer loop
      vertex -24.4537 -5.19779 10
      vertex -22.8386 -10.1684 2
      vertex -22.8386 -10.1684 10
    endloop
  endfacet
  facet normal -0.994522 -0.104529 0
    outer loop
      vertex -24.4537 -5.19779 2
      vertex -25 0 10
      vertex -25 0 2
    endloop
  endfacet
  facet normal -0.994522 -0.104529 0
    outer loop
      vertex -25 0 10
      vertex -24.4537 -5.19779 2
      vertex -24.4537 -5.19779 10
    endloop
  endfacet
  facet normal 0.406737 -0.913545 0
    outer loop
      vertex 7.72542 -23.7764 2
      vertex 12.5 -21.6506 10
      vertex 7.72542 -23.7764 10
    endloop
  endfacet
  facet normal 0.406737 -0.913545 0
    outer loop
      vertex 12.5 -21.6506 10
      vertex 7.72542 -23.7764 2
      vertex 12.5 -21.6506 2
    endloop
  endfacet
  facet normal 0.207912 -0.978148 0
    outer loop
      vertex 2.61321 -24.863 2
      vertex 7.72542 -23.7764 10
      vertex 2.61321 -24.863 10
    endloop
  endfacet
  facet normal 0.207912 -0.978148 0
    outer loop
      vertex 7.72542 -23.7764 10
      vertex 2.61321 -24.863 2
      vertex 7.72542 -23.7764 2
    endloop
  endfacet
  facet normal 0.743145 -0.669131 0
    outer loop
      vertex 16.7283 -18.5786 10
      vertex 20.2254 -14.6946 2
      vertex 20.2254 -14.6946 10
    endloop
  endfacet
  facet normal 0.743145 -0.669131 0
    outer loop
      vertex 20.2254 -14.6946 2
      vertex 16.7283 -18.5786 10
      vertex 16.7283 -18.5786 2
    endloop
  endfacet
  facet normal -0.406737 -0.913545 0
    outer loop
      vertex -12.5 -21.6506 2
      vertex -7.72542 -23.7764 10
      vertex -12.5 -21.6506 10
    endloop
  endfacet
  facet normal -0.406737 -0.913545 -0
    outer loop
      vertex -7.72542 -23.7764 10
      vertex -12.5 -21.6506 2
      vertex -7.72542 -23.7764 2
    endloop
  endfacet
  facet normal -0.587785 -0.809017 0
    outer loop
      vertex -16.7283 -18.5786 2
      vertex -12.5 -21.6506 10
      vertex -16.7283 -18.5786 10
    endloop
  endfacet
  facet normal -0.587785 -0.809017 -0
    outer loop
      vertex -12.5 -21.6506 10
      vertex -16.7283 -18.5786 2
      vertex -12.5 -21.6506 2
    endloop
  endfacet
  facet normal 0.866025 0.5 0
    outer loop
      vertex 27.8631 12.4055 2
      vertex 24.675 17.9275 0
      vertex 24.675 17.9275 2
    endloop
  endfacet
  facet normal 0.866025 0.5 0
    outer loop
      vertex 24.675 17.9275 0
      vertex 27.8631 12.4055 2
      vertex 27.8631 12.4055 0
    endloop
  endfacet
  facet normal -0.994522 0.104528 0
    outer loop
      vertex -30.5 0 0
      vertex -29.8335 6.34131 2
      vertex -29.8335 6.34131 0
    endloop
  endfacet
  facet normal -0.994522 0.104528 0
    outer loop
      vertex -29.8335 6.34131 2
      vertex -30.5 0 0
      vertex -30.5 0 2
    endloop
  endfacet
  facet normal 0 1 -0
    outer loop
      vertex 3.18812 30.3329 0
      vertex -3.18812 30.3329 2
      vertex 3.18812 30.3329 2
    endloop
  endfacet
  facet normal 0 1 0
    outer loop
      vertex -3.18812 30.3329 2
      vertex 3.18812 30.3329 0
      vertex -3.18812 30.3329 0
    endloop
  endfacet
  facet normal 0.743145 0.669131 0
    outer loop
      vertex 24.675 17.9275 2
      vertex 20.4085 22.6659 0
      vertex 20.4085 22.6659 2
    endloop
  endfacet
  facet normal 0.743145 0.669131 0
    outer loop
      vertex 20.4085 22.6659 0
      vertex 24.675 17.9275 2
      vertex 24.675 17.9275 0
    endloop
  endfacet
  facet normal 0.207912 0.978148 -0
    outer loop
      vertex 9.42502 29.0072 0
      vertex 3.18812 30.3329 2
      vertex 9.42502 29.0072 2
    endloop
  endfacet
  facet normal 0.207912 0.978148 0
    outer loop
      vertex 3.18812 30.3329 2
      vertex 9.42502 29.0072 0
      vertex 3.18812 30.3329 0
    endloop
  endfacet
  facet normal -0.406737 0.913545 0
    outer loop
      vertex -9.42502 29.0072 0
      vertex -15.25 26.4138 2
      vertex -9.42502 29.0072 2
    endloop
  endfacet
  facet normal -0.406737 0.913545 0
    outer loop
      vertex -15.25 26.4138 2
      vertex -9.42502 29.0072 0
      vertex -15.25 26.4138 0
    endloop
  endfacet
  facet normal -0.951057 0.309017 0
    outer loop
      vertex -29.8335 6.34131 0
      vertex -27.8631 12.4055 2
      vertex -27.8631 12.4055 0
    endloop
  endfacet
  facet normal -0.951057 0.309017 0
    outer loop
      vertex -27.8631 12.4055 2
      vertex -29.8335 6.34131 0
      vertex -29.8335 6.34131 2
    endloop
  endfacet
  facet normal 0.994522 -0.104528 0
    outer loop
      vertex 29.8335 -6.34131 2
      vertex 30.5 0 0
      vertex 30.5 0 2
    endloop
  endfacet
  facet normal 0.994522 -0.104528 0
    outer loop
      vertex 30.5 0 0
      vertex 29.8335 -6.34131 2
      vertex 29.8335 -6.34131 0
    endloop
  endfacet
  facet normal 0.207912 -0.978148 0
    outer loop
      vertex 3.18812 -30.3329 0
      vertex 9.42502 -29.0072 2
      vertex 3.18812 -30.3329 2
    endloop
  endfacet
  facet normal 0.207912 -0.978148 0
    outer loop
      vertex 9.42502 -29.0072 2
      vertex 3.18812 -30.3329 0
      vertex 9.42502 -29.0072 0
    endloop
  endfacet
  facet normal 0.951057 0.309017 0
    outer loop
      vertex 29.8335 6.34131 2
      vertex 27.8631 12.4055 0
      vertex 27.8631 12.4055 2
    endloop
  endfacet
  facet normal 0.951057 0.309017 0
    outer loop
      vertex 27.8631 12.4055 0
      vertex 29.8335 6.34131 2
      vertex 29.8335 6.34131 0
    endloop
  endfacet
  facet normal 0.587785 0.809017 -0
    outer loop
      vertex 20.4085 22.6659 0
      vertex 15.25 26.4138 2
      vertex 20.4085 22.6659 2
    endloop
  endfacet
  facet normal 0.587785 0.809017 0
    outer loop
      vertex 15.25 26.4138 2
      vertex 20.4085 22.6659 0
      vertex 15.25 26.4138 0
    endloop
  endfacet
  facet normal 0.406737 0.913545 -0
    outer loop
      vertex 15.25 26.4138 0
      vertex 9.42502 29.0072 2
      vertex 15.25 26.4138 2
    endloop
  endfacet
  facet normal 0.406737 0.913545 0
    outer loop
      vertex 9.42502 29.0072 2
      vertex 15.25 26.4138 0
      vertex 9.42502 29.0072 0
    endloop
  endfacet
  facet normal 0 0 1
    outer loop
      vertex 25 0 2
      vertex 30.5 0 2
      vertex 29.8335 6.34131 2
    endloop
  endfacet
  facet normal 0 0 1
    outer loop
      vertex 24.4537 5.19779 2
      vertex 29.8335 6.34131 2
      vertex 27.8631 12.4055 2
    endloop
  endfacet
  facet normal 0 0 1
    outer loop
      vertex 30.5 0 2
      vertex 25 0 2
      vertex 29.8335 -6.34131 2
    endloop
  endfacet
  facet normal -0 0 1
    outer loop
      vertex 24.4537 -5.19779 2
      vertex 29.8335 -6.34131 2
      vertex 25 0 2
    endloop
  endfacet
  facet normal 0 0 1
    outer loop
      vertex 22.8386 10.1684 2
      vertex 27.8631 12.4055 2
      vertex 24.675 17.9275 2
    endloop
  endfacet
  facet normal 0 0 1
    outer loop
      vertex 29.8335 6.34131 2
      vertex 24.4537 5.19779 2
      vertex 25 0 2
    endloop
  endfacet
  facet normal 0 0 1
    outer loop
      vertex 27.8631 12.4055 2
      vertex 22.8386 10.1684 2
      vertex 24.4537 5.19779 2
    endloop
  endfacet
  facet normal 0 0 1
    outer loop
      vertex 20.2254 14.6946 2
      vertex 24.675 17.9275 2
      vertex 20.4085 22.6659 2
    endloop
  endfacet
  facet normal 0 0 1
    outer loop
      vertex 24.675 17.9275 2
      vertex 20.2254 14.6946 2
      vertex 22.8386 10.1684 2
    endloop
  endfacet
  facet normal 0 0 1
    outer loop
      vertex 20.4085 22.6659 2
      vertex 16.7283 18.5786 2
      vertex 20.2254 14.6946 2
    endloop
  endfacet
  facet normal 0 0 1
    outer loop
      vertex 15.25 26.4138 2
      vertex 16.7283 18.5786 2
      vertex 20.4085 22.6659 2
    endloop
  endfacet
  facet normal 0 0 1
    outer loop
      vertex 15.25 26.4138 2
      vertex 12.5 21.6506 2
      vertex 16.7283 18.5786 2
    endloop
  endfacet
  facet normal 0 0 1
    outer loop
      vertex 9.42502 29.0072 2
      vertex 12.5 21.6506 2
      vertex 15.25 26.4138 2
    endloop
  endfacet
  facet normal 0 0 1
    outer loop
      vertex 9.42502 29.0072 2
      vertex 7.72542 23.7764 2
      vertex 12.5 21.6506 2
    endloop
  endfacet
  facet normal 0 0 1
    outer loop
      vertex 3.18812 30.3329 2
      vertex 7.72542 23.7764 2
      vertex 9.42502 29.0072 2
    endloop
  endfacet
  facet normal 0 0 1
    outer loop
      vertex 3.18812 30.3329 2
      vertex 2.61321 24.863 2
      vertex 7.72542 23.7764 2
    endloop
  endfacet
  facet normal 0 0 1
    outer loop
      vertex 3.18812 30.3329 2
      vertex -2.61321 24.863 2
      vertex 2.61321 24.863 2
    endloop
  endfacet
  facet normal -0 0 1
    outer loop
      vertex -3.18812 30.3329 2
      vertex -2.61321 24.863 2
      vertex 3.18812 30.3329 2
    endloop
  endfacet
  facet normal 0 0 1
    outer loop
      vertex -3.18812 30.3329 2
      vertex -7.72542 23.7764 2
      vertex -2.61321 24.863 2
    endloop
  endfacet
  facet normal -0 0 1
    outer loop
      vertex -9.42502 29.0072 2
      vertex -7.72542 23.7764 2
      vertex -3.18812 30.3329 2
    endloop
  endfacet
  facet normal 0 0 1
    outer loop
      vertex -9.42502 29.0072 2
      vertex -12.5 21.6506 2
      vertex -7.72542 23.7764 2
    endloop
  endfacet
  facet normal -0 0 1
    outer loop
      vertex -15.25 26.4138 2
      vertex -12.5 21.6506 2
      vertex -9.42502 29.0072 2
    endloop
  endfacet
  facet normal 0 0 1
    outer loop
      vertex -15.25 26.4138 2
      vertex -16.7283 18.5786 2
      vertex -12.5 21.6506 2
    endloop
  endfacet
  facet normal -0 0 1
    outer loop
      vertex -20.4085 22.6659 2
      vertex -16.7283 18.5786 2
      vertex -15.25 26.4138 2
    endloop
  endfacet
  facet normal 0 0 1
    outer loop
      vertex -16.7283 18.5786 2
      vertex -20.4085 22.6659 2
      vertex -20.2254 14.6946 2
    endloop
  endfacet
  facet normal -0 0 1
    outer loop
      vertex -24.675 17.9275 2
      vertex -20.2254 14.6946 2
      vertex -20.4085 22.6659 2
    endloop
  endfacet
  facet normal 0 0 1
    outer loop
      vertex -20.2254 14.6946 2
      vertex -24.675 17.9275 2
      vertex -22.8386 10.1684 2
    endloop
  endfacet
  facet normal -0 0 1
    outer loop
      vertex -27.8631 12.4055 2
      vertex -22.8386 10.1684 2
      vertex -24.675 17.9275 2
    endloop
  endfacet
  facet normal 0 0 1
    outer loop
      vertex -22.8386 10.1684 2
      vertex -27.8631 12.4055 2
      vertex -24.4537 5.19779 2
    endloop
  endfacet
  facet normal -0 0 1
    outer loop
      vertex -29.8335 6.34131 2
      vertex -24.4537 5.19779 2
      vertex -27.8631 12.4055 2
    endloop
  endfacet
  facet normal 0 0 1
    outer loop
      vertex 29.8335 -6.34131 2
      vertex 24.4537 -5.19779 2
      vertex 27.8631 -12.4055 2
    endloop
  endfacet
  facet normal -0 0 1
    outer loop
      vertex 22.8386 -10.1684 2
      vertex 27.8631 -12.4055 2
      vertex 24.4537 -5.19779 2
    endloop
  endfacet
  facet normal 0 0 1
    outer loop
      vertex 27.8631 -12.4055 2
      vertex 22.8386 -10.1684 2
      vertex 24.675 -17.9275 2
    endloop
  endfacet
  facet normal -0 0 1
    outer loop
      vertex 20.2254 -14.6946 2
      vertex 24.675 -17.9275 2
      vertex 22.8386 -10.1684 2
    endloop
  endfacet
  facet normal 0 0 1
    outer loop
      vertex 24.675 -17.9275 2
      vertex 20.2254 -14.6946 2
      vertex 20.4085 -22.6659 2
    endloop
  endfacet
  facet normal -0 0 1
    outer loop
      vertex 16.7283 -18.5786 2
      vertex 20.4085 -22.6659 2
      vertex 20.2254 -14.6946 2
    endloop
  endfacet
  facet normal 0 0 1
    outer loop
      vertex 16.7283 -18.5786 2
      vertex 15.25 -26.4138 2
      vertex 20.4085 -22.6659 2
    endloop
  endfacet
  facet normal -0 0 1
    outer loop
      vertex 12.5 -21.6506 2
      vertex 15.25 -26.4138 2
      vertex 16.7283 -18.5786 2
    endloop
  endfacet
  facet normal 0 0 1
    outer loop
      vertex 12.5 -21.6506 2
      vertex 9.42502 -29.0072 2
      vertex 15.25 -26.4138 2
    endloop
  endfacet
  facet normal -0 0 1
    outer loop
      vertex 7.72542 -23.7764 2
      vertex 9.42502 -29.0072 2
      vertex 12.5 -21.6506 2
    endloop
  endfacet
  facet normal 0 0 1
    outer loop
      vertex 7.72542 -23.7764 2
      vertex 3.18812 -30.3329 2
      vertex 9.42502 -29.0072 2
    endloop
  endfacet
  facet normal -0 0 1
    outer loop
      vertex 2.61321 -24.863 2
      vertex 3.18812 -30.3329 2
      vertex 7.72542 -23.7764 2
    endloop
  endfacet
  facet normal -0 0 1
    outer loop
      vertex -2.61321 -24.863 2
      vertex 3.18812 -30.3329 2
      vertex 2.61321 -24.863 2
    endloop
  endfacet
  facet normal 0 0 1
    outer loop
      vertex -2.61321 -24.863 2
      vertex -3.18812 -30.3329 2
      vertex 3.18812 -30.3329 2
    endloop
  endfacet
  facet normal 0 0 1
    outer loop
      vertex -7.72542 -23.7764 2
      vertex -3.18812 -30.3329 2
      vertex -2.61321 -24.863 2
    endloop
  endfacet
  facet normal 0 0 1
    outer loop
      vertex -7.72542 -23.7764 2
      vertex -9.42502 -29.0072 2
      vertex -3.18812 -30.3329 2
    endloop
  endfacet
  facet normal 0 0 1
    outer loop
      vertex -12.5 -21.6506 2
      vertex -9.42502 -29.0072 2
      vertex -7.72542 -23.7764 2
    endloop
  endfacet
  facet normal 0 0 1
    outer loop
      vertex -12.5 -21.6506 2
      vertex -15.25 -26.4138 2
      vertex -9.42502 -29.0072 2
    endloop
  endfacet
  facet normal 0 0 1
    outer loop
      vertex -16.7283 -18.5786 2
      vertex -15.25 -26.4138 2
      vertex -12.5 -21.6506 2
    endloop
  endfacet
  facet normal 0 0 1
    outer loop
      vertex -20.4085 -22.6659 2
      vertex -16.7283 -18.5786 2
      vertex -20.2254 -14.6946 2
    endloop
  endfacet
  facet normal 0 0 1
    outer loop
      vertex -16.7283 -18.5786 2
      vertex -20.4085 -22.6659 2
      vertex -15.25 -26.4138 2
    endloop
  endfacet
  facet normal 0 0 1
    outer loop
      vertex -24.675 -17.9275 2
      vertex -20.2254 -14.6946 2
      vertex -22.8386 -10.1684 2
    endloop
  endfacet
  facet normal 0 0 1
    outer loop
      vertex -27.8631 -12.4055 2
      vertex -22.8386 -10.1684 2
      vertex -24.4537 -5.19779 2
    endloop
  endfacet
  facet normal 0 0 1
    outer loop
      vertex -20.2254 -14.6946 2
      vertex -24.675 -17.9275 2
      vertex -20.4085 -22.6659 2
    endloop
  endfacet
  facet normal 0 0 1
    outer loop
      vertex -29.8335 -6.34131 2
      vertex -24.4537 -5.19779 2
      vertex -25 0 2
    endloop
  endfacet
  facet normal 0 0 1
    outer loop
      vertex -24.4537 5.19779 2
      vertex -29.8335 6.34131 2
      vertex -25 0 2
    endloop
  endfacet
  facet normal 0 0 1
    outer loop
      vertex -22.8386 -10.1684 2
      vertex -27.8631 -12.4055 2
      vertex -24.675 -17.9275 2
    endloop
  endfacet
  facet normal 0 0 1
    outer loop
      vertex -30.5 0 2
      vertex -25 0 2
      vertex -29.8335 6.34131 2
    endloop
  endfacet
  facet normal 0 0 1
    outer loop
      vertex -24.4537 -5.19779 2
      vertex -29.8335 -6.34131 2
      vertex -27.8631 -12.4055 2
    endloop
  endfacet
  facet normal 0 0 1
    outer loop
      vertex -25 0 2
      vertex -30.5 0 2
      vertex -29.8335 -6.34131 2
    endloop
  endfacet
  facet normal -0.866025 0.5 0
    outer loop
      vertex -27.8631 12.4055 0
      vertex -24.675 17.9275 2
      vertex -24.675 17.9275 0
    endloop
  endfacet
  facet normal -0.866025 0.5 0
    outer loop
      vertex -24.675 17.9275 2
      vertex -27.8631 12.4055 0
      vertex -27.8631 12.4055 2
    endloop
  endfacet
  facet normal -0.587785 0.809017 0
    outer loop
      vertex -15.25 26.4138 0
      vertex -20.4085 22.6659 2
      vertex -15.25 26.4138 2
    endloop
  endfacet
  facet normal -0.587785 0.809017 0
    outer loop
      vertex -20.4085 22.6659 2
      vertex -15.25 26.4138 0
      vertex -20.4085 22.6659 0
    endloop
  endfacet
  facet normal -0.207912 0.978148 0
    outer loop
      vertex -3.18812 30.3329 0
      vertex -9.42502 29.0072 2
      vertex -3.18812 30.3329 2
    endloop
  endfacet
  facet normal -0.207912 0.978148 0
    outer loop
      vertex -9.42502 29.0072 2
      vertex -3.18812 30.3329 0
      vertex -9.42502 29.0072 0
    endloop
  endfacet
  facet normal -0.743145 0.669131 0
    outer loop
      vertex -24.675 17.9275 0
      vertex -20.4085 22.6659 2
      vertex -20.4085 22.6659 0
    endloop
  endfacet
  facet normal -0.743145 0.669131 0
    outer loop
      vertex -20.4085 22.6659 2
      vertex -24.675 17.9275 0
      vertex -24.675 17.9275 2
    endloop
  endfacet
  facet normal 0.994522 0.104528 0
    outer loop
      vertex 30.5 0 2
      vertex 29.8335 6.34131 0
      vertex 29.8335 6.34131 2
    endloop
  endfacet
  facet normal 0.994522 0.104528 0
    outer loop
      vertex 29.8335 6.34131 0
      vertex 30.5 0 2
      vertex 30.5 0 0
    endloop
  endfacet
  facet normal -0.207912 -0.978148 0
    outer loop
      vertex -9.42502 -29.0072 0
      vertex -3.18812 -30.3329 2
      vertex -9.42502 -29.0072 2
    endloop
  endfacet
  facet normal -0.207912 -0.978148 -0
    outer loop
      vertex -3.18812 -30.3329 2
      vertex -9.42502 -29.0072 0
      vertex -3.18812 -30.3329 0
    endloop
  endfacet
  facet normal -0.994522 -0.104528 0
    outer loop
      vertex -29.8335 -6.34131 0
      vertex -30.5 0 2
      vertex -30.5 0 0
    endloop
  endfacet
  facet normal -0.994522 -0.104528 0
    outer loop
      vertex -30.5 0 2
      vertex -29.8335 -6.34131 0
      vertex -29.8335 -6.34131 2
    endloop
  endfacet
  facet normal -0.951057 -0.309017 0
    outer loop
      vertex -27.8631 -12.4055 0
      vertex -29.8335 -6.34131 2
      vertex -29.8335 -6.34131 0
    endloop
  endfacet
  facet normal -0.951057 -0.309017 0
    outer loop
      vertex -29.8335 -6.34131 2
      vertex -27.8631 -12.4055 0
      vertex -27.8631 -12.4055 2
    endloop
  endfacet
  facet normal 0.587785 -0.809017 0
    outer loop
      vertex 15.25 -26.4138 0
      vertex 20.4085 -22.6659 2
      vertex 15.25 -26.4138 2
    endloop
  endfacet
  facet normal 0.587785 -0.809017 0
    outer loop
      vertex 20.4085 -22.6659 2
      vertex 15.25 -26.4138 0
      vertex 20.4085 -22.6659 0
    endloop
  endfacet
  facet normal 0.951057 -0.309017 0
    outer loop
      vertex 27.8631 -12.4055 2
      vertex 29.8335 -6.34131 0
      vertex 29.8335 -6.34131 2
    endloop
  endfacet
  facet normal 0.951057 -0.309017 0
    outer loop
      vertex 29.8335 -6.34131 0
      vertex 27.8631 -12.4055 2
      vertex 27.8631 -12.4055 0
    endloop
  endfacet
  facet normal 0.866025 -0.5 0
    outer loop
      vertex 24.675 -17.9275 2
      vertex 27.8631 -12.4055 0
      vertex 27.8631 -12.4055 2
    endloop
  endfacet
  facet normal 0.866025 -0.5 0
    outer loop
      vertex 27.8631 -12.4055 0
      vertex 24.675 -17.9275 2
      vertex 24.675 -17.9275 0
    endloop
  endfacet
  facet normal 0.743145 -0.669131 0
    outer loop
      vertex 20.4085 -22.6659 2
      vertex 24.675 -17.9275 0
      vertex 24.675 -17.9275 2
    endloop
  endfacet
  facet normal 0.743145 -0.669131 0
    outer loop
      vertex 24.675 -17.9275 0
      vertex 20.4085 -22.6659 2
      vertex 20.4085 -22.6659 0
    endloop
  endfacet
  facet normal -0.743145 -0.669131 0
    outer loop
      vertex -20.4085 -22.6659 0
      vertex -24.675 -17.9275 2
      vertex -24.675 -17.9275 0
    endloop
  endfacet
  facet normal -0.743145 -0.669131 0
    outer loop
      vertex -24.675 -17.9275 2
      vertex -20.4085 -22.6659 0
      vertex -20.4085 -22.6659 2
    endloop
  endfacet
  facet normal -0.866025 -0.5 0
    outer loop
      vertex -24.675 -17.9275 0
      vertex -27.8631 -12.4055 2
      vertex -27.8631 -12.4055 0
    endloop
  endfacet
  facet normal -0.866025 -0.5 0
    outer loop
      vertex -27.8631 -12.4055 2
      vertex -24.675 -17.9275 0
      vertex -24.675 -17.9275 2
    endloop
  endfacet
  facet normal -0.406737 -0.913545 0
    outer loop
      vertex -15.25 -26.4138 0
      vertex -9.42502 -29.0072 2
      vertex -15.25 -26.4138 2
    endloop
  endfacet
  facet normal -0.406737 -0.913545 -0
    outer loop
      vertex -9.42502 -29.0072 2
      vertex -15.25 -26.4138 0
      vertex -9.42502 -29.0072 0
    endloop
  endfacet
  facet normal 0 -1 0
    outer loop
      vertex -3.18812 -30.3329 0
      vertex 3.18812 -30.3329 2
      vertex -3.18812 -30.3329 2
    endloop
  endfacet
  facet normal 0 -1 -0
    outer loop
      vertex 3.18812 -30.3329 2
      vertex -3.18812 -30.3329 0
      vertex 3.18812 -30.3329 0
    endloop
  endfacet
  facet normal 0.406737 -0.913545 0
    outer loop
      vertex 9.42502 -29.0072 0
      vertex 15.25 -26.4138 2
      vertex 9.42502 -29.0072 2
    endloop
  endfacet
  facet normal 0.406737 -0.913545 0
    outer loop
      vertex 15.25 -26.4138 2
      vertex 9.42502 -29.0072 0
      vertex 15.25 -26.4138 0
    endloop
  endfacet
  facet normal -0.587785 -0.809017 0
    outer loop
      vertex -20.4085 -22.6659 0
      vertex -15.25 -26.4138 2
      vertex -20.4085 -22.6659 2
    endloop
  endfacet
  facet normal -0.587785 -0.809017 -0
    outer loop
      vertex -15.25 -26.4138 2
      vertex -20.4085 -22.6659 0
      vertex -15.25 -26.4138 0
    endloop
  endfacet
  facet normal -0.866025 -0.5 0
    outer loop
      vertex 13.2464 5.89768 2
      vertex 11.7307 8.52289 10
      vertex 11.7307 8.52289 2
    endloop
  endfacet
  facet normal -0.866025 -0.5 0
    outer loop
      vertex 11.7307 8.52289 10
      vertex 13.2464 5.89768 2
      vertex 13.2464 5.89768 10
    endloop
  endfacet
  facet normal -0.743145 -0.669131 0
    outer loop
      vertex 11.7307 8.52289 2
      vertex 9.70239 10.7756 10
      vertex 9.70239 10.7756 2
    endloop
  endfacet
  facet normal -0.743145 -0.669131 0
    outer loop
      vertex 9.70239 10.7756 10
      vertex 11.7307 8.52289 2
      vertex 11.7307 8.52289 10
    endloop
  endfacet
  facet normal -0.207911 -0.978148 0
    outer loop
      vertex 1.51566 14.4206 2
      vertex 4.48075 13.7903 10
      vertex 1.51566 14.4206 10
    endloop
  endfacet
  facet normal -0.207911 -0.978148 -0
    outer loop
      vertex 4.48075 13.7903 10
      vertex 1.51566 14.4206 2
      vertex 4.48075 13.7903 2
    endloop
  endfacet
  facet normal -0.406737 -0.913545 0
    outer loop
      vertex 4.48075 13.7903 2
      vertex 7.25 12.5574 10
      vertex 4.48075 13.7903 10
    endloop
  endfacet
  facet normal -0.406737 -0.913545 -0
    outer loop
      vertex 7.25 12.5574 10
      vertex 4.48075 13.7903 2
      vertex 7.25 12.5574 2
    endloop
  endfacet
  facet normal 0.207911 -0.978148 0
    outer loop
      vertex -4.48075 13.7903 2
      vertex -1.51566 14.4206 10
      vertex -4.48075 13.7903 10
    endloop
  endfacet
  facet normal 0.207911 -0.978148 0
    outer loop
      vertex -1.51566 14.4206 10
      vertex -4.48075 13.7903 2
      vertex -1.51566 14.4206 2
    endloop
  endfacet
  facet normal 0.866025 -0.5 0
    outer loop
      vertex -13.2464 5.89768 10
      vertex -11.7307 8.52289 2
      vertex -11.7307 8.52289 10
    endloop
  endfacet
  facet normal 0.866025 -0.5 0
    outer loop
      vertex -11.7307 8.52289 2
      vertex -13.2464 5.89768 10
      vertex -13.2464 5.89768 2
    endloop
  endfacet
  facet normal -0.994522 0.104529 0
    outer loop
      vertex 14.1831 -3.01472 2
      vertex 14.5 0 10
      vertex 14.5 0 2
    endloop
  endfacet
  facet normal -0.994522 0.104529 0
    outer loop
      vertex 14.5 0 10
      vertex 14.1831 -3.01472 2
      vertex 14.1831 -3.01472 10
    endloop
  endfacet
  facet normal -0.951057 -0.309017 0
    outer loop
      vertex 14.1831 3.01472 2
      vertex 13.2464 5.89768 10
      vertex 13.2464 5.89768 2
    endloop
  endfacet
  facet normal -0.951057 -0.309017 0
    outer loop
      vertex 13.2464 5.89768 10
      vertex 14.1831 3.01472 2
      vertex 14.1831 3.01472 10
    endloop
  endfacet
  facet normal -0.587785 -0.809017 0
    outer loop
      vertex 7.25 12.5574 2
      vertex 9.70239 10.7756 10
      vertex 7.25 12.5574 10
    endloop
  endfacet
  facet normal -0.587785 -0.809017 -0
    outer loop
      vertex 9.70239 10.7756 10
      vertex 7.25 12.5574 2
      vertex 9.70239 10.7756 2
    endloop
  endfacet
  facet normal 0 -1 0
    outer loop
      vertex -1.51566 14.4206 2
      vertex 1.51566 14.4206 10
      vertex -1.51566 14.4206 10
    endloop
  endfacet
  facet normal 0 -1 -0
    outer loop
      vertex 1.51566 14.4206 10
      vertex -1.51566 14.4206 2
      vertex 1.51566 14.4206 2
    endloop
  endfacet
  facet normal 0.994522 -0.104529 0
    outer loop
      vertex -14.5 0 10
      vertex -14.1831 3.01472 2
      vertex -14.1831 3.01472 10
    endloop
  endfacet
  facet normal 0.994522 -0.104529 0
    outer loop
      vertex -14.1831 3.01472 2
      vertex -14.5 0 10
      vertex -14.5 0 2
    endloop
  endfacet
  facet normal 0.743145 -0.669131 0
    outer loop
      vertex -11.7307 8.52289 10
      vertex -9.70239 10.7756 2
      vertex -9.70239 10.7756 10
    endloop
  endfacet
  facet normal 0.743145 -0.669131 0
    outer loop
      vertex -9.70239 10.7756 2
      vertex -11.7307 8.52289 10
      vertex -11.7307 8.52289 2
    endloop
  endfacet
  facet normal 0.406737 -0.913545 0
    outer loop
      vertex -7.25 12.5574 2
      vertex -4.48075 13.7903 10
      vertex -7.25 12.5574 10
    endloop
  endfacet
  facet normal 0.406737 -0.913545 0
    outer loop
      vertex -4.48075 13.7903 10
      vertex -7.25 12.5574 2
      vertex -4.48075 13.7903 2
    endloop
  endfacet
  facet normal 0.587785 -0.809017 0
    outer loop
      vertex -9.70239 10.7756 2
      vertex -7.25 12.5574 10
      vertex -9.70239 10.7756 10
    endloop
  endfacet
  facet normal 0.587785 -0.809017 0
    outer loop
      vertex -7.25 12.5574 10
      vertex -9.70239 10.7756 2
      vertex -7.25 12.5574 2
    endloop
  endfacet
  facet normal -0.994522 -0.104529 0
    outer loop
      vertex 14.5 0 2
      vertex 14.1831 3.01472 10
      vertex 14.1831 3.01472 2
    endloop
  endfacet
  facet normal -0.994522 -0.104529 0
    outer loop
      vertex 14.1831 3.01472 10
      vertex 14.5 0 2
      vertex 14.5 0 10
    endloop
  endfacet
  facet normal -0.951057 0.309017 0
    outer loop
      vertex 13.2464 -5.89768 2
      vertex 14.1831 -3.01472 10
      vertex 14.1831 -3.01472 2
    endloop
  endfacet
  facet normal -0.951057 0.309017 0
    outer loop
      vertex 14.1831 -3.01472 10
      vertex 13.2464 -5.89768 2
      vertex 13.2464 -5.89768 10
    endloop
  endfacet
  facet normal 0.587785 0.809017 -0
    outer loop
      vertex -7.25 -12.5574 2
      vertex -9.70239 -10.7756 10
      vertex -7.25 -12.5574 10
    endloop
  endfacet
  facet normal 0.587785 0.809017 0
    outer loop
      vertex -9.70239 -10.7756 10
      vertex -7.25 -12.5574 2
      vertex -9.70239 -10.7756 2
    endloop
  endfacet
  facet normal 0.866025 0.5 0
    outer loop
      vertex -11.7307 -8.52289 10
      vertex -13.2464 -5.89768 2
      vertex -13.2464 -5.89768 10
    endloop
  endfacet
  facet normal 0.866025 0.5 0
    outer loop
      vertex -13.2464 -5.89768 2
      vertex -11.7307 -8.52289 10
      vertex -11.7307 -8.52289 2
    endloop
  endfacet
  facet normal -0.587785 0.809017 0
    outer loop
      vertex 9.70239 -10.7756 2
      vertex 7.25 -12.5574 10
      vertex 9.70239 -10.7756 10
    endloop
  endfacet
  facet normal -0.587785 0.809017 0
    outer loop
      vertex 7.25 -12.5574 10
      vertex 9.70239 -10.7756 2
      vertex 7.25 -12.5574 2
    endloop
  endfacet
  facet normal 0.951057 -0.309017 0
    outer loop
      vertex -14.1831 3.01472 10
      vertex -13.2464 5.89768 2
      vertex -13.2464 5.89768 10
    endloop
  endfacet
  facet normal 0.951057 -0.309017 0
    outer loop
      vertex -13.2464 5.89768 2
      vertex -14.1831 3.01472 10
      vertex -14.1831 3.01472 2
    endloop
  endfacet
  facet normal -0.866025 0.5 0
    outer loop
      vertex 11.7307 -8.52289 2
      vertex 13.2464 -5.89768 10
      vertex 13.2464 -5.89768 2
    endloop
  endfacet
  facet normal -0.866025 0.5 0
    outer loop
      vertex 13.2464 -5.89768 10
      vertex 11.7307 -8.52289 2
      vertex 11.7307 -8.52289 10
    endloop
  endfacet
  facet normal 0.994522 0.104529 0
    outer loop
      vertex -14.1831 -3.01472 10
      vertex -14.5 0 2
      vertex -14.5 0 10
    endloop
  endfacet
  facet normal 0.994522 0.104529 0
    outer loop
      vertex -14.5 0 2
      vertex -14.1831 -3.01472 10
      vertex -14.1831 -3.01472 2
    endloop
  endfacet
  facet normal 0.743145 0.669131 0
    outer loop
      vertex -9.70239 -10.7756 10
      vertex -11.7307 -8.52289 2
      vertex -11.7307 -8.52289 10
    endloop
  endfacet
  facet normal 0.743145 0.669131 0
    outer loop
      vertex -11.7307 -8.52289 2
      vertex -9.70239 -10.7756 10
      vertex -9.70239 -10.7756 2
    endloop
  endfacet
  facet normal -0.207911 0.978148 0
    outer loop
      vertex 4.48075 -13.7903 2
      vertex 1.51566 -14.4206 10
      vertex 4.48075 -13.7903 10
    endloop
  endfacet
  facet normal -0.207911 0.978148 0
    outer loop
      vertex 1.51566 -14.4206 10
      vertex 4.48075 -13.7903 2
      vertex 1.51566 -14.4206 2
    endloop
  endfacet
  facet normal -0.406737 0.913545 0
    outer loop
      vertex 7.25 -12.5574 2
      vertex 4.48075 -13.7903 10
      vertex 7.25 -12.5574 10
    endloop
  endfacet
  facet normal -0.406737 0.913545 0
    outer loop
      vertex 4.48075 -13.7903 10
      vertex 7.25 -12.5574 2
      vertex 4.48075 -13.7903 2
    endloop
  endfacet
  facet normal 0 1 -0
    outer loop
      vertex 1.51566 -14.4206 2
      vertex -1.51566 -14.4206 10
      vertex 1.51566 -14.4206 10
    endloop
  endfacet
  facet normal 0 1 0
    outer loop
      vertex -1.51566 -14.4206 10
      vertex 1.51566 -14.4206 2
      vertex -1.51566 -14.4206 2
    endloop
  endfacet
  facet normal 0.207911 0.978148 -0
    outer loop
      vertex -1.51566 -14.4206 2
      vertex -4.48075 -13.7903 10
      vertex -1.51566 -14.4206 10
    endloop
  endfacet
  facet normal 0.207911 0.978148 0
    outer loop
      vertex -4.48075 -13.7903 10
      vertex -1.51566 -14.4206 2
      vertex -4.48075 -13.7903 2
    endloop
  endfacet
  facet normal 0.951057 0.309017 0
    outer loop
      vertex -13.2464 -5.89768 10
      vertex -14.1831 -3.01472 2
      vertex -14.1831 -3.01472 10
    endloop
  endfacet
  facet normal 0.951057 0.309017 0
    outer loop
      vertex -14.1831 -3.01472 2
      vertex -13.2464 -5.89768 10
      vertex -13.2464 -5.89768 2
    endloop
  endfacet
  facet normal -0.743145 0.669131 0
    outer loop
      vertex 9.70239 -10.7756 2
      vertex 11.7307 -8.52289 10
      vertex 11.7307 -8.52289 2
    endloop
  endfacet
  facet normal -0.743145 0.669131 0
    outer loop
      vertex 11.7307 -8.52289 10
      vertex 9.70239 -10.7756 2
      vertex 9.70239 -10.7756 10
    endloop
  endfacet
  facet normal 0.406737 0.913545 -0
    outer loop
      vertex -4.48075 -13.7903 2
      vertex -7.25 -12.5574 10
      vertex -4.48075 -13.7903 10
    endloop
  endfacet
  facet normal 0.406737 0.913545 0
    outer loop
      vertex -7.25 -12.5574 10
      vertex -4.48075 -13.7903 2
      vertex -7.25 -12.5574 2
    endloop
  endfacet
  facet normal -0.866025 -0.5 0
    outer loop
      vertex 16.9006 7.52463 0
      vertex 14.9668 10.874 2
      vertex 14.9668 10.874 0
    endloop
  endfacet
  facet normal -0.866025 -0.5 0
    outer loop
      vertex 14.9668 10.874 2
      vertex 16.9006 7.52463 0
      vertex 16.9006 7.52463 2
    endloop
  endfacet
  facet normal -0.743145 -0.669131 0
    outer loop
      vertex 14.9668 10.874 0
      vertex 12.3789 13.7482 2
      vertex 12.3789 13.7482 0
    endloop
  endfacet
  facet normal -0.743145 -0.669131 0
    outer loop
      vertex 12.3789 13.7482 2
      vertex 14.9668 10.874 0
      vertex 14.9668 10.874 2
    endloop
  endfacet
  facet normal 0.207912 -0.978148 0
    outer loop
      vertex -5.71681 17.5945 0
      vertex -1.93378 18.3987 2
      vertex -5.71681 17.5945 2
    endloop
  endfacet
  facet normal 0.207912 -0.978148 0
    outer loop
      vertex -1.93378 18.3987 2
      vertex -5.71681 17.5945 0
      vertex -1.93378 18.3987 0
    endloop
  endfacet
  facet normal 0.866025 -0.5 0
    outer loop
      vertex -16.9006 7.52463 2
      vertex -14.9668 10.874 0
      vertex -14.9668 10.874 2
    endloop
  endfacet
  facet normal 0.866025 -0.5 0
    outer loop
      vertex -14.9668 10.874 0
      vertex -16.9006 7.52463 2
      vertex -16.9006 7.52463 0
    endloop
  endfacet
  facet normal -0.994522 0.104529 0
    outer loop
      vertex 18.0957 -3.84637 0
      vertex 18.5 0 2
      vertex 18.5 0 0
    endloop
  endfacet
  facet normal -0.994522 0.104529 0
    outer loop
      vertex 18.5 0 2
      vertex 18.0957 -3.84637 0
      vertex 18.0957 -3.84637 2
    endloop
  endfacet
  facet normal -0.951057 -0.309017 0
    outer loop
      vertex 18.0957 3.84637 0
      vertex 16.9006 7.52463 2
      vertex 16.9006 7.52463 0
    endloop
  endfacet
  facet normal -0.951057 -0.309017 0
    outer loop
      vertex 16.9006 7.52463 2
      vertex 18.0957 3.84637 0
      vertex 18.0957 3.84637 2
    endloop
  endfacet
  facet normal -0.587785 -0.809017 0
    outer loop
      vertex 9.25 16.0215 0
      vertex 12.3789 13.7482 2
      vertex 9.25 16.0215 2
    endloop
  endfacet
  facet normal -0.587785 -0.809017 -0
    outer loop
      vertex 12.3789 13.7482 2
      vertex 9.25 16.0215 0
      vertex 12.3789 13.7482 0
    endloop
  endfacet
  facet normal 0 -1 0
    outer loop
      vertex -1.93378 18.3987 0
      vertex 1.93378 18.3987 2
      vertex -1.93378 18.3987 2
    endloop
  endfacet
  facet normal 0 -1 -0
    outer loop
      vertex 1.93378 18.3987 2
      vertex -1.93378 18.3987 0
      vertex 1.93378 18.3987 0
    endloop
  endfacet
  facet normal -0.406737 -0.913545 0
    outer loop
      vertex 5.71681 17.5945 0
      vertex 9.25 16.0215 2
      vertex 5.71681 17.5945 2
    endloop
  endfacet
  facet normal -0.406737 -0.913545 -0
    outer loop
      vertex 9.25 16.0215 2
      vertex 5.71681 17.5945 0
      vertex 9.25 16.0215 0
    endloop
  endfacet
  facet normal 0.994522 -0.104529 0
    outer loop
      vertex -18.5 0 2
      vertex -18.0957 3.84637 0
      vertex -18.0957 3.84637 2
    endloop
  endfacet
  facet normal 0.994522 -0.104529 0
    outer loop
      vertex -18.0957 3.84637 0
      vertex -18.5 0 2
      vertex -18.5 0 0
    endloop
  endfacet
  facet normal 0.743145 -0.669131 0
    outer loop
      vertex -14.9668 10.874 2
      vertex -12.3789 13.7482 0
      vertex -12.3789 13.7482 2
    endloop
  endfacet
  facet normal 0.743145 -0.669131 0
    outer loop
      vertex -12.3789 13.7482 0
      vertex -14.9668 10.874 2
      vertex -14.9668 10.874 0
    endloop
  endfacet
  facet normal 0.406737 -0.913545 0
    outer loop
      vertex -9.25 16.0215 0
      vertex -5.71681 17.5945 2
      vertex -9.25 16.0215 2
    endloop
  endfacet
  facet normal 0.406737 -0.913545 0
    outer loop
      vertex -5.71681 17.5945 2
      vertex -9.25 16.0215 0
      vertex -5.71681 17.5945 0
    endloop
  endfacet
  facet normal 0.587785 -0.809017 0
    outer loop
      vertex -12.3789 13.7482 0
      vertex -9.25 16.0215 2
      vertex -12.3789 13.7482 2
    endloop
  endfacet
  facet normal 0.587785 -0.809017 0
    outer loop
      vertex -9.25 16.0215 2
      vertex -12.3789 13.7482 0
      vertex -9.25 16.0215 0
    endloop
  endfacet
  facet normal -0.994522 -0.104529 0
    outer loop
      vertex 18.5 0 0
      vertex 18.0957 3.84637 2
      vertex 18.0957 3.84637 0
    endloop
  endfacet
  facet normal -0.994522 -0.104529 0
    outer loop
      vertex 18.0957 3.84637 2
      vertex 18.5 0 0
      vertex 18.5 0 2
    endloop
  endfacet
  facet normal -0.951057 0.309017 0
    outer loop
      vertex 16.9006 -7.52463 0
      vertex 18.0957 -3.84637 2
      vertex 18.0957 -3.84637 0
    endloop
  endfacet
  facet normal -0.951057 0.309017 0
    outer loop
      vertex 18.0957 -3.84637 2
      vertex 16.9006 -7.52463 0
      vertex 16.9006 -7.52463 2
    endloop
  endfacet
  facet normal 0.587785 0.809017 -0
    outer loop
      vertex -9.25 -16.0215 0
      vertex -12.3789 -13.7482 2
      vertex -9.25 -16.0215 2
    endloop
  endfacet
  facet normal 0.587785 0.809017 0
    outer loop
      vertex -12.3789 -13.7482 2
      vertex -9.25 -16.0215 0
      vertex -12.3789 -13.7482 0
    endloop
  endfacet
  facet normal 0.866025 0.5 0
    outer loop
      vertex -14.9668 -10.874 2
      vertex -16.9006 -7.52463 0
      vertex -16.9006 -7.52463 2
    endloop
  endfacet
  facet normal 0.866025 0.5 0
    outer loop
      vertex -16.9006 -7.52463 0
      vertex -14.9668 -10.874 2
      vertex -14.9668 -10.874 0
    endloop
  endfacet
  facet normal -0.587785 0.809017 0
    outer loop
      vertex 12.3789 -13.7482 0
      vertex 9.25 -16.0215 2
      vertex 12.3789 -13.7482 2
    endloop
  endfacet
  facet normal -0.587785 0.809017 0
    outer loop
      vertex 9.25 -16.0215 2
      vertex 12.3789 -13.7482 0
      vertex 9.25 -16.0215 0
    endloop
  endfacet
  facet normal -0.207912 -0.978148 0
    outer loop
      vertex 1.93378 18.3987 0
      vertex 5.71681 17.5945 2
      vertex 1.93378 18.3987 2
    endloop
  endfacet
  facet normal -0.207912 -0.978148 -0
    outer loop
      vertex 5.71681 17.5945 2
      vertex 1.93378 18.3987 0
      vertex 5.71681 17.5945 0
    endloop
  endfacet
  facet normal 0 0 -1
    outer loop
      vertex 14.5 0 2
      vertex 18.5 0 2
      vertex 18.0957 -3.84637 2
    endloop
  endfacet
  facet normal 0 0 -1
    outer loop
      vertex 14.1831 -3.01472 2
      vertex 18.0957 -3.84637 2
      vertex 16.9006 -7.52463 2
    endloop
  endfacet
  facet normal 0 0 -1
    outer loop
      vertex 18.5 0 2
      vertex 14.5 0 2
      vertex 18.0957 3.84637 2
    endloop
  endfacet
  facet normal 0 0 -1
    outer loop
      vertex 13.2464 -5.89768 2
      vertex 16.9006 -7.52463 2
      vertex 14.9668 -10.874 2
    endloop
  endfacet
  facet normal 0 0 -1
    outer loop
      vertex 14.1831 3.01472 2
      vertex 18.0957 3.84637 2
      vertex 14.5 0 2
    endloop
  endfacet
  facet normal -0 0 -1
    outer loop
      vertex 18.0957 3.84637 2
      vertex 14.1831 3.01472 2
      vertex 16.9006 7.52463 2
    endloop
  endfacet
  facet normal 0 0 -1
    outer loop
      vertex 18.0957 -3.84637 2
      vertex 14.1831 -3.01472 2
      vertex 14.5 0 2
    endloop
  endfacet
  facet normal 0 0 -1
    outer loop
      vertex 16.9006 -7.52463 2
      vertex 13.2464 -5.89768 2
      vertex 14.1831 -3.01472 2
    endloop
  endfacet
  facet normal 0 0 -1
    outer loop
      vertex 11.7307 -8.52289 2
      vertex 14.9668 -10.874 2
      vertex 12.3789 -13.7482 2
    endloop
  endfacet
  facet normal 0 0 -1
    outer loop
      vertex 14.9668 -10.874 2
      vertex 11.7307 -8.52289 2
      vertex 13.2464 -5.89768 2
    endloop
  endfacet
  facet normal 0 0 -1
    outer loop
      vertex 12.3789 -13.7482 2
      vertex 9.70239 -10.7756 2
      vertex 11.7307 -8.52289 2
    endloop
  endfacet
  facet normal 0 0 -1
    outer loop
      vertex 9.25 -16.0215 2
      vertex 9.70239 -10.7756 2
      vertex 12.3789 -13.7482 2
    endloop
  endfacet
  facet normal 0 0 -1
    outer loop
      vertex 9.25 -16.0215 2
      vertex 7.25 -12.5574 2
      vertex 9.70239 -10.7756 2
    endloop
  endfacet
  facet normal 0 0 -1
    outer loop
      vertex 5.71681 -17.5945 2
      vertex 7.25 -12.5574 2
      vertex 9.25 -16.0215 2
    endloop
  endfacet
  facet normal 0 0 -1
    outer loop
      vertex 5.71681 -17.5945 2
      vertex 4.48075 -13.7903 2
      vertex 7.25 -12.5574 2
    endloop
  endfacet
  facet normal 0 0 -1
    outer loop
      vertex 1.93378 -18.3987 2
      vertex 4.48075 -13.7903 2
      vertex 5.71681 -17.5945 2
    endloop
  endfacet
  facet normal 0 0 -1
    outer loop
      vertex 1.93378 -18.3987 2
      vertex 1.51566 -14.4206 2
      vertex 4.48075 -13.7903 2
    endloop
  endfacet
  facet normal 0 0 -1
    outer loop
      vertex 1.93378 -18.3987 2
      vertex -1.51566 -14.4206 2
      vertex 1.51566 -14.4206 2
    endloop
  endfacet
  facet normal 0 0 -1
    outer loop
      vertex -1.93378 -18.3987 2
      vertex -1.51566 -14.4206 2
      vertex 1.93378 -18.3987 2
    endloop
  endfacet
  facet normal 0 0 -1
    outer loop
      vertex -1.93378 -18.3987 2
      vertex -4.48075 -13.7903 2
      vertex -1.51566 -14.4206 2
    endloop
  endfacet
  facet normal 0 0 -1
    outer loop
      vertex -5.71681 -17.5945 2
      vertex -4.48075 -13.7903 2
      vertex -1.93378 -18.3987 2
    endloop
  endfacet
  facet normal 0 0 -1
    outer loop
      vertex -5.71681 -17.5945 2
      vertex -7.25 -12.5574 2
      vertex -4.48075 -13.7903 2
    endloop
  endfacet
  facet normal 0 0 -1
    outer loop
      vertex -9.25 -16.0215 2
      vertex -7.25 -12.5574 2
      vertex -5.71681 -17.5945 2
    endloop
  endfacet
  facet normal 0 0 -1
    outer loop
      vertex -9.25 -16.0215 2
      vertex -9.70239 -10.7756 2
      vertex -7.25 -12.5574 2
    endloop
  endfacet
  facet normal 0 0 -1
    outer loop
      vertex -12.3789 -13.7482 2
      vertex -9.70239 -10.7756 2
      vertex -9.25 -16.0215 2
    endloop
  endfacet
  facet normal -0 0 -1
    outer loop
      vertex -9.70239 -10.7756 2
      vertex -12.3789 -13.7482 2
      vertex -11.7307 -8.52289 2
    endloop
  endfacet
  facet normal 0 0 -1
    outer loop
      vertex -14.9668 -10.874 2
      vertex -11.7307 -8.52289 2
      vertex -12.3789 -13.7482 2
    endloop
  endfacet
  facet normal -0 0 -1
    outer loop
      vertex -11.7307 -8.52289 2
      vertex -14.9668 -10.874 2
      vertex -13.2464 -5.89768 2
    endloop
  endfacet
  facet normal -0 0 -1
    outer loop
      vertex -13.2464 -5.89768 2
      vertex -16.9006 -7.52463 2
      vertex -14.1831 -3.01472 2
    endloop
  endfacet
  facet normal 0 0 -1
    outer loop
      vertex -16.9006 -7.52463 2
      vertex -13.2464 -5.89768 2
      vertex -14.9668 -10.874 2
    endloop
  endfacet
  facet normal 0 0 -1
    outer loop
      vertex 13.2464 5.89768 2
      vertex 16.9006 7.52463 2
      vertex 14.1831 3.01472 2
    endloop
  endfacet
  facet normal -0 0 -1
    outer loop
      vertex 16.9006 7.52463 2
      vertex 13.2464 5.89768 2
      vertex 14.9668 10.874 2
    endloop
  endfacet
  facet normal 0 0 -1
    outer loop
      vertex 11.7307 8.52289 2
      vertex 14.9668 10.874 2
      vertex 13.2464 5.89768 2
    endloop
  endfacet
  facet normal -0 0 -1
    outer loop
      vertex 14.9668 10.874 2
      vertex 11.7307 8.52289 2
      vertex 12.3789 13.7482 2
    endloop
  endfacet
  facet normal 0 0 -1
    outer loop
      vertex 9.70239 10.7756 2
      vertex 12.3789 13.7482 2
      vertex 11.7307 8.52289 2
    endloop
  endfacet
  facet normal 0 0 -1
    outer loop
      vertex 9.70239 10.7756 2
      vertex 9.25 16.0215 2
      vertex 12.3789 13.7482 2
    endloop
  endfacet
  facet normal 0 0 -1
    outer loop
      vertex 7.25 12.5574 2
      vertex 9.25 16.0215 2
      vertex 9.70239 10.7756 2
    endloop
  endfacet
  facet normal 0 0 -1
    outer loop
      vertex 7.25 12.5574 2
      vertex 5.71681 17.5945 2
      vertex 9.25 16.0215 2
    endloop
  endfacet
  facet normal 0 0 -1
    outer loop
      vertex 4.48075 13.7903 2
      vertex 5.71681 17.5945 2
      vertex 7.25 12.5574 2
    endloop
  endfacet
  facet normal 0 0 -1
    outer loop
      vertex 4.48075 13.7903 2
      vertex 1.93378 18.3987 2
      vertex 5.71681 17.5945 2
    endloop
  endfacet
  facet normal 0 0 -1
    outer loop
      vertex 1.51566 14.4206 2
      vertex 1.93378 18.3987 2
      vertex 4.48075 13.7903 2
    endloop
  endfacet
  facet normal 0 0 -1
    outer loop
      vertex -1.51566 14.4206 2
      vertex 1.93378 18.3987 2
      vertex 1.51566 14.4206 2
    endloop
  endfacet
  facet normal 0 0 -1
    outer loop
      vertex -1.51566 14.4206 2
      vertex -1.93378 18.3987 2
      vertex 1.93378 18.3987 2
    endloop
  endfacet
  facet normal 0 0 -1
    outer loop
      vertex -4.48075 13.7903 2
      vertex -1.93378 18.3987 2
      vertex -1.51566 14.4206 2
    endloop
  endfacet
  facet normal 0 0 -1
    outer loop
      vertex -4.48075 13.7903 2
      vertex -5.71681 17.5945 2
      vertex -1.93378 18.3987 2
    endloop
  endfacet
  facet normal 0 0 -1
    outer loop
      vertex -7.25 12.5574 2
      vertex -5.71681 17.5945 2
      vertex -4.48075 13.7903 2
    endloop
  endfacet
  facet normal 0 0 -1
    outer loop
      vertex -7.25 12.5574 2
      vertex -9.25 16.0215 2
      vertex -5.71681 17.5945 2
    endloop
  endfacet
  facet normal 0 0 -1
    outer loop
      vertex -9.70239 10.7756 2
      vertex -9.25 16.0215 2
      vertex -7.25 12.5574 2
    endloop
  endfacet
  facet normal 0 0 -1
    outer loop
      vertex -12.3789 13.7482 2
      vertex -9.70239 10.7756 2
      vertex -11.7307 8.52289 2
    endloop
  endfacet
  facet normal 0 0 -1
    outer loop
      vertex -9.70239 10.7756 2
      vertex -12.3789 13.7482 2
      vertex -9.25 16.0215 2
    endloop
  endfacet
  facet normal 0 0 -1
    outer loop
      vertex -14.9668 10.874 2
      vertex -11.7307 8.52289 2
      vertex -13.2464 5.89768 2
    endloop
  endfacet
  facet normal 0 0 -1
    outer loop
      vertex -16.9006 7.52463 2
      vertex -13.2464 5.89768 2
      vertex -14.1831 3.01472 2
    endloop
  endfacet
  facet normal 0 0 -1
    outer loop
      vertex -11.7307 8.52289 2
      vertex -14.9668 10.874 2
      vertex -12.3789 13.7482 2
    endloop
  endfacet
  facet normal 0 0 -1
    outer loop
      vertex -18.0957 3.84637 2
      vertex -14.1831 3.01472 2
      vertex -14.5 0 2
    endloop
  endfacet
  facet normal 0 0 -1
    outer loop
      vertex -18.0957 -3.84637 2
      vertex -14.1831 -3.01472 2
      vertex -16.9006 -7.52463 2
    endloop
  endfacet
  facet normal -0 0 -1
    outer loop
      vertex -14.1831 -3.01472 2
      vertex -18.0957 -3.84637 2
      vertex -14.5 0 2
    endloop
  endfacet
  facet normal 0 0 -1
    outer loop
      vertex -13.2464 5.89768 2
      vertex -16.9006 7.52463 2
      vertex -14.9668 10.874 2
    endloop
  endfacet
  facet normal 0 0 -1
    outer loop
      vertex -18.5 0 2
      vertex -14.5 0 2
      vertex -18.0957 -3.84637 2
    endloop
  endfacet
  facet normal 0 0 -1
    outer loop
      vertex -14.1831 3.01472 2
      vertex -18.0957 3.84637 2
      vertex -16.9006 7.52463 2
    endloop
  endfacet
  facet normal 0 0 -1
    outer loop
      vertex -14.5 0 2
      vertex -18.5 0 2
      vertex -18.0957 3.84637 2
    endloop
  endfacet
  facet normal 0.951057 -0.309017 0
    outer loop
      vertex -18.0957 3.84637 2
      vertex -16.9006 7.52463 0
      vertex -16.9006 7.52463 2
    endloop
  endfacet
  facet normal 0.951057 -0.309017 0
    outer loop
      vertex -16.9006 7.52463 0
      vertex -18.0957 3.84637 2
      vertex -18.0957 3.84637 0
    endloop
  endfacet
  facet normal -0.866025 0.5 0
    outer loop
      vertex 14.9668 -10.874 0
      vertex 16.9006 -7.52463 2
      vertex 16.9006 -7.52463 0
    endloop
  endfacet
  facet normal -0.866025 0.5 0
    outer loop
      vertex 16.9006 -7.52463 2
      vertex 14.9668 -10.874 0
      vertex 14.9668 -10.874 2
    endloop
  endfacet
  facet normal 0.994522 0.104529 0
    outer loop
      vertex -18.0957 -3.84637 2
      vertex -18.5 0 0
      vertex -18.5 0 2
    endloop
  endfacet
  facet normal 0.994522 0.104529 0
    outer loop
      vertex -18.5 0 0
      vertex -18.0957 -3.84637 2
      vertex -18.0957 -3.84637 0
    endloop
  endfacet
  facet normal 0.743145 0.669131 0
    outer loop
      vertex -12.3789 -13.7482 2
      vertex -14.9668 -10.874 0
      vertex -14.9668 -10.874 2
    endloop
  endfacet
  facet normal 0.743145 0.669131 0
    outer loop
      vertex -14.9668 -10.874 0
      vertex -12.3789 -13.7482 2
      vertex -12.3789 -13.7482 0
    endloop
  endfacet
  facet normal -0.207912 0.978148 0
    outer loop
      vertex 5.71681 -17.5945 0
      vertex 1.93378 -18.3987 2
      vertex 5.71681 -17.5945 2
    endloop
  endfacet
  facet normal -0.207912 0.978148 0
    outer loop
      vertex 1.93378 -18.3987 2
      vertex 5.71681 -17.5945 0
      vertex 1.93378 -18.3987 0
    endloop
  endfacet
  facet normal -0.406737 0.913545 0
    outer loop
      vertex 9.25 -16.0215 0
      vertex 5.71681 -17.5945 2
      vertex 9.25 -16.0215 2
    endloop
  endfacet
  facet normal -0.406737 0.913545 0
    outer loop
      vertex 5.71681 -17.5945 2
      vertex 9.25 -16.0215 0
      vertex 5.71681 -17.5945 0
    endloop
  endfacet
  facet normal 0 1 -0
    outer loop
      vertex 1.93378 -18.3987 0
      vertex -1.93378 -18.3987 2
      vertex 1.93378 -18.3987 2
    endloop
  endfacet
  facet normal 0 1 0
    outer loop
      vertex -1.93378 -18.3987 2
      vertex 1.93378 -18.3987 0
      vertex -1.93378 -18.3987 0
    endloop
  endfacet
  facet normal 0.207912 0.978148 -0
    outer loop
      vertex -1.93378 -18.3987 0
      vertex -5.71681 -17.5945 2
      vertex -1.93378 -18.3987 2
    endloop
  endfacet
  facet normal 0.207912 0.978148 0
    outer loop
      vertex -5.71681 -17.5945 2
      vertex -1.93378 -18.3987 0
      vertex -5.71681 -17.5945 0
    endloop
  endfacet
  facet normal 0.951057 0.309017 0
    outer loop
      vertex -16.9006 -7.52463 2
      vertex -18.0957 -3.84637 0
      vertex -18.0957 -3.84637 2
    endloop
  endfacet
  facet normal 0.951057 0.309017 0
    outer loop
      vertex -18.0957 -3.84637 0
      vertex -16.9006 -7.52463 2
      vertex -16.9006 -7.52463 0
    endloop
  endfacet
  facet normal -0.743145 0.669131 0
    outer loop
      vertex 12.3789 -13.7482 0
      vertex 14.9668 -10.874 2
      vertex 14.9668 -10.874 0
    endloop
  endfacet
  facet normal -0.743145 0.669131 0
    outer loop
      vertex 14.9668 -10.874 2
      vertex 12.3789 -13.7482 0
      vertex 12.3789 -13.7482 2
    endloop
  endfacet
  facet normal 0.406737 0.913545 -0
    outer loop
      vertex -5.71681 -17.5945 0
      vertex -9.25 -16.0215 2
      vertex -5.71681 -17.5945 2
    endloop
  endfacet
  facet normal 0.406737 0.913545 0
    outer loop
      vertex -9.25 -16.0215 2
      vertex -5.71681 -17.5945 0
      vertex -9.25 -16.0215 0
    endloop
  endfacet
endsolid OpenSCAD_Model
