solid OpenSCAD_Model
  facet normal -1 0 0
    outer loop
      vertex 0 0 0
      vertex 0 -4 8.88178e-16
      vertex 0 1.46549e-14 66
    endloop
  endfacet
  facet normal -1 0 0
    outer loop
      vertex 0 1.46549e-14 66
      vertex 0 -4 8.88178e-16
      vertex 0 -4 66
    endloop
  endfacet
  facet normal 0 -2.22045e-16 -1
    outer loop
      vertex 0 0 0
      vertex 1.11022e-14 50 -1.11022e-14
      vertex 0 -4 8.88178e-16
    endloop
  endfacet
  facet normal 0 -2.22045e-16 -1
    outer loop
      vertex 0 -4 8.88178e-16
      vertex 1.11022e-14 50 -1.11022e-14
      vertex 4 50 -1.11022e-14
    endloop
  endfacet
  facet normal 0 -2.22045e-16 -1
    outer loop
      vertex 0 -4 8.88178e-16
      vertex 4 50 -1.11022e-14
      vertex 4 0 0
    endloop
  endfacet
  facet normal 0 -2.22045e-16 -1
    outer loop
      vertex 0 -4 8.88178e-16
      vertex 4 0 0
      vertex 44 0 0
    endloop
  endfacet
  facet normal 0 -2.22045e-16 -1
    outer loop
      vertex 0 -4 8.88178e-16
      vertex 44 0 0
      vertex 44 -9.76996e-15 2.16937e-30
    endloop
  endfacet
  facet normal 0 -2.22045e-16 -1
    outer loop
      vertex 44 -9.76996e-15 2.16937e-30
      vertex 44 60 -1.33227e-14
      vertex 48 60 -1.33227e-14
    endloop
  endfacet
  facet normal 0 -2.22045e-16 -1
    outer loop
      vertex 44 -9.76996e-15 2.16937e-30
      vertex 48 60 -1.33227e-14
      vertex 48 52 -1.15463e-14
    endloop
  endfacet
  facet normal 0 -2.22045e-16 -1
    outer loop
      vertex 44 -9.76996e-15 2.16937e-30
      vertex 48 52 -1.15463e-14
      vertex 48 -4 8.88178e-16
    endloop
  endfacet
  facet normal 0 -2.22045e-16 -1
    outer loop
      vertex 44 -9.76996e-15 2.16937e-30
      vertex 48 -4 8.88178e-16
      vertex 44 -4 8.88178e-16
    endloop
  endfacet
  facet normal 0 -2.22045e-16 -1
    outer loop
      vertex 44 -9.76996e-15 2.16937e-30
      vertex 44 -4 8.88178e-16
      vertex 0 -4 8.88178e-16
    endloop
  endfacet
  facet normal -1 2.22045e-16 -4.93038e-32
    outer loop
      vertex 0 0 0
      vertex 0 1.46549e-14 66
      vertex 1.11022e-14 50 -1.11022e-14
    endloop
  endfacet
  facet normal -1 2.22045e-16 -4.93038e-32
    outer loop
      vertex 1.11022e-14 50 -1.11022e-14
      vertex 0 1.46549e-14 66
      vertex 1.11022e-14 50 66
    endloop
  endfacet
  facet normal 0 2.22045e-16 1
    outer loop
      vertex 1.11022e-14 50 66
      vertex 0 1.46549e-14 66
      vertex 0 -4 66
    endloop
  endfacet
  facet normal 0 2.22045e-16 1
    outer loop
      vertex 4 1.46549e-14 66
      vertex 4 50 66
      vertex 1.11022e-14 50 66
    endloop
  endfacet
  facet normal 0 2.22045e-16 1
    outer loop
      vertex 4 1.46549e-14 66
      vertex 1.11022e-14 50 66
      vertex 0 -4 66
    endloop
  endfacet
  facet normal 0 2.22045e-16 1
    outer loop
      vertex 44 1.46549e-14 66
      vertex 4 1.46549e-14 66
      vertex 44 -4 66
    endloop
  endfacet
  facet normal 0 2.22045e-16 1
    outer loop
      vertex 44 60 66
      vertex 47.2505 59.9291 66
      vertex 47.4987 59.9685 66
    endloop
  endfacet
  facet normal 0 2.22045e-16 1
    outer loop
      vertex 44 60 66
      vertex 47.4987 59.9685 66
      vertex 47.7488 59.9921 66
    endloop
  endfacet
  facet normal 0 2.22045e-16 1
    outer loop
      vertex 44 60 66
      vertex 47.7488 59.9921 66
      vertex 48 60 66
    endloop
  endfacet
  facet normal 0 2.22045e-16 1
    outer loop
      vertex 48 -4 66
      vertex 44 4.88498e-15 66
      vertex 44 -4 66
    endloop
  endfacet
  facet normal 0 2.22045e-16 1
    outer loop
      vertex 44 1.46549e-14 66
      vertex 44 -4 66
      vertex 44 4.88498e-15 66
    endloop
  endfacet
  facet normal 0 2.22045e-16 1
    outer loop
      vertex 44 -4 66
      vertex 4 1.46549e-14 66
      vertex 0 -4 66
    endloop
  endfacet
  facet normal 0 2.22045e-16 1
    outer loop
      vertex 44 60 66
      vertex 47.0052 59.8743 66
      vertex 47.2505 59.9291 66
    endloop
  endfacet
  facet normal 0 2.22045e-16 1
    outer loop
      vertex 44 60 66
      vertex 46.7639 59.8042 66
      vertex 47.0052 59.8743 66
    endloop
  endfacet
  facet normal 0 2.22045e-16 1
    outer loop
      vertex 44 60 66
      vertex 46.5275 59.7191 66
      vertex 46.7639 59.8042 66
    endloop
  endfacet
  facet normal 0 2.22045e-16 1
    outer loop
      vertex 44 60 66
      vertex 46.2969 59.6193 66
      vertex 46.5275 59.7191 66
    endloop
  endfacet
  facet normal 0 2.22045e-16 1
    outer loop
      vertex 44 60 66
      vertex 46.073 59.5052 66
      vertex 46.2969 59.6193 66
    endloop
  endfacet
  facet normal 0 2.22045e-16 1
    outer loop
      vertex 44 60 66
      vertex 45.8567 59.3773 66
      vertex 46.073 59.5052 66
    endloop
  endfacet
  facet normal 0 2.22045e-16 1
    outer loop
      vertex 44 60 66
      vertex 45.6489 59.2361 66
      vertex 45.8567 59.3773 66
    endloop
  endfacet
  facet normal 0 2.22045e-16 1
    outer loop
      vertex 44 60 66
      vertex 45.4503 59.0821 66
      vertex 45.6489 59.2361 66
    endloop
  endfacet
  facet normal 0 2.22045e-16 1
    outer loop
      vertex 44 60 66
      vertex 45.2618 58.9159 66
      vertex 45.4503 59.0821 66
    endloop
  endfacet
  facet normal 0 2.22045e-16 1
    outer loop
      vertex 44 60 66
      vertex 45.0841 58.7382 66
      vertex 45.2618 58.9159 66
    endloop
  endfacet
  facet normal 0 2.22045e-16 1
    outer loop
      vertex 44 60 66
      vertex 44.9179 58.5497 66
      vertex 45.0841 58.7382 66
    endloop
  endfacet
  facet normal 0 2.22045e-16 1
    outer loop
      vertex 44 60 66
      vertex 44.7639 58.3511 66
      vertex 44.9179 58.5497 66
    endloop
  endfacet
  facet normal 0 2.22045e-16 1
    outer loop
      vertex 44 60 66
      vertex 44.6227 58.1433 66
      vertex 44.7639 58.3511 66
    endloop
  endfacet
  facet normal 0 2.22045e-16 1
    outer loop
      vertex 44 60 66
      vertex 44.4948 57.927 66
      vertex 44.6227 58.1433 66
    endloop
  endfacet
  facet normal 0 2.22045e-16 1
    outer loop
      vertex 44 60 66
      vertex 44.3807 57.7031 66
      vertex 44.4948 57.927 66
    endloop
  endfacet
  facet normal 0 2.22045e-16 1
    outer loop
      vertex 44 60 66
      vertex 44.2809 57.4725 66
      vertex 44.3807 57.7031 66
    endloop
  endfacet
  facet normal 0 2.22045e-16 1
    outer loop
      vertex 44 60 66
      vertex 44.1958 57.2361 66
      vertex 44.2809 57.4725 66
    endloop
  endfacet
  facet normal 0 2.22045e-16 1
    outer loop
      vertex 44 60 66
      vertex 44.1257 56.9948 66
      vertex 44.1958 57.2361 66
    endloop
  endfacet
  facet normal 0 2.22045e-16 1
    outer loop
      vertex 44 60 66
      vertex 44.0709 56.7495 66
      vertex 44.1257 56.9948 66
    endloop
  endfacet
  facet normal 0 2.22045e-16 1
    outer loop
      vertex 44 60 66
      vertex 44.0315 56.5013 66
      vertex 44.0709 56.7495 66
    endloop
  endfacet
  facet normal 0 2.22045e-16 1
    outer loop
      vertex 44 60 66
      vertex 44.0079 56.2512 66
      vertex 44.0315 56.5013 66
    endloop
  endfacet
  facet normal 0 2.22045e-16 1
    outer loop
      vertex 44 60 66
      vertex 44 56 66
      vertex 44.0079 56.2512 66
    endloop
  endfacet
  facet normal 0 2.22045e-16 1
    outer loop
      vertex 47.7488 52.0079 66
      vertex 48 -4 66
      vertex 48 52 66
    endloop
  endfacet
  facet normal 0 2.22045e-16 1
    outer loop
      vertex 47.4987 52.0315 66
      vertex 48 -4 66
      vertex 47.7488 52.0079 66
    endloop
  endfacet
  facet normal 0 2.22045e-16 1
    outer loop
      vertex 47.2505 52.0709 66
      vertex 48 -4 66
      vertex 47.4987 52.0315 66
    endloop
  endfacet
  facet normal 0 2.22045e-16 1
    outer loop
      vertex 47.0052 52.1257 66
      vertex 48 -4 66
      vertex 47.2505 52.0709 66
    endloop
  endfacet
  facet normal 0 2.22045e-16 1
    outer loop
      vertex 46.7639 52.1958 66
      vertex 48 -4 66
      vertex 47.0052 52.1257 66
    endloop
  endfacet
  facet normal 0 2.22045e-16 1
    outer loop
      vertex 46.5275 52.2809 66
      vertex 48 -4 66
      vertex 46.7639 52.1958 66
    endloop
  endfacet
  facet normal 0 2.22045e-16 1
    outer loop
      vertex 46.2969 52.3807 66
      vertex 48 -4 66
      vertex 46.5275 52.2809 66
    endloop
  endfacet
  facet normal 0 2.22045e-16 1
    outer loop
      vertex 46.073 52.4948 66
      vertex 48 -4 66
      vertex 46.2969 52.3807 66
    endloop
  endfacet
  facet normal 0 2.22045e-16 1
    outer loop
      vertex 45.8567 52.6227 66
      vertex 48 -4 66
      vertex 46.073 52.4948 66
    endloop
  endfacet
  facet normal 0 2.22045e-16 1
    outer loop
      vertex 45.6489 52.7639 66
      vertex 48 -4 66
      vertex 45.8567 52.6227 66
    endloop
  endfacet
  facet normal 0 2.22045e-16 1
    outer loop
      vertex 45.4503 52.9179 66
      vertex 48 -4 66
      vertex 45.6489 52.7639 66
    endloop
  endfacet
  facet normal 0 2.22045e-16 1
    outer loop
      vertex 45.2618 53.0841 66
      vertex 48 -4 66
      vertex 45.4503 52.9179 66
    endloop
  endfacet
  facet normal 0 2.22045e-16 1
    outer loop
      vertex 45.0841 53.2618 66
      vertex 48 -4 66
      vertex 45.2618 53.0841 66
    endloop
  endfacet
  facet normal 0 2.22045e-16 1
    outer loop
      vertex 44.9179 53.4503 66
      vertex 48 -4 66
      vertex 45.0841 53.2618 66
    endloop
  endfacet
  facet normal 0 2.22045e-16 1
    outer loop
      vertex 44.7639 53.6489 66
      vertex 48 -4 66
      vertex 44.9179 53.4503 66
    endloop
  endfacet
  facet normal 0 2.22045e-16 1
    outer loop
      vertex 44.6227 53.8567 66
      vertex 48 -4 66
      vertex 44.7639 53.6489 66
    endloop
  endfacet
  facet normal 0 2.22045e-16 1
    outer loop
      vertex 44.4948 54.073 66
      vertex 48 -4 66
      vertex 44.6227 53.8567 66
    endloop
  endfacet
  facet normal 0 2.22045e-16 1
    outer loop
      vertex 44.3807 54.2969 66
      vertex 48 -4 66
      vertex 44.4948 54.073 66
    endloop
  endfacet
  facet normal 0 2.22045e-16 1
    outer loop
      vertex 44.2809 54.5275 66
      vertex 48 -4 66
      vertex 44.3807 54.2969 66
    endloop
  endfacet
  facet normal 0 2.22045e-16 1
    outer loop
      vertex 44.1958 54.7639 66
      vertex 48 -4 66
      vertex 44.2809 54.5275 66
    endloop
  endfacet
  facet normal 0 2.22045e-16 1
    outer loop
      vertex 44.1257 55.0052 66
      vertex 48 -4 66
      vertex 44.1958 54.7639 66
    endloop
  endfacet
  facet normal 0 2.22045e-16 1
    outer loop
      vertex 44.0709 55.2505 66
      vertex 48 -4 66
      vertex 44.1257 55.0052 66
    endloop
  endfacet
  facet normal 0 2.22045e-16 1
    outer loop
      vertex 44.0315 55.4987 66
      vertex 48 -4 66
      vertex 44.0709 55.2505 66
    endloop
  endfacet
  facet normal 0 2.22045e-16 1
    outer loop
      vertex 44.0079 55.7488 66
      vertex 48 -4 66
      vertex 44.0315 55.4987 66
    endloop
  endfacet
  facet normal 0 2.22045e-16 1
    outer loop
      vertex 44.0079 55.7488 66
      vertex 44 4.88498e-15 66
      vertex 48 -4 66
    endloop
  endfacet
  facet normal 0 2.22045e-16 1
    outer loop
      vertex 44 56 66
      vertex 44 4.88498e-15 66
      vertex 44.0079 55.7488 66
    endloop
  endfacet
  facet normal 0 2.22045e-16 1
    outer loop
      vertex 44 60 66
      vertex 44 4.88498e-15 66
      vertex 44 56 66
    endloop
  endfacet
  facet normal 0 -1 2.22045e-16
    outer loop
      vertex 0 -4 66
      vertex 0 -4 8.88178e-16
      vertex 44 -4 8.88178e-16
    endloop
  endfacet
  facet normal 0 -1 2.22045e-16
    outer loop
      vertex 44 -4 66
      vertex 0 -4 66
      vertex 44 -4 8.88178e-16
    endloop
  endfacet
  facet normal -2.22045e-16 -1 2.22045e-16
    outer loop
      vertex 44 -4 66
      vertex 44 -4 8.88178e-16
      vertex 48 -4 8.88178e-16
    endloop
  endfacet
  facet normal -2.22045e-16 -1 2.22045e-16
    outer loop
      vertex 48 -4 66
      vertex 44 -4 66
      vertex 48 -4 8.88178e-16
    endloop
  endfacet
  facet normal 1 -2.22045e-16 4.93038e-32
    outer loop
      vertex 48 -4 66
      vertex 48 -4 8.88178e-16
      vertex 48 52 -1.15463e-14
    endloop
  endfacet
  facet normal 1 -2.22045e-16 4.93038e-32
    outer loop
      vertex 48 52 66
      vertex 48 -4 66
      vertex 48 52 -1.15463e-14
    endloop
  endfacet
  facet normal 0.0314104 -0.999507 2.14961e-16
    outer loop
      vertex 48 52 66
      vertex 48 52 -1.15463e-14
      vertex 48.2512 52.0079 -1.16038e-14
    endloop
  endfacet
  facet normal 0.0314104 -0.999507 2.14961e-16
    outer loop
      vertex 48.2512 52.0079 66
      vertex 48 52 66
      vertex 48.2512 52.0079 -1.16038e-14
    endloop
  endfacet
  facet normal -2.22045e-16 -2.22045e-16 -1
    outer loop
      vertex 48 52 -1.15463e-14
      vertex 48 60 -1.33227e-14
      vertex 48.2512 52.0079 -1.16038e-14
    endloop
  endfacet
  facet normal -2.22045e-16 -2.22045e-16 -1
    outer loop
      vertex 48.2512 52.0079 -1.16038e-14
      vertex 48 60 -1.33227e-14
      vertex 48.2512 59.9921 -1.33767e-14
    endloop
  endfacet
  facet normal -2.22045e-16 -2.22045e-16 -1
    outer loop
      vertex 48.2512 52.0079 -1.16038e-14
      vertex 48.2512 59.9921 -1.33767e-14
      vertex 48.5013 59.9685 -1.3427e-14
    endloop
  endfacet
  facet normal -2.22045e-16 -2.22045e-16 -1
    outer loop
      vertex 48.2512 52.0079 -1.16038e-14
      vertex 48.5013 59.9685 -1.3427e-14
      vertex 48.7495 59.9291 -1.34734e-14
    endloop
  endfacet
  facet normal -2.22045e-16 -2.22045e-16 -1
    outer loop
      vertex 48.2512 52.0079 -1.16038e-14
      vertex 48.7495 59.9291 -1.34734e-14
      vertex 48.9948 59.8743 -1.35157e-14
    endloop
  endfacet
  facet normal -2.22045e-16 -2.22045e-16 -1
    outer loop
      vertex 48.2512 52.0079 -1.16038e-14
      vertex 48.9948 59.8743 -1.35157e-14
      vertex 49.2361 59.8042 -1.35537e-14
    endloop
  endfacet
  facet normal -2.22045e-16 -2.22045e-16 -1
    outer loop
      vertex 48.2512 52.0079 -1.16038e-14
      vertex 49.2361 59.8042 -1.35537e-14
      vertex 49.4725 59.7191 -1.35873e-14
    endloop
  endfacet
  facet normal -2.22045e-16 -2.22045e-16 -1
    outer loop
      vertex 48.2512 52.0079 -1.16038e-14
      vertex 49.4725 59.7191 -1.35873e-14
      vertex 49.7031 59.6193 -1.36163e-14
    endloop
  endfacet
  facet normal -2.22045e-16 -2.22045e-16 -1
    outer loop
      vertex 48.2512 52.0079 -1.16038e-14
      vertex 49.7031 59.6193 -1.36163e-14
      vertex 49.927 59.5052 -1.36407e-14
    endloop
  endfacet
  facet normal -2.22045e-16 -2.22045e-16 -1
    outer loop
      vertex 48.2512 52.0079 -1.16038e-14
      vertex 49.927 59.5052 -1.36407e-14
      vertex 50.1433 59.3773 -1.36603e-14
    endloop
  endfacet
  facet normal -2.22045e-16 -2.22045e-16 -1
    outer loop
      vertex 48.2512 52.0079 -1.16038e-14
      vertex 50.1433 59.3773 -1.36603e-14
      vertex 50.3511 59.2361 -1.36751e-14
    endloop
  endfacet
  facet normal -2.22045e-16 -2.22045e-16 -1
    outer loop
      vertex 48.2512 52.0079 -1.16038e-14
      vertex 50.3511 59.2361 -1.36751e-14
      vertex 50.5497 59.0821 -1.3685e-14
    endloop
  endfacet
  facet normal -2.22045e-16 -2.22045e-16 -1
    outer loop
      vertex 48.2512 52.0079 -1.16038e-14
      vertex 50.5497 59.0821 -1.3685e-14
      vertex 50.7382 58.9159 -1.369e-14
    endloop
  endfacet
  facet normal -2.22045e-16 -2.22045e-16 -1
    outer loop
      vertex 48.2512 52.0079 -1.16038e-14
      vertex 50.7382 58.9159 -1.369e-14
      vertex 50.9159 58.7382 -1.369e-14
    endloop
  endfacet
  facet normal -2.22045e-16 -2.22045e-16 -1
    outer loop
      vertex 48.2512 52.0079 -1.16038e-14
      vertex 50.9159 58.7382 -1.369e-14
      vertex 51.0821 58.5497 -1.3685e-14
    endloop
  endfacet
  facet normal -2.22045e-16 -2.22045e-16 -1
    outer loop
      vertex 48.2512 52.0079 -1.16038e-14
      vertex 51.0821 58.5497 -1.3685e-14
      vertex 51.2361 58.3511 -1.36751e-14
    endloop
  endfacet
  facet normal -2.22045e-16 -2.22045e-16 -1
    outer loop
      vertex 48.2512 52.0079 -1.16038e-14
      vertex 51.2361 58.3511 -1.36751e-14
      vertex 51.3773 58.1433 -1.36603e-14
    endloop
  endfacet
  facet normal -2.22045e-16 -2.22045e-16 -1
    outer loop
      vertex 48.2512 52.0079 -1.16038e-14
      vertex 51.3773 58.1433 -1.36603e-14
      vertex 51.5052 57.927 -1.36407e-14
    endloop
  endfacet
  facet normal -2.22045e-16 -2.22045e-16 -1
    outer loop
      vertex 48.2512 52.0079 -1.16038e-14
      vertex 51.5052 57.927 -1.36407e-14
      vertex 51.6193 57.7031 -1.36163e-14
    endloop
  endfacet
  facet normal -2.22045e-16 -2.22045e-16 -1
    outer loop
      vertex 48.2512 52.0079 -1.16038e-14
      vertex 51.6193 57.7031 -1.36163e-14
      vertex 51.7191 57.4725 -1.35873e-14
    endloop
  endfacet
  facet normal -2.22045e-16 -2.22045e-16 -1
    outer loop
      vertex 48.2512 52.0079 -1.16038e-14
      vertex 51.7191 57.4725 -1.35873e-14
      vertex 51.8042 57.2361 -1.35537e-14
    endloop
  endfacet
  facet normal -2.22045e-16 -2.22045e-16 -1
    outer loop
      vertex 48.2512 52.0079 -1.16038e-14
      vertex 51.8042 57.2361 -1.35537e-14
      vertex 51.8743 56.9948 -1.35157e-14
    endloop
  endfacet
  facet normal -2.22045e-16 -2.22045e-16 -1
    outer loop
      vertex 48.2512 52.0079 -1.16038e-14
      vertex 51.8743 56.9948 -1.35157e-14
      vertex 51.9291 56.7495 -1.34734e-14
    endloop
  endfacet
  facet normal -2.22045e-16 -2.22045e-16 -1
    outer loop
      vertex 48.2512 52.0079 -1.16038e-14
      vertex 51.9291 56.7495 -1.34734e-14
      vertex 51.9685 56.5013 -1.3427e-14
    endloop
  endfacet
  facet normal -2.22045e-16 -2.22045e-16 -1
    outer loop
      vertex 48.2512 52.0079 -1.16038e-14
      vertex 51.9685 56.5013 -1.3427e-14
      vertex 51.9921 56.2512 -1.33767e-14
    endloop
  endfacet
  facet normal -2.22045e-16 -2.22045e-16 -1
    outer loop
      vertex 48.2512 52.0079 -1.16038e-14
      vertex 51.9921 56.2512 -1.33767e-14
      vertex 52 56 -1.33227e-14
    endloop
  endfacet
  facet normal -2.22045e-16 -2.22045e-16 -1
    outer loop
      vertex 48.2512 52.0079 -1.16038e-14
      vertex 52 56 -1.33227e-14
      vertex 51.9921 55.7488 -1.32652e-14
    endloop
  endfacet
  facet normal -2.22045e-16 -2.22045e-16 -1
    outer loop
      vertex 48.2512 52.0079 -1.16038e-14
      vertex 51.9921 55.7488 -1.32652e-14
      vertex 51.9685 55.4987 -1.32044e-14
    endloop
  endfacet
  facet normal -2.22045e-16 -2.22045e-16 -1
    outer loop
      vertex 48.2512 52.0079 -1.16038e-14
      vertex 51.9685 55.4987 -1.32044e-14
      vertex 51.9291 55.2505 -1.31405e-14
    endloop
  endfacet
  facet normal -2.22045e-16 -2.22045e-16 -1
    outer loop
      vertex 48.2512 52.0079 -1.16038e-14
      vertex 51.9291 55.2505 -1.31405e-14
      vertex 51.8743 55.0052 -1.30739e-14
    endloop
  endfacet
  facet normal -2.22045e-16 -2.22045e-16 -1
    outer loop
      vertex 48.2512 52.0079 -1.16038e-14
      vertex 51.8743 55.0052 -1.30739e-14
      vertex 51.8042 54.7639 -1.30047e-14
    endloop
  endfacet
  facet normal -2.22045e-16 -2.22045e-16 -1
    outer loop
      vertex 48.2512 52.0079 -1.16038e-14
      vertex 51.8042 54.7639 -1.30047e-14
      vertex 51.7191 54.5275 -1.29333e-14
    endloop
  endfacet
  facet normal -2.22045e-16 -2.22045e-16 -1
    outer loop
      vertex 48.2512 52.0079 -1.16038e-14
      vertex 51.7191 54.5275 -1.29333e-14
      vertex 51.6193 54.2969 -1.286e-14
    endloop
  endfacet
  facet normal -2.22045e-16 -2.22045e-16 -1
    outer loop
      vertex 48.2512 52.0079 -1.16038e-14
      vertex 51.6193 54.2969 -1.286e-14
      vertex 51.5052 54.073 -1.27849e-14
    endloop
  endfacet
  facet normal -2.22045e-16 -2.22045e-16 -1
    outer loop
      vertex 48.2512 52.0079 -1.16038e-14
      vertex 51.5052 54.073 -1.27849e-14
      vertex 51.3773 53.8567 -1.27085e-14
    endloop
  endfacet
  facet normal -2.22045e-16 -2.22045e-16 -1
    outer loop
      vertex 48.2512 52.0079 -1.16038e-14
      vertex 51.3773 53.8567 -1.27085e-14
      vertex 51.2361 53.6489 -1.2631e-14
    endloop
  endfacet
  facet normal -2.22045e-16 -2.22045e-16 -1
    outer loop
      vertex 48.2512 52.0079 -1.16038e-14
      vertex 51.2361 53.6489 -1.2631e-14
      vertex 51.0821 53.4503 -1.25527e-14
    endloop
  endfacet
  facet normal -2.22045e-16 -2.22045e-16 -1
    outer loop
      vertex 48.2512 52.0079 -1.16038e-14
      vertex 51.0821 53.4503 -1.25527e-14
      vertex 50.9159 53.2618 -1.2474e-14
    endloop
  endfacet
  facet normal -2.22045e-16 -2.22045e-16 -1
    outer loop
      vertex 48.2512 52.0079 -1.16038e-14
      vertex 50.9159 53.2618 -1.2474e-14
      vertex 50.7382 53.0841 -1.2395e-14
    endloop
  endfacet
  facet normal -2.22045e-16 -2.22045e-16 -1
    outer loop
      vertex 48.2512 52.0079 -1.16038e-14
      vertex 50.7382 53.0841 -1.2395e-14
      vertex 50.5497 52.9179 -1.23163e-14
    endloop
  endfacet
  facet normal -2.22045e-16 -2.22045e-16 -1
    outer loop
      vertex 48.2512 52.0079 -1.16038e-14
      vertex 50.5497 52.9179 -1.23163e-14
      vertex 50.3511 52.7639 -1.2238e-14
    endloop
  endfacet
  facet normal -2.22045e-16 -2.22045e-16 -1
    outer loop
      vertex 48.2512 52.0079 -1.16038e-14
      vertex 50.3511 52.7639 -1.2238e-14
      vertex 50.1433 52.6227 -1.21605e-14
    endloop
  endfacet
  facet normal -2.22045e-16 -2.22045e-16 -1
    outer loop
      vertex 48.2512 52.0079 -1.16038e-14
      vertex 50.1433 52.6227 -1.21605e-14
      vertex 49.927 52.4948 -1.20841e-14
    endloop
  endfacet
  facet normal -2.22045e-16 -2.22045e-16 -1
    outer loop
      vertex 48.2512 52.0079 -1.16038e-14
      vertex 49.927 52.4948 -1.20841e-14
      vertex 49.7031 52.3807 -1.2009e-14
    endloop
  endfacet
  facet normal -2.22045e-16 -2.22045e-16 -1
    outer loop
      vertex 48.2512 52.0079 -1.16038e-14
      vertex 49.7031 52.3807 -1.2009e-14
      vertex 49.4725 52.2809 -1.19357e-14
    endloop
  endfacet
  facet normal -2.22045e-16 -2.22045e-16 -1
    outer loop
      vertex 48.2512 52.0079 -1.16038e-14
      vertex 49.4725 52.2809 -1.19357e-14
      vertex 49.2361 52.1958 -1.18643e-14
    endloop
  endfacet
  facet normal -2.22045e-16 -2.22045e-16 -1
    outer loop
      vertex 48.2512 52.0079 -1.16038e-14
      vertex 49.2361 52.1958 -1.18643e-14
      vertex 48.9948 52.1257 -1.17951e-14
    endloop
  endfacet
  facet normal -2.22045e-16 -2.22045e-16 -1
    outer loop
      vertex 48.2512 52.0079 -1.16038e-14
      vertex 48.9948 52.1257 -1.17951e-14
      vertex 48.7495 52.0709 -1.17285e-14
    endloop
  endfacet
  facet normal -2.22045e-16 -2.22045e-16 -1
    outer loop
      vertex 48.2512 52.0079 -1.16038e-14
      vertex 48.7495 52.0709 -1.17285e-14
      vertex 48.5013 52.0315 -1.16646e-14
    endloop
  endfacet
  facet normal 0.0314104 0.999507 -2.2891e-16
    outer loop
      vertex 48 60 -1.33227e-14
      vertex 48 60 66
      vertex 48.2512 59.9921 -1.33767e-14
    endloop
  endfacet
  facet normal 0.0314104 0.999507 -2.2891e-16
    outer loop
      vertex 48.2512 59.9921 -1.33767e-14
      vertex 48 60 66
      vertex 48.2512 59.9921 66
    endloop
  endfacet
  facet normal 2.22045e-16 1 -2.22045e-16
    outer loop
      vertex 44 60 -1.33227e-14
      vertex 44 60 66
      vertex 48 60 -1.33227e-14
    endloop
  endfacet
  facet normal 2.22045e-16 1 -2.22045e-16
    outer loop
      vertex 48 60 -1.33227e-14
      vertex 44 60 66
      vertex 48 60 66
    endloop
  endfacet
  facet normal -1 2.22045e-16 -4.93038e-32
    outer loop
      vertex 44 -9.76996e-15 2.16937e-30
      vertex 44 4.88498e-15 66
      vertex 44 60 -1.33227e-14
    endloop
  endfacet
  facet normal -1 2.22045e-16 -4.93038e-32
    outer loop
      vertex 44 60 -1.33227e-14
      vertex 44 4.88498e-15 66
      vertex 44 60 66
    endloop
  endfacet
  facet normal 1 0 0
    outer loop
      vertex 44 -9.76996e-15 2.16937e-30
      vertex 44 0 0
      vertex 44 1.46549e-14 66
    endloop
  endfacet
  facet normal 1 0 0
    outer loop
      vertex 44 4.88498e-15 66
      vertex 44 -9.76996e-15 2.16937e-30
      vertex 44 1.46549e-14 66
    endloop
  endfacet
  facet normal 0 1 -2.22045e-16
    outer loop
      vertex 4 0 0
      vertex 4 1.46549e-14 66
      vertex 44 0 0
    endloop
  endfacet
  facet normal 0 1 -2.22045e-16
    outer loop
      vertex 44 0 0
      vertex 4 1.46549e-14 66
      vertex 44 1.46549e-14 66
    endloop
  endfacet
  facet normal 1 -2.22045e-16 4.93038e-32
    outer loop
      vertex 4 1.46549e-14 66
      vertex 4 0 0
      vertex 4 50 -1.11022e-14
    endloop
  endfacet
  facet normal 1 -2.22045e-16 4.93038e-32
    outer loop
      vertex 4 50 66
      vertex 4 1.46549e-14 66
      vertex 4 50 -1.11022e-14
    endloop
  endfacet
  facet normal 2.22045e-16 1 -2.22045e-16
    outer loop
      vertex 1.11022e-14 50 -1.11022e-14
      vertex 1.11022e-14 50 66
      vertex 4 50 -1.11022e-14
    endloop
  endfacet
  facet normal 2.22045e-16 1 -2.22045e-16
    outer loop
      vertex 4 50 -1.11022e-14
      vertex 1.11022e-14 50 66
      vertex 4 50 66
    endloop
  endfacet
  facet normal 2.22045e-16 2.22045e-16 1
    outer loop
      vertex 44.0079 56.2512 66
      vertex 44 56 66
      vertex 44.0079 55.7488 66
    endloop
  endfacet
  facet normal 2.22045e-16 2.22045e-16 1
    outer loop
      vertex 44.0709 55.2505 66
      vertex 44.0079 56.2512 66
      vertex 44.0315 55.4987 66
    endloop
  endfacet
  facet normal 2.22045e-16 2.22045e-16 1
    outer loop
      vertex 44.0315 55.4987 66
      vertex 44.0079 56.2512 66
      vertex 44.0079 55.7488 66
    endloop
  endfacet
  facet normal 2.22045e-16 2.22045e-16 1
    outer loop
      vertex 44.1257 55.0052 66
      vertex 44.0079 56.2512 66
      vertex 44.0709 55.2505 66
    endloop
  endfacet
  facet normal 2.22045e-16 2.22045e-16 1
    outer loop
      vertex 44.1958 54.7639 66
      vertex 44.0079 56.2512 66
      vertex 44.1257 55.0052 66
    endloop
  endfacet
  facet normal 2.22045e-16 2.22045e-16 1
    outer loop
      vertex 44.2809 54.5275 66
      vertex 44.0079 56.2512 66
      vertex 44.1958 54.7639 66
    endloop
  endfacet
  facet normal 2.22045e-16 2.22045e-16 1
    outer loop
      vertex 44.3807 54.2969 66
      vertex 44.0079 56.2512 66
      vertex 44.2809 54.5275 66
    endloop
  endfacet
  facet normal 2.22045e-16 2.22045e-16 1
    outer loop
      vertex 44.4948 54.073 66
      vertex 44.0079 56.2512 66
      vertex 44.3807 54.2969 66
    endloop
  endfacet
  facet normal 2.22045e-16 2.22045e-16 1
    outer loop
      vertex 44.6227 53.8567 66
      vertex 44.0079 56.2512 66
      vertex 44.4948 54.073 66
    endloop
  endfacet
  facet normal 2.22045e-16 2.22045e-16 1
    outer loop
      vertex 44.7639 53.6489 66
      vertex 44.0079 56.2512 66
      vertex 44.6227 53.8567 66
    endloop
  endfacet
  facet normal 2.22045e-16 2.22045e-16 1
    outer loop
      vertex 44.9179 53.4503 66
      vertex 44.0079 56.2512 66
      vertex 44.7639 53.6489 66
    endloop
  endfacet
  facet normal 2.22045e-16 2.22045e-16 1
    outer loop
      vertex 45.0841 53.2618 66
      vertex 44.0079 56.2512 66
      vertex 44.9179 53.4503 66
    endloop
  endfacet
  facet normal 2.22045e-16 2.22045e-16 1
    outer loop
      vertex 45.2618 53.0841 66
      vertex 44.0079 56.2512 66
      vertex 45.0841 53.2618 66
    endloop
  endfacet
  facet normal 2.22045e-16 2.22045e-16 1
    outer loop
      vertex 45.4503 52.9179 66
      vertex 44.0079 56.2512 66
      vertex 45.2618 53.0841 66
    endloop
  endfacet
  facet normal 2.22045e-16 2.22045e-16 1
    outer loop
      vertex 45.6489 52.7639 66
      vertex 44.0079 56.2512 66
      vertex 45.4503 52.9179 66
    endloop
  endfacet
  facet normal 2.22045e-16 2.22045e-16 1
    outer loop
      vertex 45.8567 52.6227 66
      vertex 44.0079 56.2512 66
      vertex 45.6489 52.7639 66
    endloop
  endfacet
  facet normal 2.22045e-16 2.22045e-16 1
    outer loop
      vertex 46.073 52.4948 66
      vertex 44.0079 56.2512 66
      vertex 45.8567 52.6227 66
    endloop
  endfacet
  facet normal 2.22045e-16 2.22045e-16 1
    outer loop
      vertex 46.2969 52.3807 66
      vertex 44.0079 56.2512 66
      vertex 46.073 52.4948 66
    endloop
  endfacet
  facet normal 2.22045e-16 2.22045e-16 1
    outer loop
      vertex 46.5275 52.2809 66
      vertex 44.0079 56.2512 66
      vertex 46.2969 52.3807 66
    endloop
  endfacet
  facet normal 2.22045e-16 2.22045e-16 1
    outer loop
      vertex 46.7639 52.1958 66
      vertex 44.0079 56.2512 66
      vertex 46.5275 52.2809 66
    endloop
  endfacet
  facet normal 2.22045e-16 2.22045e-16 1
    outer loop
      vertex 47.0052 52.1257 66
      vertex 44.0079 56.2512 66
      vertex 46.7639 52.1958 66
    endloop
  endfacet
  facet normal 2.22045e-16 2.22045e-16 1
    outer loop
      vertex 47.2505 52.0709 66
      vertex 44.0079 56.2512 66
      vertex 47.0052 52.1257 66
    endloop
  endfacet
  facet normal 2.22045e-16 2.22045e-16 1
    outer loop
      vertex 47.4987 52.0315 66
      vertex 44.0079 56.2512 66
      vertex 47.2505 52.0709 66
    endloop
  endfacet
  facet normal 2.22045e-16 2.22045e-16 1
    outer loop
      vertex 47.7488 52.0079 66
      vertex 44.0079 56.2512 66
      vertex 47.4987 52.0315 66
    endloop
  endfacet
  facet normal 2.22045e-16 2.22045e-16 1
    outer loop
      vertex 48 52 66
      vertex 44.0079 56.2512 66
      vertex 47.7488 52.0079 66
    endloop
  endfacet
  facet normal 2.22045e-16 2.22045e-16 1
    outer loop
      vertex 48.2512 52.0079 66
      vertex 44.0079 56.2512 66
      vertex 48 52 66
    endloop
  endfacet
  facet normal 2.22045e-16 2.22045e-16 1
    outer loop
      vertex 48.5013 52.0315 66
      vertex 44.0079 56.2512 66
      vertex 48.2512 52.0079 66
    endloop
  endfacet
  facet normal 2.22045e-16 2.22045e-16 1
    outer loop
      vertex 48.7495 52.0709 66
      vertex 44.0079 56.2512 66
      vertex 48.5013 52.0315 66
    endloop
  endfacet
  facet normal 2.22045e-16 2.22045e-16 1
    outer loop
      vertex 48.9948 52.1257 66
      vertex 44.0079 56.2512 66
      vertex 48.7495 52.0709 66
    endloop
  endfacet
  facet normal 2.22045e-16 2.22045e-16 1
    outer loop
      vertex 49.2361 52.1958 66
      vertex 44.0079 56.2512 66
      vertex 48.9948 52.1257 66
    endloop
  endfacet
  facet normal 2.22045e-16 2.22045e-16 1
    outer loop
      vertex 49.4725 52.2809 66
      vertex 44.0079 56.2512 66
      vertex 49.2361 52.1958 66
    endloop
  endfacet
  facet normal 2.22045e-16 2.22045e-16 1
    outer loop
      vertex 49.7031 52.3807 66
      vertex 44.0079 56.2512 66
      vertex 49.4725 52.2809 66
    endloop
  endfacet
  facet normal 2.22045e-16 2.22045e-16 1
    outer loop
      vertex 49.927 52.4948 66
      vertex 44.0079 56.2512 66
      vertex 49.7031 52.3807 66
    endloop
  endfacet
  facet normal 2.22045e-16 2.22045e-16 1
    outer loop
      vertex 50.1433 52.6227 66
      vertex 44.0079 56.2512 66
      vertex 49.927 52.4948 66
    endloop
  endfacet
  facet normal 2.22045e-16 2.22045e-16 1
    outer loop
      vertex 50.3511 52.7639 66
      vertex 44.0079 56.2512 66
      vertex 50.1433 52.6227 66
    endloop
  endfacet
  facet normal 2.22045e-16 2.22045e-16 1
    outer loop
      vertex 50.5497 52.9179 66
      vertex 44.0079 56.2512 66
      vertex 50.3511 52.7639 66
    endloop
  endfacet
  facet normal 2.22045e-16 2.22045e-16 1
    outer loop
      vertex 50.7382 53.0841 66
      vertex 44.0079 56.2512 66
      vertex 50.5497 52.9179 66
    endloop
  endfacet
  facet normal 2.22045e-16 2.22045e-16 1
    outer loop
      vertex 50.9159 53.2618 66
      vertex 44.0079 56.2512 66
      vertex 50.7382 53.0841 66
    endloop
  endfacet
  facet normal 2.22045e-16 2.22045e-16 1
    outer loop
      vertex 51.0821 53.4503 66
      vertex 44.0079 56.2512 66
      vertex 50.9159 53.2618 66
    endloop
  endfacet
  facet normal 2.22045e-16 2.22045e-16 1
    outer loop
      vertex 51.2361 53.6489 66
      vertex 44.0079 56.2512 66
      vertex 51.0821 53.4503 66
    endloop
  endfacet
  facet normal 2.22045e-16 2.22045e-16 1
    outer loop
      vertex 51.3773 53.8567 66
      vertex 44.0079 56.2512 66
      vertex 51.2361 53.6489 66
    endloop
  endfacet
  facet normal 2.22045e-16 2.22045e-16 1
    outer loop
      vertex 51.5052 54.073 66
      vertex 44.0079 56.2512 66
      vertex 51.3773 53.8567 66
    endloop
  endfacet
  facet normal 2.22045e-16 2.22045e-16 1
    outer loop
      vertex 51.6193 54.2969 66
      vertex 44.0079 56.2512 66
      vertex 51.5052 54.073 66
    endloop
  endfacet
  facet normal 2.22045e-16 2.22045e-16 1
    outer loop
      vertex 51.7191 54.5275 66
      vertex 44.0079 56.2512 66
      vertex 51.6193 54.2969 66
    endloop
  endfacet
  facet normal 2.22045e-16 2.22045e-16 1
    outer loop
      vertex 51.8042 54.7639 66
      vertex 44.0079 56.2512 66
      vertex 51.7191 54.5275 66
    endloop
  endfacet
  facet normal 2.22045e-16 2.22045e-16 1
    outer loop
      vertex 51.8743 55.0052 66
      vertex 44.0079 56.2512 66
      vertex 51.8042 54.7639 66
    endloop
  endfacet
  facet normal 2.22045e-16 2.22045e-16 1
    outer loop
      vertex 51.9281 55.2457 66
      vertex 44.0079 56.2512 66
      vertex 51.8743 55.0052 66
    endloop
  endfacet
  facet normal 2.22045e-16 2.22045e-16 1
    outer loop
      vertex 48 55.9383 66
      vertex 44.0079 56.2512 66
      vertex 51.9281 55.2457 66
    endloop
  endfacet
  facet normal 2.22045e-16 2.22045e-16 1
    outer loop
      vertex 48 60 66
      vertex 44.0079 56.2512 66
      vertex 48 55.9383 66
    endloop
  endfacet
  facet normal 2.22045e-16 2.22045e-16 1
    outer loop
      vertex 49.2361 59.8042 66
      vertex 48 60 66
      vertex 49.3568 59.7608 66
    endloop
  endfacet
  facet normal 2.22045e-16 2.22045e-16 1
    outer loop
      vertex 48.9948 59.8743 66
      vertex 48 60 66
      vertex 49.2361 59.8042 66
    endloop
  endfacet
  facet normal 2.22045e-16 2.22045e-16 1
    outer loop
      vertex 48.7495 59.9291 66
      vertex 48 60 66
      vertex 48.9948 59.8743 66
    endloop
  endfacet
  facet normal 2.22045e-16 2.22045e-16 1
    outer loop
      vertex 48.5013 59.9685 66
      vertex 48 60 66
      vertex 48.7495 59.9291 66
    endloop
  endfacet
  facet normal 2.22045e-16 2.22045e-16 1
    outer loop
      vertex 48.2512 59.9921 66
      vertex 48 60 66
      vertex 48.5013 59.9685 66
    endloop
  endfacet
  facet normal 2.22045e-16 2.22045e-16 1
    outer loop
      vertex 47.7488 59.9921 66
      vertex 44.0079 56.2512 66
      vertex 48 60 66
    endloop
  endfacet
  facet normal 2.22045e-16 2.22045e-16 1
    outer loop
      vertex 47.4987 59.9685 66
      vertex 44.0079 56.2512 66
      vertex 47.7488 59.9921 66
    endloop
  endfacet
  facet normal 2.22045e-16 2.22045e-16 1
    outer loop
      vertex 47.2505 59.9291 66
      vertex 44.0079 56.2512 66
      vertex 47.4987 59.9685 66
    endloop
  endfacet
  facet normal 2.22045e-16 2.22045e-16 1
    outer loop
      vertex 47.0052 59.8743 66
      vertex 44.0079 56.2512 66
      vertex 47.2505 59.9291 66
    endloop
  endfacet
  facet normal 2.22045e-16 2.22045e-16 1
    outer loop
      vertex 46.7639 59.8042 66
      vertex 44.0079 56.2512 66
      vertex 47.0052 59.8743 66
    endloop
  endfacet
  facet normal 2.22045e-16 2.22045e-16 1
    outer loop
      vertex 46.5275 59.7191 66
      vertex 44.0079 56.2512 66
      vertex 46.7639 59.8042 66
    endloop
  endfacet
  facet normal 2.22045e-16 2.22045e-16 1
    outer loop
      vertex 46.2969 59.6193 66
      vertex 44.0079 56.2512 66
      vertex 46.5275 59.7191 66
    endloop
  endfacet
  facet normal 2.22045e-16 2.22045e-16 1
    outer loop
      vertex 46.073 59.5052 66
      vertex 44.0079 56.2512 66
      vertex 46.2969 59.6193 66
    endloop
  endfacet
  facet normal 2.22045e-16 2.22045e-16 1
    outer loop
      vertex 45.8567 59.3773 66
      vertex 44.0079 56.2512 66
      vertex 46.073 59.5052 66
    endloop
  endfacet
  facet normal 2.22045e-16 2.22045e-16 1
    outer loop
      vertex 45.6489 59.2361 66
      vertex 44.0079 56.2512 66
      vertex 45.8567 59.3773 66
    endloop
  endfacet
  facet normal 2.22045e-16 2.22045e-16 1
    outer loop
      vertex 45.4503 59.0821 66
      vertex 44.0079 56.2512 66
      vertex 45.6489 59.2361 66
    endloop
  endfacet
  facet normal 2.22045e-16 2.22045e-16 1
    outer loop
      vertex 45.2618 58.9159 66
      vertex 44.0079 56.2512 66
      vertex 45.4503 59.0821 66
    endloop
  endfacet
  facet normal 2.22045e-16 2.22045e-16 1
    outer loop
      vertex 45.0841 58.7382 66
      vertex 44.0079 56.2512 66
      vertex 45.2618 58.9159 66
    endloop
  endfacet
  facet normal 2.22045e-16 2.22045e-16 1
    outer loop
      vertex 44.9179 58.5497 66
      vertex 44.0079 56.2512 66
      vertex 45.0841 58.7382 66
    endloop
  endfacet
  facet normal 2.22045e-16 2.22045e-16 1
    outer loop
      vertex 44.7639 58.3511 66
      vertex 44.0079 56.2512 66
      vertex 44.9179 58.5497 66
    endloop
  endfacet
  facet normal 2.22045e-16 2.22045e-16 1
    outer loop
      vertex 44.6227 58.1433 66
      vertex 44.0079 56.2512 66
      vertex 44.7639 58.3511 66
    endloop
  endfacet
  facet normal 2.22045e-16 2.22045e-16 1
    outer loop
      vertex 44.4948 57.927 66
      vertex 44.0079 56.2512 66
      vertex 44.6227 58.1433 66
    endloop
  endfacet
  facet normal 2.22045e-16 2.22045e-16 1
    outer loop
      vertex 44.3807 57.7031 66
      vertex 44.0079 56.2512 66
      vertex 44.4948 57.927 66
    endloop
  endfacet
  facet normal 2.22045e-16 2.22045e-16 1
    outer loop
      vertex 44.2809 57.4725 66
      vertex 44.0079 56.2512 66
      vertex 44.3807 57.7031 66
    endloop
  endfacet
  facet normal 2.22045e-16 2.22045e-16 1
    outer loop
      vertex 44.1958 57.2361 66
      vertex 44.0079 56.2512 66
      vertex 44.2809 57.4725 66
    endloop
  endfacet
  facet normal 2.22045e-16 2.22045e-16 1
    outer loop
      vertex 44.1257 56.9948 66
      vertex 44.0079 56.2512 66
      vertex 44.1958 57.2361 66
    endloop
  endfacet
  facet normal 2.22045e-16 2.22045e-16 1
    outer loop
      vertex 44.0709 56.7495 66
      vertex 44.0079 56.2512 66
      vertex 44.1257 56.9948 66
    endloop
  endfacet
  facet normal 2.22045e-16 2.22045e-16 1
    outer loop
      vertex 44.0315 56.5013 66
      vertex 44.0079 56.2512 66
      vertex 44.0709 56.7495 66
    endloop
  endfacet
  facet normal 0.0941078 -0.995562 2.00163e-16
    outer loop
      vertex 48.2512 52.0079 66
      vertex 48.2512 52.0079 -1.16038e-14
      vertex 48.5013 52.0315 -1.16646e-14
    endloop
  endfacet
  facet normal 0.0941078 -0.995562 2.00163e-16
    outer loop
      vertex 48.5013 52.0315 66
      vertex 48.2512 52.0079 66
      vertex 48.5013 52.0315 -1.16646e-14
    endloop
  endfacet
  facet normal 0.156435 -0.987688 1.84575e-16
    outer loop
      vertex 48.5013 52.0315 66
      vertex 48.5013 52.0315 -1.16646e-14
      vertex 48.7495 52.0709 -1.17285e-14
    endloop
  endfacet
  facet normal 0.156435 -0.987688 1.84575e-16
    outer loop
      vertex 48.7495 52.0709 66
      vertex 48.5013 52.0315 66
      vertex 48.7495 52.0709 -1.17285e-14
    endloop
  endfacet
  facet normal 0.218141 -0.975917 1.6826e-16
    outer loop
      vertex 48.7495 52.0709 66
      vertex 48.7495 52.0709 -1.17285e-14
      vertex 48.9948 52.1257 -1.17951e-14
    endloop
  endfacet
  facet normal 0.218141 -0.975917 1.6826e-16
    outer loop
      vertex 48.9948 52.1257 66
      vertex 48.7495 52.0709 66
      vertex 48.9948 52.1257 -1.17951e-14
    endloop
  endfacet
  facet normal 0.278993 -0.960293 1.51279e-16
    outer loop
      vertex 48.9948 52.1257 66
      vertex 48.9948 52.1257 -1.17951e-14
      vertex 49.2361 52.1958 -1.18643e-14
    endloop
  endfacet
  facet normal 0.278993 -0.960293 1.51279e-16
    outer loop
      vertex 49.2361 52.1958 66
      vertex 48.9948 52.1257 66
      vertex 49.2361 52.1958 -1.18643e-14
    endloop
  endfacet
  facet normal 0.338738 -0.940881 1.33703e-16
    outer loop
      vertex 49.2361 52.1958 66
      vertex 49.2361 52.1958 -1.18643e-14
      vertex 49.4725 52.2809 -1.19357e-14
    endloop
  endfacet
  facet normal 0.338738 -0.940881 1.33703e-16
    outer loop
      vertex 49.4725 52.2809 66
      vertex 49.2361 52.1958 66
      vertex 49.4725 52.2809 -1.19357e-14
    endloop
  endfacet
  facet normal 0.397149 -0.917754 1.15598e-16
    outer loop
      vertex 49.4725 52.2809 66
      vertex 49.4725 52.2809 -1.19357e-14
      vertex 49.7031 52.3807 -1.2009e-14
    endloop
  endfacet
  facet normal 0.397149 -0.917754 1.15598e-16
    outer loop
      vertex 49.7031 52.3807 66
      vertex 49.4725 52.2809 66
      vertex 49.7031 52.3807 -1.2009e-14
    endloop
  endfacet
  facet normal 0.453988 -0.891008 9.70378e-17
    outer loop
      vertex 49.7031 52.3807 66
      vertex 49.7031 52.3807 -1.2009e-14
      vertex 49.927 52.4948 -1.20841e-14
    endloop
  endfacet
  facet normal 0.453988 -0.891008 9.70378e-17
    outer loop
      vertex 49.927 52.4948 66
      vertex 49.7031 52.3807 66
      vertex 49.927 52.4948 -1.20841e-14
    endloop
  endfacet
  facet normal 0.509042 -0.860742 7.80929e-17
    outer loop
      vertex 49.927 52.4948 66
      vertex 49.927 52.4948 -1.20841e-14
      vertex 50.1433 52.6227 -1.21605e-14
    endloop
  endfacet
  facet normal 0.509042 -0.860742 7.80929e-17
    outer loop
      vertex 50.1433 52.6227 66
      vertex 49.927 52.4948 66
      vertex 50.1433 52.6227 -1.21605e-14
    endloop
  endfacet
  facet normal 0.562084 -0.82708 5.8841e-17
    outer loop
      vertex 50.1433 52.6227 66
      vertex 50.1433 52.6227 -1.21605e-14
      vertex 50.3511 52.7639 -1.2238e-14
    endloop
  endfacet
  facet normal 0.562084 -0.82708 5.8841e-17
    outer loop
      vertex 50.3511 52.7639 66
      vertex 50.1433 52.6227 66
      vertex 50.3511 52.7639 -1.2238e-14
    endloop
  endfacet
  facet normal 0.612907 -0.790155 3.9357e-17
    outer loop
      vertex 50.3511 52.7639 66
      vertex 50.3511 52.7639 -1.2238e-14
      vertex 50.5497 52.9179 -1.23163e-14
    endloop
  endfacet
  facet normal 0.612907 -0.790155 3.9357e-17
    outer loop
      vertex 50.5497 52.9179 66
      vertex 50.3511 52.7639 66
      vertex 50.5497 52.9179 -1.23163e-14
    endloop
  endfacet
  facet normal 0.661312 -0.750111 1.97174e-17
    outer loop
      vertex 50.5497 52.9179 66
      vertex 50.5497 52.9179 -1.23163e-14
      vertex 50.7382 53.0841 -1.2395e-14
    endloop
  endfacet
  facet normal 0.661312 -0.750111 1.97174e-17
    outer loop
      vertex 50.7382 53.0841 66
      vertex 50.5497 52.9179 66
      vertex 50.7382 53.0841 -1.2395e-14
    endloop
  endfacet
  facet normal 0.707107 -0.707107 3.48631e-32
    outer loop
      vertex 50.7382 53.0841 66
      vertex 50.7382 53.0841 -1.2395e-14
      vertex 50.9159 53.2618 -1.2474e-14
    endloop
  endfacet
  facet normal 0.707107 -0.707107 3.48631e-32
    outer loop
      vertex 50.9159 53.2618 66
      vertex 50.7382 53.0841 66
      vertex 50.9159 53.2618 -1.2474e-14
    endloop
  endfacet
  facet normal 0.750111 -0.661312 -1.97174e-17
    outer loop
      vertex 50.9159 53.2618 66
      vertex 50.9159 53.2618 -1.2474e-14
      vertex 51.0821 53.4503 -1.25527e-14
    endloop
  endfacet
  facet normal 0.750111 -0.661312 -1.97174e-17
    outer loop
      vertex 51.0821 53.4503 66
      vertex 50.9159 53.2618 66
      vertex 51.0821 53.4503 -1.25527e-14
    endloop
  endfacet
  facet normal 0.790155 -0.612907 -3.9357e-17
    outer loop
      vertex 51.0821 53.4503 66
      vertex 51.0821 53.4503 -1.25527e-14
      vertex 51.2361 53.6489 -1.2631e-14
    endloop
  endfacet
  facet normal 0.790155 -0.612907 -3.9357e-17
    outer loop
      vertex 51.2361 53.6489 66
      vertex 51.0821 53.4503 66
      vertex 51.2361 53.6489 -1.2631e-14
    endloop
  endfacet
  facet normal 0.82708 -0.562084 -5.8841e-17
    outer loop
      vertex 51.2361 53.6489 66
      vertex 51.2361 53.6489 -1.2631e-14
      vertex 51.3773 53.8567 -1.27085e-14
    endloop
  endfacet
  facet normal 0.82708 -0.562084 -5.8841e-17
    outer loop
      vertex 51.3773 53.8567 66
      vertex 51.2361 53.6489 66
      vertex 51.3773 53.8567 -1.27085e-14
    endloop
  endfacet
  facet normal 0.860742 -0.509042 -7.80929e-17
    outer loop
      vertex 51.3773 53.8567 66
      vertex 51.3773 53.8567 -1.27085e-14
      vertex 51.5052 54.073 -1.27849e-14
    endloop
  endfacet
  facet normal 0.860742 -0.509042 -7.80929e-17
    outer loop
      vertex 51.5052 54.073 66
      vertex 51.3773 53.8567 66
      vertex 51.5052 54.073 -1.27849e-14
    endloop
  endfacet
  facet normal 0.891008 -0.453988 -9.70378e-17
    outer loop
      vertex 51.5052 54.073 66
      vertex 51.5052 54.073 -1.27849e-14
      vertex 51.6193 54.2969 -1.286e-14
    endloop
  endfacet
  facet normal 0.891008 -0.453988 -9.70378e-17
    outer loop
      vertex 51.6193 54.2969 66
      vertex 51.5052 54.073 66
      vertex 51.6193 54.2969 -1.286e-14
    endloop
  endfacet
  facet normal 0.917754 -0.397149 -1.15598e-16
    outer loop
      vertex 51.6193 54.2969 66
      vertex 51.6193 54.2969 -1.286e-14
      vertex 51.7191 54.5275 -1.29333e-14
    endloop
  endfacet
  facet normal 0.917754 -0.397149 -1.15598e-16
    outer loop
      vertex 51.7191 54.5275 66
      vertex 51.6193 54.2969 66
      vertex 51.7191 54.5275 -1.29333e-14
    endloop
  endfacet
  facet normal 0.940881 -0.338738 -1.33703e-16
    outer loop
      vertex 51.7191 54.5275 66
      vertex 51.7191 54.5275 -1.29333e-14
      vertex 51.8042 54.7639 -1.30047e-14
    endloop
  endfacet
  facet normal 0.940881 -0.338738 -1.33703e-16
    outer loop
      vertex 51.8042 54.7639 66
      vertex 51.7191 54.5275 66
      vertex 51.8042 54.7639 -1.30047e-14
    endloop
  endfacet
  facet normal 0.960293 -0.278993 -1.51279e-16
    outer loop
      vertex 51.8042 54.7639 66
      vertex 51.8042 54.7639 -1.30047e-14
      vertex 51.8743 55.0052 -1.30739e-14
    endloop
  endfacet
  facet normal 0.960293 -0.278993 -1.51279e-16
    outer loop
      vertex 51.8743 55.0052 66
      vertex 51.8042 54.7639 66
      vertex 51.8743 55.0052 -1.30739e-14
    endloop
  endfacet
  facet normal 0.975917 -0.218141 -1.6826e-16
    outer loop
      vertex 51.9281 55.2457 -1.2267e-14
      vertex 51.8743 55.0052 -1.30739e-14
      vertex 51.9291 55.2505 -1.31405e-14
    endloop
  endfacet
  facet normal 0.975917 -0.218141 -1.6826e-16
    outer loop
      vertex 51.9281 55.2457 -1.2267e-14
      vertex 51.9281 55.2457 66
      vertex 51.8743 55.0052 66
    endloop
  endfacet
  facet normal 0.975917 -0.218141 -1.6826e-16
    outer loop
      vertex 51.8743 55.0052 66
      vertex 51.8743 55.0052 -1.30739e-14
      vertex 51.9281 55.2457 -1.2267e-14
    endloop
  endfacet
  facet normal 0.975917 -0.218141 -1.6826e-16
    outer loop
      vertex 51.9291 55.2505 -1.22681e-14
      vertex 51.9281 55.2457 -1.2267e-14
      vertex 51.9291 55.2505 -1.31405e-14
    endloop
  endfacet
  facet normal 0.987688 -0.156435 -1.84575e-16
    outer loop
      vertex 51.9291 55.2505 -1.22681e-14
      vertex 51.9291 55.2505 -1.31405e-14
      vertex 51.9685 55.4987 -1.32044e-14
    endloop
  endfacet
  facet normal 0.987688 -0.156435 -1.84575e-16
    outer loop
      vertex 51.9685 55.4987 -1.23232e-14
      vertex 51.9291 55.2505 -1.22681e-14
      vertex 51.9685 55.4987 -1.32044e-14
    endloop
  endfacet
  facet normal 0.995562 -0.0941078 -2.00163e-16
    outer loop
      vertex 51.9685 55.4987 -1.23232e-14
      vertex 51.9685 55.4987 -1.32044e-14
      vertex 51.9921 55.7488 -1.32652e-14
    endloop
  endfacet
  facet normal 0.995562 -0.0941078 -2.00163e-16
    outer loop
      vertex 51.9921 55.7488 -1.23787e-14
      vertex 51.9685 55.4987 -1.23232e-14
      vertex 51.9921 55.7488 -1.32652e-14
    endloop
  endfacet
  facet normal 0.999507 -0.0314104 -2.14961e-16
    outer loop
      vertex 51.9921 55.7488 -1.23787e-14
      vertex 51.9921 55.7488 -1.32652e-14
      vertex 52 56 -1.33227e-14
    endloop
  endfacet
  facet normal 0.999507 -0.0314104 -2.14961e-16
    outer loop
      vertex 52 56 -1.24345e-14
      vertex 51.9921 55.7488 -1.23787e-14
      vertex 52 56 -1.33227e-14
    endloop
  endfacet
  facet normal 0.999507 0.0314104 -2.2891e-16
    outer loop
      vertex 52 56 -1.33227e-14
      vertex 51.9921 56.2512 -1.33767e-14
      vertex 51.9921 56.2512 -1.24903e-14
    endloop
  endfacet
  facet normal 0.999507 0.0314104 -2.2891e-16
    outer loop
      vertex 52 56 -1.24345e-14
      vertex 52 56 -1.33227e-14
      vertex 51.9921 56.2512 -1.24903e-14
    endloop
  endfacet
  facet normal 0.995562 0.0941078 -2.41955e-16
    outer loop
      vertex 51.9921 56.2512 -1.33767e-14
      vertex 51.9685 56.5013 -1.3427e-14
      vertex 51.9685 56.5013 -1.25458e-14
    endloop
  endfacet
  facet normal 0.995562 0.0941078 -2.41955e-16
    outer loop
      vertex 51.9921 56.2512 -1.24903e-14
      vertex 51.9921 56.2512 -1.33767e-14
      vertex 51.9685 56.5013 -1.25458e-14
    endloop
  endfacet
  facet normal 0.987688 0.156435 -2.54046e-16
    outer loop
      vertex 51.9685 56.5013 -1.3427e-14
      vertex 51.9291 56.7495 -1.34734e-14
      vertex 51.9291 56.7495 -1.26009e-14
    endloop
  endfacet
  facet normal 0.987688 0.156435 -2.54046e-16
    outer loop
      vertex 51.9685 56.5013 -1.25458e-14
      vertex 51.9685 56.5013 -1.3427e-14
      vertex 51.9291 56.7495 -1.26009e-14
    endloop
  endfacet
  facet normal 0.975917 0.218141 -2.65134e-16
    outer loop
      vertex 51.9291 56.7495 -1.34734e-14
      vertex 51.8743 56.9948 -1.35157e-14
      vertex 51.8743 56.9948 -1.26554e-14
    endloop
  endfacet
  facet normal 0.975917 0.218141 -2.65134e-16
    outer loop
      vertex 51.9291 56.7495 -1.26009e-14
      vertex 51.9291 56.7495 -1.34734e-14
      vertex 51.8743 56.9948 -1.26554e-14
    endloop
  endfacet
  facet normal 0.960293 0.278993 -2.75177e-16
    outer loop
      vertex 51.8743 56.9948 -1.35157e-14
      vertex 51.8042 57.2361 -1.35537e-14
      vertex 51.8042 57.2361 -1.2709e-14
    endloop
  endfacet
  facet normal 0.960293 0.278993 -2.75177e-16
    outer loop
      vertex 51.8743 56.9948 -1.26554e-14
      vertex 51.8743 56.9948 -1.35157e-14
      vertex 51.8042 57.2361 -1.2709e-14
    endloop
  endfacet
  facet normal 0.940881 0.338738 -2.84132e-16
    outer loop
      vertex 51.8042 57.2361 -1.35537e-14
      vertex 51.7191 57.4725 -1.35873e-14
      vertex 51.7191 57.4725 -1.27615e-14
    endloop
  endfacet
  facet normal 0.940881 0.338738 -2.84132e-16
    outer loop
      vertex 51.8042 57.2361 -1.2709e-14
      vertex 51.8042 57.2361 -1.35537e-14
      vertex 51.7191 57.4725 -1.27615e-14
    endloop
  endfacet
  facet normal 0.917754 0.397149 -2.91967e-16
    outer loop
      vertex 51.7191 57.4725 -1.35873e-14
      vertex 51.6193 57.7031 -1.36163e-14
      vertex 51.6193 57.7031 -1.28127e-14
    endloop
  endfacet
  facet normal 0.917754 0.397149 -2.91967e-16
    outer loop
      vertex 51.7191 57.4725 -1.27615e-14
      vertex 51.7191 57.4725 -1.35873e-14
      vertex 51.6193 57.7031 -1.28127e-14
    endloop
  endfacet
  facet normal 0.891008 0.453988 -2.98649e-16
    outer loop
      vertex 51.6193 57.7031 -1.36163e-14
      vertex 51.5052 57.927 -1.36407e-14
      vertex 51.5052 57.927 -1.28624e-14
    endloop
  endfacet
  facet normal 0.891008 0.453988 -2.98649e-16
    outer loop
      vertex 51.6193 57.7031 -1.28127e-14
      vertex 51.6193 57.7031 -1.36163e-14
      vertex 51.5052 57.927 -1.28624e-14
    endloop
  endfacet
  facet normal 0.860742 0.509042 -3.04153e-16
    outer loop
      vertex 51.5052 57.927 -1.36407e-14
      vertex 51.3773 58.1433 -1.36603e-14
      vertex 51.3773 58.1433 -1.29104e-14
    endloop
  endfacet
  facet normal 0.860742 0.509042 -3.04153e-16
    outer loop
      vertex 51.5052 57.927 -1.28624e-14
      vertex 51.5052 57.927 -1.36407e-14
      vertex 51.3773 58.1433 -1.29104e-14
    endloop
  endfacet
  facet normal 0.82708 0.562084 -3.08456e-16
    outer loop
      vertex 51.3773 58.1433 -1.36603e-14
      vertex 51.2361 58.3511 -1.36751e-14
      vertex 51.2361 58.3511 -1.29566e-14
    endloop
  endfacet
  facet normal 0.82708 0.562084 -3.08456e-16
    outer loop
      vertex 51.3773 58.1433 -1.29104e-14
      vertex 51.3773 58.1433 -1.36603e-14
      vertex 51.2361 58.3511 -1.29566e-14
    endloop
  endfacet
  facet normal 0.790155 0.612907 -3.11542e-16
    outer loop
      vertex 51.2361 58.3511 -1.36751e-14
      vertex 51.0821 58.5497 -1.3685e-14
      vertex 51.0821 58.5497 -1.30006e-14
    endloop
  endfacet
  facet normal 0.790155 0.612907 -3.11542e-16
    outer loop
      vertex 51.2361 58.3511 -1.29566e-14
      vertex 51.2361 58.3511 -1.36751e-14
      vertex 51.0821 58.5497 -1.30006e-14
    endloop
  endfacet
  facet normal 0.750111 0.661312 -3.13399e-16
    outer loop
      vertex 51.0821 58.5497 -1.3685e-14
      vertex 50.9159 58.7382 -1.369e-14
      vertex 50.9159 58.7382 -1.30425e-14
    endloop
  endfacet
  facet normal 0.750111 0.661312 -3.13399e-16
    outer loop
      vertex 51.0821 58.5497 -1.30006e-14
      vertex 51.0821 58.5497 -1.3685e-14
      vertex 50.9159 58.7382 -1.30425e-14
    endloop
  endfacet
  facet normal 0.707107 0.707107 -3.14018e-16
    outer loop
      vertex 50.9159 58.7382 -1.369e-14
      vertex 50.7382 58.9159 -1.369e-14
      vertex 50.7382 58.9159 -1.3082e-14
    endloop
  endfacet
  facet normal 0.707107 0.707107 -3.14018e-16
    outer loop
      vertex 50.9159 58.7382 -1.30425e-14
      vertex 50.9159 58.7382 -1.369e-14
      vertex 50.7382 58.9159 -1.3082e-14
    endloop
  endfacet
  facet normal 0.661312 0.750111 -3.13399e-16
    outer loop
      vertex 50.5497 59.0821 -1.3685e-14
      vertex 50.5497 59.0821 -1.31189e-14
      vertex 50.7382 58.9159 -1.369e-14
    endloop
  endfacet
  facet normal 0.661312 0.750111 -3.13399e-16
    outer loop
      vertex 50.7382 58.9159 -1.369e-14
      vertex 50.5497 59.0821 -1.31189e-14
      vertex 50.7382 58.9159 -1.3082e-14
    endloop
  endfacet
  facet normal 0.612907 0.790155 -3.11542e-16
    outer loop
      vertex 50.3511 59.2361 -1.36751e-14
      vertex 50.3511 59.2361 -1.3153e-14
      vertex 50.5497 59.0821 -1.3685e-14
    endloop
  endfacet
  facet normal 0.612907 0.790155 -3.11542e-16
    outer loop
      vertex 50.5497 59.0821 -1.3685e-14
      vertex 50.3511 59.2361 -1.3153e-14
      vertex 50.5497 59.0821 -1.31189e-14
    endloop
  endfacet
  facet normal 0.562084 0.82708 -3.08456e-16
    outer loop
      vertex 50.1433 59.3773 -1.36603e-14
      vertex 50.1433 59.3773 -1.31844e-14
      vertex 50.3511 59.2361 -1.36751e-14
    endloop
  endfacet
  facet normal 0.562084 0.82708 -3.08456e-16
    outer loop
      vertex 50.3511 59.2361 -1.36751e-14
      vertex 50.1433 59.3773 -1.31844e-14
      vertex 50.3511 59.2361 -1.3153e-14
    endloop
  endfacet
  facet normal 0.509042 0.860742 -3.04153e-16
    outer loop
      vertex 49.927 59.5052 -1.36407e-14
      vertex 49.927 59.5052 -1.32128e-14
      vertex 50.1433 59.3773 -1.36603e-14
    endloop
  endfacet
  facet normal 0.509042 0.860742 -3.04153e-16
    outer loop
      vertex 50.1433 59.3773 -1.36603e-14
      vertex 49.927 59.5052 -1.32128e-14
      vertex 50.1433 59.3773 -1.31844e-14
    endloop
  endfacet
  facet normal 0.453988 0.891008 -2.98649e-16
    outer loop
      vertex 49.7031 59.6193 -1.36163e-14
      vertex 49.7031 59.6193 -1.32381e-14
      vertex 49.927 59.5052 -1.36407e-14
    endloop
  endfacet
  facet normal 0.453988 0.891008 -2.98649e-16
    outer loop
      vertex 49.927 59.5052 -1.36407e-14
      vertex 49.7031 59.6193 -1.32381e-14
      vertex 49.927 59.5052 -1.32128e-14
    endloop
  endfacet
  facet normal 0.397149 0.917754 -2.91967e-16
    outer loop
      vertex 49.4725 59.7191 -1.35873e-14
      vertex 49.4725 59.7191 -1.32603e-14
      vertex 49.7031 59.6193 -1.36163e-14
    endloop
  endfacet
  facet normal 0.397149 0.917754 -2.91967e-16
    outer loop
      vertex 49.7031 59.6193 -1.36163e-14
      vertex 49.4725 59.7191 -1.32603e-14
      vertex 49.7031 59.6193 -1.32381e-14
    endloop
  endfacet
  facet normal 0.338738 0.940881 -2.84132e-16
    outer loop
      vertex 49.4725 59.7191 -1.32603e-14
      vertex 49.4725 59.7191 -1.35873e-14
      vertex 49.3568 59.7608 -1.32696e-14
    endloop
  endfacet
  facet normal 0.338738 0.940881 -2.84132e-16
    outer loop
      vertex 49.2361 59.8042 -1.35537e-14
      vertex 49.2361 59.8042 66
      vertex 49.3568 59.7608 -1.32696e-14
    endloop
  endfacet
  facet normal 0.338738 0.940881 -2.84132e-16
    outer loop
      vertex 49.2361 59.8042 -1.35537e-14
      vertex 49.3568 59.7608 -1.32696e-14
      vertex 49.4725 59.7191 -1.35873e-14
    endloop
  endfacet
  facet normal 0.338738 0.940881 -2.84132e-16
    outer loop
      vertex 49.3568 59.7608 -1.32696e-14
      vertex 49.2361 59.8042 66
      vertex 49.3568 59.7608 66
    endloop
  endfacet
  facet normal 0.278993 0.960293 -2.75177e-16
    outer loop
      vertex 48.9948 59.8743 -1.35157e-14
      vertex 48.9948 59.8743 66
      vertex 49.2361 59.8042 -1.35537e-14
    endloop
  endfacet
  facet normal 0.278993 0.960293 -2.75177e-16
    outer loop
      vertex 49.2361 59.8042 -1.35537e-14
      vertex 48.9948 59.8743 66
      vertex 49.2361 59.8042 66
    endloop
  endfacet
  facet normal 0.218141 0.975917 -2.65134e-16
    outer loop
      vertex 48.7495 59.9291 -1.34734e-14
      vertex 48.7495 59.9291 66
      vertex 48.9948 59.8743 -1.35157e-14
    endloop
  endfacet
  facet normal 0.218141 0.975917 -2.65134e-16
    outer loop
      vertex 48.9948 59.8743 -1.35157e-14
      vertex 48.7495 59.9291 66
      vertex 48.9948 59.8743 66
    endloop
  endfacet
  facet normal 0.156435 0.987688 -2.54046e-16
    outer loop
      vertex 48.5013 59.9685 -1.3427e-14
      vertex 48.5013 59.9685 66
      vertex 48.7495 59.9291 -1.34734e-14
    endloop
  endfacet
  facet normal 0.156435 0.987688 -2.54046e-16
    outer loop
      vertex 48.7495 59.9291 -1.34734e-14
      vertex 48.5013 59.9685 66
      vertex 48.7495 59.9291 66
    endloop
  endfacet
  facet normal 0.0941078 0.995562 -2.41955e-16
    outer loop
      vertex 48.2512 59.9921 -1.33767e-14
      vertex 48.2512 59.9921 66
      vertex 48.5013 59.9685 -1.3427e-14
    endloop
  endfacet
  facet normal 0.0941078 0.995562 -2.41955e-16
    outer loop
      vertex 48.5013 59.9685 -1.3427e-14
      vertex 48.2512 59.9921 66
      vertex 48.5013 59.9685 66
    endloop
  endfacet
  facet normal 0.173648 0.984808 -2.18671e-16
    outer loop
      vertex 48 60 66
      vertex 146.481 42.6352 66
      vertex 49.3568 59.7608 66
    endloop
  endfacet
  facet normal 0.173648 0.984808 -2.18671e-16
    outer loop
      vertex 49.3568 59.7608 66
      vertex 146.481 42.6352 66
      vertex 146.481 42.6352 -9.46691e-15
    endloop
  endfacet
  facet normal 0.173648 0.984808 -2.18671e-16
    outer loop
      vertex 49.3568 59.7608 66
      vertex 146.481 42.6352 -9.46691e-15
      vertex 49.3568 59.7608 -1.32696e-14
    endloop
  endfacet
  facet normal 0 2.22045e-16 1
    outer loop
      vertex 48 60 66
      vertex 48 55.9383 66
      vertex 144 39.0109 66
    endloop
  endfacet
  facet normal 0 2.22045e-16 1
    outer loop
      vertex 146.481 42.6352 66
      vertex 48 60 66
      vertex 144 39.0109 66
    endloop
  endfacet
  facet normal 0 2.22045e-16 1
    outer loop
      vertex 144 17.6352 66
      vertex 148 17.6352 66
      vertex 144 39.0109 66
    endloop
  endfacet
  facet normal 0 2.22045e-16 1
    outer loop
      vertex 148 17.6352 66
      vertex 148 42.6352 66
      vertex 144 39.0109 66
    endloop
  endfacet
  facet normal 0 2.22045e-16 1
    outer loop
      vertex 148 42.6352 66
      vertex 146.481 42.6352 66
      vertex 144 39.0109 66
    endloop
  endfacet
  facet normal -0.173648 -0.984808 2.18671e-16
    outer loop
      vertex 144 39.0109 66
      vertex 48 55.9383 66
      vertex 51.9281 55.2457 66
    endloop
  endfacet
  facet normal -0.173648 -0.984808 2.18671e-16
    outer loop
      vertex 51.9281 55.2457 -1.2267e-14
      vertex 144 39.0109 66
      vertex 51.9281 55.2457 66
    endloop
  endfacet
  facet normal -0.173648 -0.984808 2.18671e-16
    outer loop
      vertex 51.9281 55.2457 -1.2267e-14
      vertex 144 39.0109 -8.66216e-15
      vertex 144 39.0109 66
    endloop
  endfacet
  facet normal 0 -2.22045e-16 -1
    outer loop
      vertex 49.3568 59.7608 -1.32696e-14
      vertex 146.481 42.6352 -9.46691e-15
      vertex 49.4725 59.7191 -1.32603e-14
    endloop
  endfacet
  facet normal 0 -2.22045e-16 -1
    outer loop
      vertex 50.1433 59.3773 -1.31844e-14
      vertex 49.927 59.5052 -1.32128e-14
      vertex 144 39.0109 -8.66216e-15
    endloop
  endfacet
  facet normal 0 -2.22045e-16 -1
    outer loop
      vertex 146.481 42.6352 -9.46691e-15
      vertex 148 42.6352 -9.46691e-15
      vertex 148 17.6352 -3.9158e-15
    endloop
  endfacet
  facet normal 0 -2.22045e-16 -1
    outer loop
      vertex 50.3511 59.2361 -1.3153e-14
      vertex 50.1433 59.3773 -1.31844e-14
      vertex 144 39.0109 -8.66216e-15
    endloop
  endfacet
  facet normal 0 -2.22045e-16 -1
    outer loop
      vertex 146.481 42.6352 -9.46691e-15
      vertex 148 17.6352 -3.9158e-15
      vertex 144 39.0109 -8.66216e-15
    endloop
  endfacet
  facet normal 0 -2.22045e-16 -1
    outer loop
      vertex 146.481 42.6352 -9.46691e-15
      vertex 144 39.0109 -8.66216e-15
      vertex 49.4725 59.7191 -1.32603e-14
    endloop
  endfacet
  facet normal 0 -2.22045e-16 -1
    outer loop
      vertex 49.927 59.5052 -1.32128e-14
      vertex 49.7031 59.6193 -1.32381e-14
      vertex 144 39.0109 -8.66216e-15
    endloop
  endfacet
  facet normal 0 -2.22045e-16 -1
    outer loop
      vertex 144 39.0109 -8.66216e-15
      vertex 148 17.6352 -3.9158e-15
      vertex 144 17.6352 -3.9158e-15
    endloop
  endfacet
  facet normal 0 -2.22045e-16 -1
    outer loop
      vertex 49.7031 59.6193 -1.32381e-14
      vertex 49.4725 59.7191 -1.32603e-14
      vertex 144 39.0109 -8.66216e-15
    endloop
  endfacet
  facet normal 0 -2.22045e-16 -1
    outer loop
      vertex 50.5497 59.0821 -1.31189e-14
      vertex 50.3511 59.2361 -1.3153e-14
      vertex 144 39.0109 -8.66216e-15
    endloop
  endfacet
  facet normal 0 -2.22045e-16 -1
    outer loop
      vertex 50.7382 58.9159 -1.3082e-14
      vertex 50.5497 59.0821 -1.31189e-14
      vertex 144 39.0109 -8.66216e-15
    endloop
  endfacet
  facet normal 0 -2.22045e-16 -1
    outer loop
      vertex 50.9159 58.7382 -1.30425e-14
      vertex 50.7382 58.9159 -1.3082e-14
      vertex 144 39.0109 -8.66216e-15
    endloop
  endfacet
  facet normal 0 -2.22045e-16 -1
    outer loop
      vertex 51.0821 58.5497 -1.30006e-14
      vertex 50.9159 58.7382 -1.30425e-14
      vertex 144 39.0109 -8.66216e-15
    endloop
  endfacet
  facet normal 0 -2.22045e-16 -1
    outer loop
      vertex 51.2361 58.3511 -1.29566e-14
      vertex 51.0821 58.5497 -1.30006e-14
      vertex 144 39.0109 -8.66216e-15
    endloop
  endfacet
  facet normal 0 -2.22045e-16 -1
    outer loop
      vertex 51.3773 58.1433 -1.29104e-14
      vertex 51.2361 58.3511 -1.29566e-14
      vertex 144 39.0109 -8.66216e-15
    endloop
  endfacet
  facet normal 0 -2.22045e-16 -1
    outer loop
      vertex 51.5052 57.927 -1.28624e-14
      vertex 51.3773 58.1433 -1.29104e-14
      vertex 144 39.0109 -8.66216e-15
    endloop
  endfacet
  facet normal 0 -2.22045e-16 -1
    outer loop
      vertex 51.6193 57.7031 -1.28127e-14
      vertex 51.5052 57.927 -1.28624e-14
      vertex 144 39.0109 -8.66216e-15
    endloop
  endfacet
  facet normal 0 -2.22045e-16 -1
    outer loop
      vertex 51.7191 57.4725 -1.27615e-14
      vertex 51.6193 57.7031 -1.28127e-14
      vertex 144 39.0109 -8.66216e-15
    endloop
  endfacet
  facet normal 0 -2.22045e-16 -1
    outer loop
      vertex 51.8042 57.2361 -1.2709e-14
      vertex 51.7191 57.4725 -1.27615e-14
      vertex 144 39.0109 -8.66216e-15
    endloop
  endfacet
  facet normal 0 -2.22045e-16 -1
    outer loop
      vertex 51.8743 56.9948 -1.26554e-14
      vertex 51.8042 57.2361 -1.2709e-14
      vertex 144 39.0109 -8.66216e-15
    endloop
  endfacet
  facet normal 0 -2.22045e-16 -1
    outer loop
      vertex 51.9291 56.7495 -1.26009e-14
      vertex 51.8743 56.9948 -1.26554e-14
      vertex 144 39.0109 -8.66216e-15
    endloop
  endfacet
  facet normal 0 -2.22045e-16 -1
    outer loop
      vertex 51.9685 56.5013 -1.25458e-14
      vertex 51.9291 56.7495 -1.26009e-14
      vertex 144 39.0109 -8.66216e-15
    endloop
  endfacet
  facet normal 0 -2.22045e-16 -1
    outer loop
      vertex 51.9921 56.2512 -1.24903e-14
      vertex 51.9685 56.5013 -1.25458e-14
      vertex 144 39.0109 -8.66216e-15
    endloop
  endfacet
  facet normal 0 -2.22045e-16 -1
    outer loop
      vertex 52 56 -1.24345e-14
      vertex 51.9921 56.2512 -1.24903e-14
      vertex 144 39.0109 -8.66216e-15
    endloop
  endfacet
  facet normal 0 -2.22045e-16 -1
    outer loop
      vertex 51.9921 55.7488 -1.23787e-14
      vertex 52 56 -1.24345e-14
      vertex 144 39.0109 -8.66216e-15
    endloop
  endfacet
  facet normal 0 -2.22045e-16 -1
    outer loop
      vertex 51.9685 55.4987 -1.23232e-14
      vertex 51.9921 55.7488 -1.23787e-14
      vertex 144 39.0109 -8.66216e-15
    endloop
  endfacet
  facet normal 0 -2.22045e-16 -1
    outer loop
      vertex 51.9291 55.2505 -1.22681e-14
      vertex 51.9685 55.4987 -1.23232e-14
      vertex 144 39.0109 -8.66216e-15
    endloop
  endfacet
  facet normal 0 -2.22045e-16 -1
    outer loop
      vertex 51.9281 55.2457 -1.2267e-14
      vertex 51.9291 55.2505 -1.22681e-14
      vertex 144 39.0109 -8.66216e-15
    endloop
  endfacet
  facet normal 9.95799e-17 1 -2.22045e-16
    outer loop
      vertex 146.481 42.6352 -9.46691e-15
      vertex 146.481 42.6352 66
      vertex 148 42.6352 -9.46691e-15
    endloop
  endfacet
  facet normal 9.95799e-17 1 -2.22045e-16
    outer loop
      vertex 148 42.6352 -9.46691e-15
      vertex 146.481 42.6352 66
      vertex 148 42.6352 66
    endloop
  endfacet
  facet normal 1 -9.95799e-17 2.21112e-32
    outer loop
      vertex 148 17.6352 66
      vertex 148 17.6352 -3.9158e-15
      vertex 148 42.6352 -9.46691e-15
    endloop
  endfacet
  facet normal 1 -9.95799e-17 2.21112e-32
    outer loop
      vertex 148 42.6352 66
      vertex 148 17.6352 66
      vertex 148 42.6352 -9.46691e-15
    endloop
  endfacet
  facet normal -9.95799e-17 -1 2.22045e-16
    outer loop
      vertex 144 17.6352 66
      vertex 144 17.6352 -3.9158e-15
      vertex 148 17.6352 -3.9158e-15
    endloop
  endfacet
  facet normal -9.95799e-17 -1 2.22045e-16
    outer loop
      vertex 148 17.6352 66
      vertex 144 17.6352 66
      vertex 148 17.6352 -3.9158e-15
    endloop
  endfacet
  facet normal -1 9.95799e-17 -2.21112e-32
    outer loop
      vertex 144 17.6352 -3.9158e-15
      vertex 144 17.6352 66
      vertex 144 39.0109 -8.66216e-15
    endloop
  endfacet
  facet normal -1 9.95799e-17 -2.21112e-32
    outer loop
      vertex 144 39.0109 -8.66216e-15
      vertex 144 17.6352 66
      vertex 144 39.0109 66
    endloop
  endfacet
endsolid OpenSCAD_Model
