solid OpenSCAD_Model
  facet normal -1 0 0
    outer loop
      vertex 0 0 0
      vertex 0 -5 1.11022e-15
      vertex 0 1.46549e-14 66
    endloop
  endfacet
  facet normal -1 0 0
    outer loop
      vertex 0 1.46549e-14 66
      vertex 0 -5 1.11022e-15
      vertex 0 -5 66
    endloop
  endfacet
  facet normal 0 -2.22045e-16 -1
    outer loop
      vertex 0 0 0
      vertex 1.11022e-14 50 -1.11022e-14
      vertex 0 -5 1.11022e-15
    endloop
  endfacet
  facet normal 0 -2.22045e-16 -1
    outer loop
      vertex 0 -5 1.11022e-15
      vertex 1.11022e-14 50 -1.11022e-14
      vertex 5 50 -1.11022e-14
    endloop
  endfacet
  facet normal 0 -2.22045e-16 -1
    outer loop
      vertex 0 -5 1.11022e-15
      vertex 5 50 -1.11022e-14
      vertex 5 0 0
    endloop
  endfacet
  facet normal 0 -2.22045e-16 -1
    outer loop
      vertex 0 -5 1.11022e-15
      vertex 5 0 0
      vertex 55 0 0
    endloop
  endfacet
  facet normal 0 -2.22045e-16 -1
    outer loop
      vertex 0 -5 1.11022e-15
      vertex 55 0 0
      vertex 55 -1.22125e-14 2.71171e-30
    endloop
  endfacet
  facet normal 0 -2.22045e-16 -1
    outer loop
      vertex 55 -1.22125e-14 2.71171e-30
      vertex 55 60 -1.33227e-14
      vertex 60 60 -1.33227e-14
    endloop
  endfacet
  facet normal 0 -2.22045e-16 -1
    outer loop
      vertex 61.916 59.0717 -1.31166e-14
      vertex 60 60 -1.33227e-14
      vertex 158.481 42.6352 -9.46691e-15
    endloop
  endfacet
  facet normal 0 -2.22045e-16 -1
    outer loop
      vertex 155 32.6352 -7.24647e-15
      vertex 160 42.6352 -9.46691e-15
      vertex 160 32.6352 -7.24647e-15
    endloop
  endfacet
  facet normal 0 -2.22045e-16 -1
    outer loop
      vertex 155 38.1718 -8.47584e-15
      vertex 160 42.6352 -9.46691e-15
      vertex 155 32.6352 -7.24647e-15
    endloop
  endfacet
  facet normal 0 -2.22045e-16 -1
    outer loop
      vertex 60 50.5 -1.12133e-14
      vertex 55 -1.22125e-14 2.71171e-30
      vertex 60 59.5 -1.32117e-14
    endloop
  endfacet
  facet normal 0 -2.22045e-16 -1
    outer loop
      vertex 61.6566 59.184 -1.31415e-14
      vertex 60 60 -1.33227e-14
      vertex 61.916 59.0717 -1.31166e-14
    endloop
  endfacet
  facet normal 0 -2.22045e-16 -1
    outer loop
      vertex 64.4174 54.144 -1.20224e-14
      vertex 64.4203 54.1568 -1.20252e-14
      vertex 158.481 42.6352 -9.46691e-15
    endloop
  endfacet
  facet normal 0 -2.22045e-16 -1
    outer loop
      vertex 64.4203 54.1568 -1.20252e-14
      vertex 64.4645 54.436 -1.20872e-14
      vertex 158.481 42.6352 -9.46691e-15
    endloop
  endfacet
  facet normal 0 -2.22045e-16 -1
    outer loop
      vertex 64.4645 54.436 -1.20872e-14
      vertex 64.4911 54.7174 -1.21497e-14
      vertex 158.481 42.6352 -9.46691e-15
    endloop
  endfacet
  facet normal 0 -2.22045e-16 -1
    outer loop
      vertex 64.4911 54.7174 -1.21497e-14
      vertex 64.5 55 -1.22125e-14
      vertex 158.481 42.6352 -9.46691e-15
    endloop
  endfacet
  facet normal 0 -2.22045e-16 -1
    outer loop
      vertex 64.5 55 -1.22125e-14
      vertex 64.4911 55.2826 -1.22752e-14
      vertex 158.481 42.6352 -9.46691e-15
    endloop
  endfacet
  facet normal 0 -2.22045e-16 -1
    outer loop
      vertex 64.4911 55.2826 -1.22752e-14
      vertex 64.4645 55.564 -1.23377e-14
      vertex 158.481 42.6352 -9.46691e-15
    endloop
  endfacet
  facet normal 0 -2.22045e-16 -1
    outer loop
      vertex 60.2826 59.4911 -1.32097e-14
      vertex 60 60 -1.33227e-14
      vertex 60.564 59.4645 -1.32038e-14
    endloop
  endfacet
  facet normal 0 -2.22045e-16 -1
    outer loop
      vertex 64.4645 55.564 -1.23377e-14
      vertex 64.4203 55.8432 -1.23997e-14
      vertex 158.481 42.6352 -9.46691e-15
    endloop
  endfacet
  facet normal 0 -2.22045e-16 -1
    outer loop
      vertex 64.4203 55.8432 -1.23997e-14
      vertex 64.3586 56.1191 -1.24609e-14
      vertex 158.481 42.6352 -9.46691e-15
    endloop
  endfacet
  facet normal 0 -2.22045e-16 -1
    outer loop
      vertex 64.3586 56.1191 -1.24609e-14
      vertex 64.2798 56.3906 -1.25212e-14
      vertex 158.481 42.6352 -9.46691e-15
    endloop
  endfacet
  facet normal 0 -2.22045e-16 -1
    outer loop
      vertex 64.2798 56.3906 -1.25212e-14
      vertex 64.184 56.6566 -1.25803e-14
      vertex 158.481 42.6352 -9.46691e-15
    endloop
  endfacet
  facet normal 0 -2.22045e-16 -1
    outer loop
      vertex 64.184 56.6566 -1.25803e-14
      vertex 64.0717 56.916 -1.26379e-14
      vertex 158.481 42.6352 -9.46691e-15
    endloop
  endfacet
  facet normal 0 -2.22045e-16 -1
    outer loop
      vertex 64.0717 56.916 -1.26379e-14
      vertex 63.9434 57.1679 -1.26938e-14
      vertex 158.481 42.6352 -9.46691e-15
    endloop
  endfacet
  facet normal 0 -2.22045e-16 -1
    outer loop
      vertex 60.564 59.4645 -1.32038e-14
      vertex 60 60 -1.33227e-14
      vertex 60.8432 59.4203 -1.3194e-14
    endloop
  endfacet
  facet normal 0 -2.22045e-16 -1
    outer loop
      vertex 63.9434 57.1679 -1.26938e-14
      vertex 63.7995 57.4112 -1.27479e-14
      vertex 158.481 42.6352 -9.46691e-15
    endloop
  endfacet
  facet normal 0 -2.22045e-16 -1
    outer loop
      vertex 63.7995 57.4112 -1.27479e-14
      vertex 63.6406 57.645 -1.27998e-14
      vertex 158.481 42.6352 -9.46691e-15
    endloop
  endfacet
  facet normal 0 -2.22045e-16 -1
    outer loop
      vertex 63.6406 57.645 -1.27998e-14
      vertex 63.4673 57.8684 -1.28494e-14
      vertex 158.481 42.6352 -9.46691e-15
    endloop
  endfacet
  facet normal 0 -2.22045e-16 -1
    outer loop
      vertex 63.4673 57.8684 -1.28494e-14
      vertex 63.2804 58.0805 -1.28965e-14
      vertex 158.481 42.6352 -9.46691e-15
    endloop
  endfacet
  facet normal 0 -2.22045e-16 -1
    outer loop
      vertex 60.8432 59.4203 -1.3194e-14
      vertex 60 60 -1.33227e-14
      vertex 61.1191 59.3586 -1.31803e-14
    endloop
  endfacet
  facet normal 0 -2.22045e-16 -1
    outer loop
      vertex 63.2804 58.0805 -1.28965e-14
      vertex 63.0805 58.2804 -1.29408e-14
      vertex 158.481 42.6352 -9.46691e-15
    endloop
  endfacet
  facet normal 0 -2.22045e-16 -1
    outer loop
      vertex 63.0805 58.2804 -1.29408e-14
      vertex 62.8684 58.4673 -1.29824e-14
      vertex 158.481 42.6352 -9.46691e-15
    endloop
  endfacet
  facet normal 0 -2.22045e-16 -1
    outer loop
      vertex 61.1191 59.3586 -1.31803e-14
      vertex 60 60 -1.33227e-14
      vertex 61.3906 59.2798 -1.31627e-14
    endloop
  endfacet
  facet normal 0 -2.22045e-16 -1
    outer loop
      vertex 62.8684 58.4673 -1.29824e-14
      vertex 62.645 58.6406 -1.30208e-14
      vertex 158.481 42.6352 -9.46691e-15
    endloop
  endfacet
  facet normal 0 -2.22045e-16 -1
    outer loop
      vertex 62.645 58.6406 -1.30208e-14
      vertex 62.4112 58.7995 -1.30561e-14
      vertex 158.481 42.6352 -9.46691e-15
    endloop
  endfacet
  facet normal 0 -2.22045e-16 -1
    outer loop
      vertex 61.3906 59.2798 -1.31627e-14
      vertex 60 60 -1.33227e-14
      vertex 61.6566 59.184 -1.31415e-14
    endloop
  endfacet
  facet normal 0 -2.22045e-16 -1
    outer loop
      vertex 62.4112 58.7995 -1.30561e-14
      vertex 62.1679 58.9434 -1.30881e-14
      vertex 158.481 42.6352 -9.46691e-15
    endloop
  endfacet
  facet normal 0 -2.22045e-16 -1
    outer loop
      vertex 62.1679 58.9434 -1.30881e-14
      vertex 61.916 59.0717 -1.31166e-14
      vertex 158.481 42.6352 -9.46691e-15
    endloop
  endfacet
  facet normal 0 -2.22045e-16 -1
    outer loop
      vertex 60 59.5 -1.32117e-14
      vertex 60 60 -1.33227e-14
      vertex 60.2826 59.4911 -1.32097e-14
    endloop
  endfacet
  facet normal 0 -2.22045e-16 -1
    outer loop
      vertex 55 -1.22125e-14 2.71171e-30
      vertex 60 60 -1.33227e-14
      vertex 60 59.5 -1.32117e-14
    endloop
  endfacet
  facet normal 0 -2.22045e-16 -1
    outer loop
      vertex 60 -5 1.11022e-15
      vertex 55 -1.22125e-14 2.71171e-30
      vertex 60 50.5 -1.12133e-14
    endloop
  endfacet
  facet normal 0 -2.22045e-16 -1
    outer loop
      vertex 55 -1.22125e-14 2.71171e-30
      vertex 60 -5 1.11022e-15
      vertex 55 -5 1.11022e-15
    endloop
  endfacet
  facet normal 0 -2.22045e-16 -1
    outer loop
      vertex 55 -1.22125e-14 2.71171e-30
      vertex 55 -5 1.11022e-15
      vertex 0 -5 1.11022e-15
    endloop
  endfacet
  facet normal 0 -2.22045e-16 -1
    outer loop
      vertex 158.481 42.6352 -9.46691e-15
      vertex 160 42.6352 -9.46691e-15
      vertex 155 38.1718 -8.47584e-15
    endloop
  endfacet
  facet normal 0 -2.22045e-16 -1
    outer loop
      vertex 64.4174 54.144 -1.20224e-14
      vertex 158.481 42.6352 -9.46691e-15
      vertex 155 38.1718 -8.47584e-15
    endloop
  endfacet
  facet normal -1 2.22045e-16 -4.93038e-32
    outer loop
      vertex 0 0 0
      vertex 0 1.46549e-14 66
      vertex 1.11022e-14 50 -1.11022e-14
    endloop
  endfacet
  facet normal -1 2.22045e-16 -4.93038e-32
    outer loop
      vertex 1.11022e-14 50 -1.11022e-14
      vertex 0 1.46549e-14 66
      vertex 1.11022e-14 50 66
    endloop
  endfacet
  facet normal 0 2.22045e-16 1
    outer loop
      vertex 1.11022e-14 50 66
      vertex 0 1.46549e-14 66
      vertex 0 -5 66
    endloop
  endfacet
  facet normal 0 2.22045e-16 1
    outer loop
      vertex 5 1.46549e-14 66
      vertex 5 50 66
      vertex 1.11022e-14 50 66
    endloop
  endfacet
  facet normal 0 2.22045e-16 1
    outer loop
      vertex 5 1.46549e-14 66
      vertex 1.11022e-14 50 66
      vertex 0 -5 66
    endloop
  endfacet
  facet normal 0 2.22045e-16 1
    outer loop
      vertex 55 1.46549e-14 66
      vertex 5 1.46549e-14 66
      vertex 55 -5 66
    endloop
  endfacet
  facet normal 0 2.22045e-16 1
    outer loop
      vertex 60 60 66
      vertex 59.1568 59.4203 66
      vertex 59.436 59.4645 66
    endloop
  endfacet
  facet normal 0 2.22045e-16 1
    outer loop
      vertex 60 60 66
      vertex 59.436 59.4645 66
      vertex 59.7174 59.4911 66
    endloop
  endfacet
  facet normal 0 2.22045e-16 1
    outer loop
      vertex 60 60 66
      vertex 59.7174 59.4911 66
      vertex 60 59.5 66
    endloop
  endfacet
  facet normal 0 2.22045e-16 1
    outer loop
      vertex 155 38.1718 66
      vertex 60 59.5 66
      vertex 60 54.9229 66
    endloop
  endfacet
  facet normal 0 2.22045e-16 1
    outer loop
      vertex 158.481 42.6352 66
      vertex 60 59.5 66
      vertex 155 38.1718 66
    endloop
  endfacet
  facet normal 0 2.22045e-16 1
    outer loop
      vertex 160 32.6352 66
      vertex 155 38.1718 66
      vertex 155 32.6352 66
    endloop
  endfacet
  facet normal 0 2.22045e-16 1
    outer loop
      vertex 160 42.6352 66
      vertex 155 38.1718 66
      vertex 160 32.6352 66
    endloop
  endfacet
  facet normal 0 2.22045e-16 1
    outer loop
      vertex 160 42.6352 66
      vertex 158.481 42.6352 66
      vertex 155 38.1718 66
    endloop
  endfacet
  facet normal 0 2.22045e-16 1
    outer loop
      vertex 60 50.5 66
      vertex 55 2.44249e-15 66
      vertex 60 -5 66
    endloop
  endfacet
  facet normal 0 2.22045e-16 1
    outer loop
      vertex 55 -5 66
      vertex 5 1.46549e-14 66
      vertex 0 -5 66
    endloop
  endfacet
  facet normal 0 2.22045e-16 1
    outer loop
      vertex 55 2.44249e-15 66
      vertex 55 -5 66
      vertex 60 -5 66
    endloop
  endfacet
  facet normal 0 2.22045e-16 1
    outer loop
      vertex 55 1.46549e-14 66
      vertex 55 -5 66
      vertex 55 2.44249e-15 66
    endloop
  endfacet
  facet normal 0 2.22045e-16 1
    outer loop
      vertex 158.481 42.6352 66
      vertex 60 60 66
      vertex 60 59.5 66
    endloop
  endfacet
  facet normal 0 2.22045e-16 1
    outer loop
      vertex 55 60 66
      vertex 59.1568 59.4203 66
      vertex 60 60 66
    endloop
  endfacet
  facet normal 0 2.22045e-16 1
    outer loop
      vertex 55 60 66
      vertex 58.8809 59.3586 66
      vertex 59.1568 59.4203 66
    endloop
  endfacet
  facet normal 0 2.22045e-16 1
    outer loop
      vertex 55 60 66
      vertex 58.6094 59.2798 66
      vertex 58.8809 59.3586 66
    endloop
  endfacet
  facet normal 0 2.22045e-16 1
    outer loop
      vertex 55 60 66
      vertex 58.3434 59.184 66
      vertex 58.6094 59.2798 66
    endloop
  endfacet
  facet normal 0 2.22045e-16 1
    outer loop
      vertex 55 60 66
      vertex 58.084 59.0717 66
      vertex 58.3434 59.184 66
    endloop
  endfacet
  facet normal 0 2.22045e-16 1
    outer loop
      vertex 55 60 66
      vertex 57.8321 58.9434 66
      vertex 58.084 59.0717 66
    endloop
  endfacet
  facet normal 0 2.22045e-16 1
    outer loop
      vertex 55 60 66
      vertex 57.5888 58.7995 66
      vertex 57.8321 58.9434 66
    endloop
  endfacet
  facet normal 0 2.22045e-16 1
    outer loop
      vertex 55 60 66
      vertex 57.355 58.6406 66
      vertex 57.5888 58.7995 66
    endloop
  endfacet
  facet normal 0 2.22045e-16 1
    outer loop
      vertex 55 60 66
      vertex 57.1316 58.4673 66
      vertex 57.355 58.6406 66
    endloop
  endfacet
  facet normal 0 2.22045e-16 1
    outer loop
      vertex 55 60 66
      vertex 56.9195 58.2804 66
      vertex 57.1316 58.4673 66
    endloop
  endfacet
  facet normal 0 2.22045e-16 1
    outer loop
      vertex 55 60 66
      vertex 56.7196 58.0805 66
      vertex 56.9195 58.2804 66
    endloop
  endfacet
  facet normal 0 2.22045e-16 1
    outer loop
      vertex 55 60 66
      vertex 56.5327 57.8684 66
      vertex 56.7196 58.0805 66
    endloop
  endfacet
  facet normal 0 2.22045e-16 1
    outer loop
      vertex 55 60 66
      vertex 56.3594 57.645 66
      vertex 56.5327 57.8684 66
    endloop
  endfacet
  facet normal 0 2.22045e-16 1
    outer loop
      vertex 55 60 66
      vertex 56.2005 57.4112 66
      vertex 56.3594 57.645 66
    endloop
  endfacet
  facet normal 0 2.22045e-16 1
    outer loop
      vertex 55 60 66
      vertex 56.0566 57.1679 66
      vertex 56.2005 57.4112 66
    endloop
  endfacet
  facet normal 0 2.22045e-16 1
    outer loop
      vertex 55 60 66
      vertex 55.9283 56.916 66
      vertex 56.0566 57.1679 66
    endloop
  endfacet
  facet normal 0 2.22045e-16 1
    outer loop
      vertex 55 60 66
      vertex 55.816 56.6566 66
      vertex 55.9283 56.916 66
    endloop
  endfacet
  facet normal 0 2.22045e-16 1
    outer loop
      vertex 55 60 66
      vertex 55.7202 56.3906 66
      vertex 55.816 56.6566 66
    endloop
  endfacet
  facet normal 0 2.22045e-16 1
    outer loop
      vertex 55 60 66
      vertex 55.6414 56.1191 66
      vertex 55.7202 56.3906 66
    endloop
  endfacet
  facet normal 0 2.22045e-16 1
    outer loop
      vertex 55 60 66
      vertex 55.5797 55.8432 66
      vertex 55.6414 56.1191 66
    endloop
  endfacet
  facet normal 0 2.22045e-16 1
    outer loop
      vertex 55 60 66
      vertex 55.5355 55.564 66
      vertex 55.5797 55.8432 66
    endloop
  endfacet
  facet normal 0 2.22045e-16 1
    outer loop
      vertex 55 60 66
      vertex 55.5089 55.2826 66
      vertex 55.5355 55.564 66
    endloop
  endfacet
  facet normal 0 2.22045e-16 1
    outer loop
      vertex 55 60 66
      vertex 55.5 55 66
      vertex 55.5089 55.2826 66
    endloop
  endfacet
  facet normal 0 2.22045e-16 1
    outer loop
      vertex 55 60 66
      vertex 55.5089 54.7174 66
      vertex 55.5 55 66
    endloop
  endfacet
  facet normal 0 2.22045e-16 1
    outer loop
      vertex 55 60 66
      vertex 55.5355 54.436 66
      vertex 55.5089 54.7174 66
    endloop
  endfacet
  facet normal 0 2.22045e-16 1
    outer loop
      vertex 59.7174 50.5089 66
      vertex 55 2.44249e-15 66
      vertex 60 50.5 66
    endloop
  endfacet
  facet normal 0 2.22045e-16 1
    outer loop
      vertex 59.436 50.5355 66
      vertex 55 2.44249e-15 66
      vertex 59.7174 50.5089 66
    endloop
  endfacet
  facet normal 0 2.22045e-16 1
    outer loop
      vertex 59.1568 50.5797 66
      vertex 55 2.44249e-15 66
      vertex 59.436 50.5355 66
    endloop
  endfacet
  facet normal 0 2.22045e-16 1
    outer loop
      vertex 58.8809 50.6414 66
      vertex 55 2.44249e-15 66
      vertex 59.1568 50.5797 66
    endloop
  endfacet
  facet normal 0 2.22045e-16 1
    outer loop
      vertex 58.6094 50.7202 66
      vertex 55 2.44249e-15 66
      vertex 58.8809 50.6414 66
    endloop
  endfacet
  facet normal 0 2.22045e-16 1
    outer loop
      vertex 58.3434 50.816 66
      vertex 55 2.44249e-15 66
      vertex 58.6094 50.7202 66
    endloop
  endfacet
  facet normal 0 2.22045e-16 1
    outer loop
      vertex 58.084 50.9283 66
      vertex 55 2.44249e-15 66
      vertex 58.3434 50.816 66
    endloop
  endfacet
  facet normal 0 2.22045e-16 1
    outer loop
      vertex 57.8321 51.0566 66
      vertex 55 2.44249e-15 66
      vertex 58.084 50.9283 66
    endloop
  endfacet
  facet normal 0 2.22045e-16 1
    outer loop
      vertex 57.5888 51.2005 66
      vertex 55 2.44249e-15 66
      vertex 57.8321 51.0566 66
    endloop
  endfacet
  facet normal 0 2.22045e-16 1
    outer loop
      vertex 57.355 51.3594 66
      vertex 55 2.44249e-15 66
      vertex 57.5888 51.2005 66
    endloop
  endfacet
  facet normal 0 2.22045e-16 1
    outer loop
      vertex 57.1316 51.5327 66
      vertex 55 2.44249e-15 66
      vertex 57.355 51.3594 66
    endloop
  endfacet
  facet normal 0 2.22045e-16 1
    outer loop
      vertex 56.9195 51.7196 66
      vertex 55 2.44249e-15 66
      vertex 57.1316 51.5327 66
    endloop
  endfacet
  facet normal 0 2.22045e-16 1
    outer loop
      vertex 56.7196 51.9195 66
      vertex 55 2.44249e-15 66
      vertex 56.9195 51.7196 66
    endloop
  endfacet
  facet normal 0 2.22045e-16 1
    outer loop
      vertex 56.5327 52.1316 66
      vertex 55 2.44249e-15 66
      vertex 56.7196 51.9195 66
    endloop
  endfacet
  facet normal 0 2.22045e-16 1
    outer loop
      vertex 56.3594 52.355 66
      vertex 55 2.44249e-15 66
      vertex 56.5327 52.1316 66
    endloop
  endfacet
  facet normal 0 2.22045e-16 1
    outer loop
      vertex 56.2005 52.5888 66
      vertex 55 2.44249e-15 66
      vertex 56.3594 52.355 66
    endloop
  endfacet
  facet normal 0 2.22045e-16 1
    outer loop
      vertex 56.0566 52.8321 66
      vertex 55 2.44249e-15 66
      vertex 56.2005 52.5888 66
    endloop
  endfacet
  facet normal 0 2.22045e-16 1
    outer loop
      vertex 55.9283 53.084 66
      vertex 55 2.44249e-15 66
      vertex 56.0566 52.8321 66
    endloop
  endfacet
  facet normal 0 2.22045e-16 1
    outer loop
      vertex 55.816 53.3434 66
      vertex 55 2.44249e-15 66
      vertex 55.9283 53.084 66
    endloop
  endfacet
  facet normal 0 2.22045e-16 1
    outer loop
      vertex 55.7202 53.6094 66
      vertex 55 2.44249e-15 66
      vertex 55.816 53.3434 66
    endloop
  endfacet
  facet normal 0 2.22045e-16 1
    outer loop
      vertex 55.6414 53.8809 66
      vertex 55 2.44249e-15 66
      vertex 55.7202 53.6094 66
    endloop
  endfacet
  facet normal 0 2.22045e-16 1
    outer loop
      vertex 55.5797 54.1568 66
      vertex 55 2.44249e-15 66
      vertex 55.6414 53.8809 66
    endloop
  endfacet
  facet normal 0 2.22045e-16 1
    outer loop
      vertex 55.5355 54.436 66
      vertex 55 2.44249e-15 66
      vertex 55.5797 54.1568 66
    endloop
  endfacet
  facet normal 0 2.22045e-16 1
    outer loop
      vertex 55 60 66
      vertex 55 2.44249e-15 66
      vertex 55.5355 54.436 66
    endloop
  endfacet
  facet normal 0 -1 2.22045e-16
    outer loop
      vertex 0 -5 66
      vertex 0 -5 1.11022e-15
      vertex 55 -5 1.11022e-15
    endloop
  endfacet
  facet normal 0 -1 2.22045e-16
    outer loop
      vertex 55 -5 66
      vertex 0 -5 66
      vertex 55 -5 1.11022e-15
    endloop
  endfacet
  facet normal -2.22045e-16 -1 2.22045e-16
    outer loop
      vertex 55 -5 66
      vertex 55 -5 1.11022e-15
      vertex 60 -5 1.11022e-15
    endloop
  endfacet
  facet normal -2.22045e-16 -1 2.22045e-16
    outer loop
      vertex 60 -5 66
      vertex 55 -5 66
      vertex 60 -5 1.11022e-15
    endloop
  endfacet
  facet normal 1 -2.22045e-16 4.93038e-32
    outer loop
      vertex 60 -5 66
      vertex 60 -5 1.11022e-15
      vertex 60 50.5 -1.12133e-14
    endloop
  endfacet
  facet normal 1 -2.22045e-16 4.93038e-32
    outer loop
      vertex 60 50.5 66
      vertex 60 -5 66
      vertex 60 50.5 -1.12133e-14
    endloop
  endfacet
  facet normal 0.0314118 -0.999507 2.1496e-16
    outer loop
      vertex 60 50.5 66
      vertex 60 50.5 -1.12133e-14
      vertex 60.2826 50.5089 -1.1278e-14
    endloop
  endfacet
  facet normal 0.0314118 -0.999507 2.1496e-16
    outer loop
      vertex 60.2826 50.5089 66
      vertex 60 50.5 66
      vertex 60.2826 50.5089 -1.1278e-14
    endloop
  endfacet
  facet normal -2.22045e-16 -2.22045e-16 -1
    outer loop
      vertex 60 50.5 -1.12133e-14
      vertex 60 59.5 -1.32117e-14
      vertex 60.2826 50.5089 -1.1278e-14
    endloop
  endfacet
  facet normal -2.22045e-16 -2.22045e-16 -1
    outer loop
      vertex 60.2826 50.5089 -1.1278e-14
      vertex 60 59.5 -1.32117e-14
      vertex 60.2826 59.4911 -1.32724e-14
    endloop
  endfacet
  facet normal -2.22045e-16 -2.22045e-16 -1
    outer loop
      vertex 60.2826 50.5089 -1.1278e-14
      vertex 60.2826 59.4911 -1.32724e-14
      vertex 60.564 59.4645 -1.3329e-14
    endloop
  endfacet
  facet normal -2.22045e-16 -2.22045e-16 -1
    outer loop
      vertex 60.2826 50.5089 -1.1278e-14
      vertex 60.564 59.4645 -1.3329e-14
      vertex 60.8432 59.4203 -1.33812e-14
    endloop
  endfacet
  facet normal -2.22045e-16 -2.22045e-16 -1
    outer loop
      vertex 60.2826 50.5089 -1.1278e-14
      vertex 60.8432 59.4203 -1.33812e-14
      vertex 61.1191 59.3586 -1.34288e-14
    endloop
  endfacet
  facet normal -2.22045e-16 -2.22045e-16 -1
    outer loop
      vertex 60.2826 50.5089 -1.1278e-14
      vertex 61.1191 59.3586 -1.34288e-14
      vertex 61.3906 59.2798 -1.34715e-14
    endloop
  endfacet
  facet normal -2.22045e-16 -2.22045e-16 -1
    outer loop
      vertex 60.2826 50.5089 -1.1278e-14
      vertex 61.3906 59.2798 -1.34715e-14
      vertex 61.6566 59.184 -1.35093e-14
    endloop
  endfacet
  facet normal -2.22045e-16 -2.22045e-16 -1
    outer loop
      vertex 60.2826 50.5089 -1.1278e-14
      vertex 61.6566 59.184 -1.35093e-14
      vertex 61.916 59.0717 -1.3542e-14
    endloop
  endfacet
  facet normal -2.22045e-16 -2.22045e-16 -1
    outer loop
      vertex 60.2826 50.5089 -1.1278e-14
      vertex 61.916 59.0717 -1.3542e-14
      vertex 62.1679 58.9434 -1.35694e-14
    endloop
  endfacet
  facet normal -2.22045e-16 -2.22045e-16 -1
    outer loop
      vertex 60.2826 50.5089 -1.1278e-14
      vertex 62.1679 58.9434 -1.35694e-14
      vertex 62.4112 58.7995 -1.35915e-14
    endloop
  endfacet
  facet normal -2.22045e-16 -2.22045e-16 -1
    outer loop
      vertex 60.2826 50.5089 -1.1278e-14
      vertex 62.4112 58.7995 -1.35915e-14
      vertex 62.645 58.6406 -1.36081e-14
    endloop
  endfacet
  facet normal -2.22045e-16 -2.22045e-16 -1
    outer loop
      vertex 60.2826 50.5089 -1.1278e-14
      vertex 62.645 58.6406 -1.36081e-14
      vertex 62.8684 58.4673 -1.36193e-14
    endloop
  endfacet
  facet normal -2.22045e-16 -2.22045e-16 -1
    outer loop
      vertex 60.2826 50.5089 -1.1278e-14
      vertex 62.8684 58.4673 -1.36193e-14
      vertex 63.0805 58.2804 -1.36248e-14
    endloop
  endfacet
  facet normal -2.22045e-16 -2.22045e-16 -1
    outer loop
      vertex 60.2826 50.5089 -1.1278e-14
      vertex 63.0805 58.2804 -1.36248e-14
      vertex 63.2804 58.0805 -1.36248e-14
    endloop
  endfacet
  facet normal -2.22045e-16 -2.22045e-16 -1
    outer loop
      vertex 60.2826 50.5089 -1.1278e-14
      vertex 63.2804 58.0805 -1.36248e-14
      vertex 63.4673 57.8684 -1.36193e-14
    endloop
  endfacet
  facet normal -2.22045e-16 -2.22045e-16 -1
    outer loop
      vertex 60.2826 50.5089 -1.1278e-14
      vertex 63.4673 57.8684 -1.36193e-14
      vertex 63.6406 57.645 -1.36081e-14
    endloop
  endfacet
  facet normal -2.22045e-16 -2.22045e-16 -1
    outer loop
      vertex 60.2826 50.5089 -1.1278e-14
      vertex 63.6406 57.645 -1.36081e-14
      vertex 63.7995 57.4112 -1.35915e-14
    endloop
  endfacet
  facet normal -2.22045e-16 -2.22045e-16 -1
    outer loop
      vertex 60.2826 50.5089 -1.1278e-14
      vertex 63.7995 57.4112 -1.35915e-14
      vertex 63.9434 57.1679 -1.35694e-14
    endloop
  endfacet
  facet normal -2.22045e-16 -2.22045e-16 -1
    outer loop
      vertex 60.2826 50.5089 -1.1278e-14
      vertex 63.9434 57.1679 -1.35694e-14
      vertex 64.0717 56.916 -1.3542e-14
    endloop
  endfacet
  facet normal -2.22045e-16 -2.22045e-16 -1
    outer loop
      vertex 60.2826 50.5089 -1.1278e-14
      vertex 64.0717 56.916 -1.3542e-14
      vertex 64.184 56.6566 -1.35093e-14
    endloop
  endfacet
  facet normal -2.22045e-16 -2.22045e-16 -1
    outer loop
      vertex 60.2826 50.5089 -1.1278e-14
      vertex 64.184 56.6566 -1.35093e-14
      vertex 64.2798 56.3906 -1.34715e-14
    endloop
  endfacet
  facet normal -2.22045e-16 -2.22045e-16 -1
    outer loop
      vertex 60.2826 50.5089 -1.1278e-14
      vertex 64.2798 56.3906 -1.34715e-14
      vertex 64.3586 56.1191 -1.34288e-14
    endloop
  endfacet
  facet normal -2.22045e-16 -2.22045e-16 -1
    outer loop
      vertex 60.2826 50.5089 -1.1278e-14
      vertex 64.3586 56.1191 -1.34288e-14
      vertex 64.4203 55.8432 -1.33812e-14
    endloop
  endfacet
  facet normal -2.22045e-16 -2.22045e-16 -1
    outer loop
      vertex 60.2826 50.5089 -1.1278e-14
      vertex 64.4203 55.8432 -1.33812e-14
      vertex 64.4645 55.564 -1.3329e-14
    endloop
  endfacet
  facet normal -2.22045e-16 -2.22045e-16 -1
    outer loop
      vertex 60.2826 50.5089 -1.1278e-14
      vertex 64.4645 55.564 -1.3329e-14
      vertex 64.4911 55.2826 -1.32724e-14
    endloop
  endfacet
  facet normal -2.22045e-16 -2.22045e-16 -1
    outer loop
      vertex 60.2826 50.5089 -1.1278e-14
      vertex 64.4911 55.2826 -1.32724e-14
      vertex 64.5 55 -1.32117e-14
    endloop
  endfacet
  facet normal -2.22045e-16 -2.22045e-16 -1
    outer loop
      vertex 60.2826 50.5089 -1.1278e-14
      vertex 64.5 55 -1.32117e-14
      vertex 64.4911 54.7174 -1.31469e-14
    endloop
  endfacet
  facet normal -2.22045e-16 -2.22045e-16 -1
    outer loop
      vertex 60.2826 50.5089 -1.1278e-14
      vertex 64.4911 54.7174 -1.31469e-14
      vertex 64.4645 54.436 -1.30785e-14
    endloop
  endfacet
  facet normal -2.22045e-16 -2.22045e-16 -1
    outer loop
      vertex 60.2826 50.5089 -1.1278e-14
      vertex 64.4645 54.436 -1.30785e-14
      vertex 64.4203 54.1568 -1.30067e-14
    endloop
  endfacet
  facet normal -2.22045e-16 -2.22045e-16 -1
    outer loop
      vertex 60.2826 50.5089 -1.1278e-14
      vertex 64.4203 54.1568 -1.30067e-14
      vertex 64.3586 53.8809 -1.29318e-14
    endloop
  endfacet
  facet normal -2.22045e-16 -2.22045e-16 -1
    outer loop
      vertex 60.2826 50.5089 -1.1278e-14
      vertex 64.3586 53.8809 -1.29318e-14
      vertex 64.2798 53.6094 -1.2854e-14
    endloop
  endfacet
  facet normal -2.22045e-16 -2.22045e-16 -1
    outer loop
      vertex 60.2826 50.5089 -1.1278e-14
      vertex 64.2798 53.6094 -1.2854e-14
      vertex 64.184 53.3434 -1.27737e-14
    endloop
  endfacet
  facet normal -2.22045e-16 -2.22045e-16 -1
    outer loop
      vertex 60.2826 50.5089 -1.1278e-14
      vertex 64.184 53.3434 -1.27737e-14
      vertex 64.0717 53.084 -1.26911e-14
    endloop
  endfacet
  facet normal -2.22045e-16 -2.22045e-16 -1
    outer loop
      vertex 60.2826 50.5089 -1.1278e-14
      vertex 64.0717 53.084 -1.26911e-14
      vertex 63.9434 52.8321 -1.26067e-14
    endloop
  endfacet
  facet normal -2.22045e-16 -2.22045e-16 -1
    outer loop
      vertex 60.2826 50.5089 -1.1278e-14
      vertex 63.9434 52.8321 -1.26067e-14
      vertex 63.7995 52.5888 -1.25207e-14
    endloop
  endfacet
  facet normal -2.22045e-16 -2.22045e-16 -1
    outer loop
      vertex 60.2826 50.5089 -1.1278e-14
      vertex 63.7995 52.5888 -1.25207e-14
      vertex 63.6406 52.355 -1.24335e-14
    endloop
  endfacet
  facet normal -2.22045e-16 -2.22045e-16 -1
    outer loop
      vertex 60.2826 50.5089 -1.1278e-14
      vertex 63.6406 52.355 -1.24335e-14
      vertex 63.4673 52.1316 -1.23454e-14
    endloop
  endfacet
  facet normal -2.22045e-16 -2.22045e-16 -1
    outer loop
      vertex 60.2826 50.5089 -1.1278e-14
      vertex 63.4673 52.1316 -1.23454e-14
      vertex 63.2804 51.9195 -1.22568e-14
    endloop
  endfacet
  facet normal -2.22045e-16 -2.22045e-16 -1
    outer loop
      vertex 60.2826 50.5089 -1.1278e-14
      vertex 63.2804 51.9195 -1.22568e-14
      vertex 63.0805 51.7196 -1.21681e-14
    endloop
  endfacet
  facet normal -2.22045e-16 -2.22045e-16 -1
    outer loop
      vertex 60.2826 50.5089 -1.1278e-14
      vertex 63.0805 51.7196 -1.21681e-14
      vertex 62.8684 51.5327 -1.20795e-14
    endloop
  endfacet
  facet normal -2.22045e-16 -2.22045e-16 -1
    outer loop
      vertex 60.2826 50.5089 -1.1278e-14
      vertex 62.8684 51.5327 -1.20795e-14
      vertex 62.645 51.3594 -1.19914e-14
    endloop
  endfacet
  facet normal -2.22045e-16 -2.22045e-16 -1
    outer loop
      vertex 60.2826 50.5089 -1.1278e-14
      vertex 62.645 51.3594 -1.19914e-14
      vertex 62.4112 51.2005 -1.19042e-14
    endloop
  endfacet
  facet normal -2.22045e-16 -2.22045e-16 -1
    outer loop
      vertex 60.2826 50.5089 -1.1278e-14
      vertex 62.4112 51.2005 -1.19042e-14
      vertex 62.1679 51.0566 -1.18182e-14
    endloop
  endfacet
  facet normal -2.22045e-16 -2.22045e-16 -1
    outer loop
      vertex 60.2826 50.5089 -1.1278e-14
      vertex 62.1679 51.0566 -1.18182e-14
      vertex 61.916 50.9283 -1.17338e-14
    endloop
  endfacet
  facet normal -2.22045e-16 -2.22045e-16 -1
    outer loop
      vertex 60.2826 50.5089 -1.1278e-14
      vertex 61.916 50.9283 -1.17338e-14
      vertex 61.6566 50.816 -1.16513e-14
    endloop
  endfacet
  facet normal -2.22045e-16 -2.22045e-16 -1
    outer loop
      vertex 60.2826 50.5089 -1.1278e-14
      vertex 61.6566 50.816 -1.16513e-14
      vertex 61.3906 50.7202 -1.15709e-14
    endloop
  endfacet
  facet normal -2.22045e-16 -2.22045e-16 -1
    outer loop
      vertex 60.2826 50.5089 -1.1278e-14
      vertex 61.3906 50.7202 -1.15709e-14
      vertex 61.1191 50.6414 -1.14931e-14
    endloop
  endfacet
  facet normal -2.22045e-16 -2.22045e-16 -1
    outer loop
      vertex 60.2826 50.5089 -1.1278e-14
      vertex 61.1191 50.6414 -1.14931e-14
      vertex 60.8432 50.5797 -1.14182e-14
    endloop
  endfacet
  facet normal -2.22045e-16 -2.22045e-16 -1
    outer loop
      vertex 60.2826 50.5089 -1.1278e-14
      vertex 60.8432 50.5797 -1.14182e-14
      vertex 60.564 50.5355 -1.13464e-14
    endloop
  endfacet
  facet normal 0.0314118 0.999507 -2.2891e-16
    outer loop
      vertex 60.2826 59.4911 -1.32724e-14
      vertex 60 59.5 -1.32117e-14
      vertex 60.2826 59.4911 -1.32097e-14
    endloop
  endfacet
  facet normal 0.0941076 0.995562 -2.41955e-16
    outer loop
      vertex 60.2826 59.4911 -1.32724e-14
      vertex 60.2826 59.4911 -1.32097e-14
      vertex 60.564 59.4645 -1.3329e-14
    endloop
  endfacet
  facet normal 0.0941076 0.995562 -2.41955e-16
    outer loop
      vertex 60.564 59.4645 -1.3329e-14
      vertex 60.2826 59.4911 -1.32097e-14
      vertex 60.564 59.4645 -1.32038e-14
    endloop
  endfacet
  facet normal 0.156433 0.987689 -2.54046e-16
    outer loop
      vertex 60.564 59.4645 -1.3329e-14
      vertex 60.564 59.4645 -1.32038e-14
      vertex 60.8432 59.4203 -1.33812e-14
    endloop
  endfacet
  facet normal 0.156433 0.987689 -2.54046e-16
    outer loop
      vertex 60.8432 59.4203 -1.33812e-14
      vertex 60.564 59.4645 -1.32038e-14
      vertex 60.8432 59.4203 -1.3194e-14
    endloop
  endfacet
  facet normal 0.218146 0.975916 -2.65135e-16
    outer loop
      vertex 60.8432 59.4203 -1.33812e-14
      vertex 60.8432 59.4203 -1.3194e-14
      vertex 61.1191 59.3586 -1.34288e-14
    endloop
  endfacet
  facet normal 0.218146 0.975916 -2.65135e-16
    outer loop
      vertex 61.1191 59.3586 -1.34288e-14
      vertex 60.8432 59.4203 -1.3194e-14
      vertex 61.1191 59.3586 -1.31803e-14
    endloop
  endfacet
  facet normal 0.278991 0.960294 -2.75177e-16
    outer loop
      vertex 61.1191 59.3586 -1.34288e-14
      vertex 61.1191 59.3586 -1.31803e-14
      vertex 61.3906 59.2798 -1.34715e-14
    endloop
  endfacet
  facet normal 0.278991 0.960294 -2.75177e-16
    outer loop
      vertex 61.3906 59.2798 -1.34715e-14
      vertex 61.1191 59.3586 -1.31803e-14
      vertex 61.3906 59.2798 -1.31627e-14
    endloop
  endfacet
  facet normal 0.338738 0.940881 -2.84132e-16
    outer loop
      vertex 61.3906 59.2798 -1.34715e-14
      vertex 61.3906 59.2798 -1.31627e-14
      vertex 61.6566 59.184 -1.35093e-14
    endloop
  endfacet
  facet normal 0.338738 0.940881 -2.84132e-16
    outer loop
      vertex 61.6566 59.184 -1.35093e-14
      vertex 61.3906 59.2798 -1.31627e-14
      vertex 61.6566 59.184 -1.31415e-14
    endloop
  endfacet
  facet normal 0.397146 0.917756 -2.91967e-16
    outer loop
      vertex 61.6566 59.184 -1.35093e-14
      vertex 61.6566 59.184 -1.31415e-14
      vertex 61.916 59.0717 -1.3542e-14
    endloop
  endfacet
  facet normal 0.397146 0.917756 -2.91967e-16
    outer loop
      vertex 61.916 59.0717 -1.3542e-14
      vertex 61.6566 59.184 -1.31415e-14
      vertex 61.916 59.0717 -1.31166e-14
    endloop
  endfacet
  facet normal 0.453991 0.891006 -2.98649e-16
    outer loop
      vertex 61.916 59.0717 -1.3542e-14
      vertex 61.916 59.0717 -1.31166e-14
      vertex 62.1679 58.9434 -1.35694e-14
    endloop
  endfacet
  facet normal 0.453991 0.891006 -2.98649e-16
    outer loop
      vertex 62.1679 58.9434 -1.35694e-14
      vertex 61.916 59.0717 -1.31166e-14
      vertex 62.1679 58.9434 -1.30881e-14
    endloop
  endfacet
  facet normal 0.50904 0.860743 -3.04153e-16
    outer loop
      vertex 62.1679 58.9434 -1.35694e-14
      vertex 62.1679 58.9434 -1.30881e-14
      vertex 62.4112 58.7995 -1.35915e-14
    endloop
  endfacet
  facet normal 0.50904 0.860743 -3.04153e-16
    outer loop
      vertex 62.4112 58.7995 -1.35915e-14
      vertex 62.1679 58.9434 -1.30881e-14
      vertex 62.4112 58.7995 -1.30561e-14
    endloop
  endfacet
  facet normal 0.562085 0.827079 -3.08457e-16
    outer loop
      vertex 62.4112 58.7995 -1.35915e-14
      vertex 62.4112 58.7995 -1.30561e-14
      vertex 62.645 58.6406 -1.36081e-14
    endloop
  endfacet
  facet normal 0.562085 0.827079 -3.08457e-16
    outer loop
      vertex 62.645 58.6406 -1.36081e-14
      vertex 62.4112 58.7995 -1.30561e-14
      vertex 62.645 58.6406 -1.30208e-14
    endloop
  endfacet
  facet normal 0.612906 0.790156 -3.11542e-16
    outer loop
      vertex 62.645 58.6406 -1.36081e-14
      vertex 62.645 58.6406 -1.30208e-14
      vertex 62.8684 58.4673 -1.36193e-14
    endloop
  endfacet
  facet normal 0.612906 0.790156 -3.11542e-16
    outer loop
      vertex 62.8684 58.4673 -1.36193e-14
      vertex 62.645 58.6406 -1.30208e-14
      vertex 62.8684 58.4673 -1.29824e-14
    endloop
  endfacet
  facet normal 0.661312 0.750111 -3.13399e-16
    outer loop
      vertex 62.8684 58.4673 -1.36193e-14
      vertex 62.8684 58.4673 -1.29824e-14
      vertex 63.0805 58.2804 -1.36248e-14
    endloop
  endfacet
  facet normal 0.661312 0.750111 -3.13399e-16
    outer loop
      vertex 63.0805 58.2804 -1.36248e-14
      vertex 62.8684 58.4673 -1.29824e-14
      vertex 63.0805 58.2804 -1.29408e-14
    endloop
  endfacet
  facet normal 0.707107 0.707107 -3.14018e-16
    outer loop
      vertex 63.2804 58.0805 -1.36248e-14
      vertex 63.0805 58.2804 -1.36248e-14
      vertex 63.0805 58.2804 -1.29408e-14
    endloop
  endfacet
  facet normal 0.707107 0.707107 -3.14018e-16
    outer loop
      vertex 63.2804 58.0805 -1.28965e-14
      vertex 63.2804 58.0805 -1.36248e-14
      vertex 63.0805 58.2804 -1.29408e-14
    endloop
  endfacet
  facet normal 0.750111 0.661312 -3.13399e-16
    outer loop
      vertex 63.4673 57.8684 -1.36193e-14
      vertex 63.2804 58.0805 -1.36248e-14
      vertex 63.2804 58.0805 -1.28965e-14
    endloop
  endfacet
  facet normal 0.750111 0.661312 -3.13399e-16
    outer loop
      vertex 63.4673 57.8684 -1.28494e-14
      vertex 63.4673 57.8684 -1.36193e-14
      vertex 63.2804 58.0805 -1.28965e-14
    endloop
  endfacet
  facet normal 0.790156 0.612906 -3.11542e-16
    outer loop
      vertex 63.6406 57.645 -1.36081e-14
      vertex 63.4673 57.8684 -1.36193e-14
      vertex 63.4673 57.8684 -1.28494e-14
    endloop
  endfacet
  facet normal 0.790156 0.612906 -3.11542e-16
    outer loop
      vertex 63.6406 57.645 -1.27998e-14
      vertex 63.6406 57.645 -1.36081e-14
      vertex 63.4673 57.8684 -1.28494e-14
    endloop
  endfacet
  facet normal 0.827079 0.562085 -3.08457e-16
    outer loop
      vertex 63.7995 57.4112 -1.35915e-14
      vertex 63.6406 57.645 -1.36081e-14
      vertex 63.6406 57.645 -1.27998e-14
    endloop
  endfacet
  facet normal 0.827079 0.562085 -3.08457e-16
    outer loop
      vertex 63.7995 57.4112 -1.27479e-14
      vertex 63.7995 57.4112 -1.35915e-14
      vertex 63.6406 57.645 -1.27998e-14
    endloop
  endfacet
  facet normal 0.860743 0.50904 -3.04153e-16
    outer loop
      vertex 63.9434 57.1679 -1.35694e-14
      vertex 63.7995 57.4112 -1.35915e-14
      vertex 63.7995 57.4112 -1.27479e-14
    endloop
  endfacet
  facet normal 0.860743 0.50904 -3.04153e-16
    outer loop
      vertex 63.9434 57.1679 -1.26938e-14
      vertex 63.9434 57.1679 -1.35694e-14
      vertex 63.7995 57.4112 -1.27479e-14
    endloop
  endfacet
  facet normal 0.891006 0.453991 -2.98649e-16
    outer loop
      vertex 64.0717 56.916 -1.3542e-14
      vertex 63.9434 57.1679 -1.35694e-14
      vertex 63.9434 57.1679 -1.26938e-14
    endloop
  endfacet
  facet normal 0.891006 0.453991 -2.98649e-16
    outer loop
      vertex 64.0717 56.916 -1.26379e-14
      vertex 64.0717 56.916 -1.3542e-14
      vertex 63.9434 57.1679 -1.26938e-14
    endloop
  endfacet
  facet normal 0.917756 0.397146 -2.91967e-16
    outer loop
      vertex 64.184 56.6566 -1.35093e-14
      vertex 64.0717 56.916 -1.3542e-14
      vertex 64.0717 56.916 -1.26379e-14
    endloop
  endfacet
  facet normal 0.917756 0.397146 -2.91967e-16
    outer loop
      vertex 64.184 56.6566 -1.25803e-14
      vertex 64.184 56.6566 -1.35093e-14
      vertex 64.0717 56.916 -1.26379e-14
    endloop
  endfacet
  facet normal 0.940881 0.338738 -2.84132e-16
    outer loop
      vertex 64.2798 56.3906 -1.34715e-14
      vertex 64.184 56.6566 -1.35093e-14
      vertex 64.184 56.6566 -1.25803e-14
    endloop
  endfacet
  facet normal 0.940881 0.338738 -2.84132e-16
    outer loop
      vertex 64.2798 56.3906 -1.25212e-14
      vertex 64.2798 56.3906 -1.34715e-14
      vertex 64.184 56.6566 -1.25803e-14
    endloop
  endfacet
  facet normal 0.960294 0.278991 -2.75177e-16
    outer loop
      vertex 64.3586 56.1191 -1.34288e-14
      vertex 64.2798 56.3906 -1.34715e-14
      vertex 64.2798 56.3906 -1.25212e-14
    endloop
  endfacet
  facet normal 0.960294 0.278991 -2.75177e-16
    outer loop
      vertex 64.3586 56.1191 -1.24609e-14
      vertex 64.3586 56.1191 -1.34288e-14
      vertex 64.2798 56.3906 -1.25212e-14
    endloop
  endfacet
  facet normal 0.975916 0.218146 -2.65135e-16
    outer loop
      vertex 64.4203 55.8432 -1.33812e-14
      vertex 64.3586 56.1191 -1.34288e-14
      vertex 64.3586 56.1191 -1.24609e-14
    endloop
  endfacet
  facet normal 0.975916 0.218146 -2.65135e-16
    outer loop
      vertex 64.4203 55.8432 -1.23997e-14
      vertex 64.4203 55.8432 -1.33812e-14
      vertex 64.3586 56.1191 -1.24609e-14
    endloop
  endfacet
  facet normal 0.987689 0.156433 -2.54046e-16
    outer loop
      vertex 64.4645 55.564 -1.3329e-14
      vertex 64.4203 55.8432 -1.33812e-14
      vertex 64.4203 55.8432 -1.23997e-14
    endloop
  endfacet
  facet normal 0.987689 0.156433 -2.54046e-16
    outer loop
      vertex 64.4645 55.564 -1.23377e-14
      vertex 64.4645 55.564 -1.3329e-14
      vertex 64.4203 55.8432 -1.23997e-14
    endloop
  endfacet
  facet normal 0.995562 0.0941076 -2.41955e-16
    outer loop
      vertex 64.4911 55.2826 -1.32724e-14
      vertex 64.4645 55.564 -1.3329e-14
      vertex 64.4645 55.564 -1.23377e-14
    endloop
  endfacet
  facet normal 0.995562 0.0941076 -2.41955e-16
    outer loop
      vertex 64.4911 55.2826 -1.22752e-14
      vertex 64.4911 55.2826 -1.32724e-14
      vertex 64.4645 55.564 -1.23377e-14
    endloop
  endfacet
  facet normal 0.999507 0.0314118 -2.2891e-16
    outer loop
      vertex 64.5 55 -1.32117e-14
      vertex 64.4911 55.2826 -1.32724e-14
      vertex 64.4911 55.2826 -1.22752e-14
    endloop
  endfacet
  facet normal 0.999507 0.0314118 -2.2891e-16
    outer loop
      vertex 64.5 55 -1.22125e-14
      vertex 64.5 55 -1.32117e-14
      vertex 64.4911 55.2826 -1.22752e-14
    endloop
  endfacet
  facet normal 0.999507 -0.0314118 -2.1496e-16
    outer loop
      vertex 64.4911 54.7174 -1.21497e-14
      vertex 64.4911 54.7174 -1.31469e-14
      vertex 64.5 55 -1.32117e-14
    endloop
  endfacet
  facet normal 0.999507 -0.0314118 -2.1496e-16
    outer loop
      vertex 64.5 55 -1.22125e-14
      vertex 64.4911 54.7174 -1.21497e-14
      vertex 64.5 55 -1.32117e-14
    endloop
  endfacet
  facet normal 0.995562 -0.0941076 -2.00163e-16
    outer loop
      vertex 64.4645 54.436 -1.20872e-14
      vertex 64.4645 54.436 -1.30785e-14
      vertex 64.4911 54.7174 -1.31469e-14
    endloop
  endfacet
  facet normal 0.995562 -0.0941076 -2.00163e-16
    outer loop
      vertex 64.4911 54.7174 -1.21497e-14
      vertex 64.4645 54.436 -1.20872e-14
      vertex 64.4911 54.7174 -1.31469e-14
    endloop
  endfacet
  facet normal 0.987689 -0.156433 -1.84576e-16
    outer loop
      vertex 64.4203 54.1568 -1.20252e-14
      vertex 64.4203 54.1568 -1.30067e-14
      vertex 64.4645 54.436 -1.30785e-14
    endloop
  endfacet
  facet normal 0.987689 -0.156433 -1.84576e-16
    outer loop
      vertex 64.4645 54.436 -1.20872e-14
      vertex 64.4203 54.1568 -1.20252e-14
      vertex 64.4645 54.436 -1.30785e-14
    endloop
  endfacet
  facet normal 0.975916 -0.218146 -1.68259e-16
    outer loop
      vertex 64.4174 54.144 -1.20224e-14
      vertex 64.3586 53.8809 -1.29318e-14
      vertex 64.4203 54.1568 -1.30067e-14
    endloop
  endfacet
  facet normal 0.975916 -0.218146 -1.68259e-16
    outer loop
      vertex 64.4174 54.144 -1.20224e-14
      vertex 64.4174 54.144 66
      vertex 64.3586 53.8809 66
    endloop
  endfacet
  facet normal 0.975916 -0.218146 -1.68259e-16
    outer loop
      vertex 64.3586 53.8809 66
      vertex 64.3586 53.8809 -1.29318e-14
      vertex 64.4174 54.144 -1.20224e-14
    endloop
  endfacet
  facet normal 0.975916 -0.218146 -1.68259e-16
    outer loop
      vertex 64.4203 54.1568 -1.20252e-14
      vertex 64.4174 54.144 -1.20224e-14
      vertex 64.4203 54.1568 -1.30067e-14
    endloop
  endfacet
  facet normal -0.173648 -0.984808 2.18671e-16
    outer loop
      vertex 155 38.1718 66
      vertex 60 54.9229 66
      vertex 64.4174 54.144 66
    endloop
  endfacet
  facet normal -0.173648 -0.984808 2.18671e-16
    outer loop
      vertex 64.4174 54.144 -1.20224e-14
      vertex 155 38.1718 66
      vertex 64.4174 54.144 66
    endloop
  endfacet
  facet normal -0.173648 -0.984808 2.18671e-16
    outer loop
      vertex 64.4174 54.144 -1.20224e-14
      vertex 155 38.1718 -8.47584e-15
      vertex 155 38.1718 66
    endloop
  endfacet
  facet normal -1 9.95799e-17 -2.21112e-32
    outer loop
      vertex 155 32.6352 -7.24647e-15
      vertex 155 32.6352 66
      vertex 155 38.1718 -8.47584e-15
    endloop
  endfacet
  facet normal -1 9.95799e-17 -2.21112e-32
    outer loop
      vertex 155 38.1718 -8.47584e-15
      vertex 155 32.6352 66
      vertex 155 38.1718 66
    endloop
  endfacet
  facet normal -9.95799e-17 -1 2.22045e-16
    outer loop
      vertex 155 32.6352 66
      vertex 155 32.6352 -7.24647e-15
      vertex 160 32.6352 -7.24647e-15
    endloop
  endfacet
  facet normal -9.95799e-17 -1 2.22045e-16
    outer loop
      vertex 160 32.6352 66
      vertex 155 32.6352 66
      vertex 160 32.6352 -7.24647e-15
    endloop
  endfacet
  facet normal 1 -9.95799e-17 2.21112e-32
    outer loop
      vertex 160 32.6352 66
      vertex 160 32.6352 -7.24647e-15
      vertex 160 42.6352 -9.46691e-15
    endloop
  endfacet
  facet normal 1 -9.95799e-17 2.21112e-32
    outer loop
      vertex 160 42.6352 66
      vertex 160 32.6352 66
      vertex 160 42.6352 -9.46691e-15
    endloop
  endfacet
  facet normal 9.95799e-17 1 -2.22045e-16
    outer loop
      vertex 158.481 42.6352 -9.46691e-15
      vertex 158.481 42.6352 66
      vertex 160 42.6352 -9.46691e-15
    endloop
  endfacet
  facet normal 9.95799e-17 1 -2.22045e-16
    outer loop
      vertex 160 42.6352 -9.46691e-15
      vertex 158.481 42.6352 66
      vertex 160 42.6352 66
    endloop
  endfacet
  facet normal 0.173648 0.984808 -2.18671e-16
    outer loop
      vertex 60 60 -1.33227e-14
      vertex 60 60 66
      vertex 158.481 42.6352 -9.46691e-15
    endloop
  endfacet
  facet normal 0.173648 0.984808 -2.18671e-16
    outer loop
      vertex 158.481 42.6352 -9.46691e-15
      vertex 60 60 66
      vertex 158.481 42.6352 66
    endloop
  endfacet
  facet normal 2.22045e-16 1 -2.22045e-16
    outer loop
      vertex 55 60 -1.33227e-14
      vertex 55 60 66
      vertex 60 60 -1.33227e-14
    endloop
  endfacet
  facet normal 2.22045e-16 1 -2.22045e-16
    outer loop
      vertex 60 60 -1.33227e-14
      vertex 55 60 66
      vertex 60 60 66
    endloop
  endfacet
  facet normal -1 2.22045e-16 -4.93038e-32
    outer loop
      vertex 55 -1.22125e-14 2.71171e-30
      vertex 55 2.44249e-15 66
      vertex 55 60 -1.33227e-14
    endloop
  endfacet
  facet normal -1 2.22045e-16 -4.93038e-32
    outer loop
      vertex 55 60 -1.33227e-14
      vertex 55 2.44249e-15 66
      vertex 55 60 66
    endloop
  endfacet
  facet normal 1 0 0
    outer loop
      vertex 55 -1.22125e-14 2.71171e-30
      vertex 55 0 0
      vertex 55 1.46549e-14 66
    endloop
  endfacet
  facet normal 1 0 0
    outer loop
      vertex 55 2.44249e-15 66
      vertex 55 -1.22125e-14 2.71171e-30
      vertex 55 1.46549e-14 66
    endloop
  endfacet
  facet normal 0 1 -2.22045e-16
    outer loop
      vertex 5 0 0
      vertex 5 1.46549e-14 66
      vertex 55 0 0
    endloop
  endfacet
  facet normal 0 1 -2.22045e-16
    outer loop
      vertex 55 0 0
      vertex 5 1.46549e-14 66
      vertex 55 1.46549e-14 66
    endloop
  endfacet
  facet normal 1 -2.22045e-16 4.93038e-32
    outer loop
      vertex 5 1.46549e-14 66
      vertex 5 0 0
      vertex 5 50 -1.11022e-14
    endloop
  endfacet
  facet normal 1 -2.22045e-16 4.93038e-32
    outer loop
      vertex 5 50 66
      vertex 5 1.46549e-14 66
      vertex 5 50 -1.11022e-14
    endloop
  endfacet
  facet normal 2.22045e-16 1 -2.22045e-16
    outer loop
      vertex 1.11022e-14 50 -1.11022e-14
      vertex 1.11022e-14 50 66
      vertex 5 50 -1.11022e-14
    endloop
  endfacet
  facet normal 2.22045e-16 1 -2.22045e-16
    outer loop
      vertex 5 50 -1.11022e-14
      vertex 1.11022e-14 50 66
      vertex 5 50 66
    endloop
  endfacet
  facet normal 2.22045e-16 2.22045e-16 1
    outer loop
      vertex 55.5089 55.2826 66
      vertex 55.5 55 66
      vertex 55.5089 54.7174 66
    endloop
  endfacet
  facet normal 2.22045e-16 2.22045e-16 1
    outer loop
      vertex 55.5797 54.1568 66
      vertex 55.5089 55.2826 66
      vertex 55.5355 54.436 66
    endloop
  endfacet
  facet normal 2.22045e-16 2.22045e-16 1
    outer loop
      vertex 55.5355 54.436 66
      vertex 55.5089 55.2826 66
      vertex 55.5089 54.7174 66
    endloop
  endfacet
  facet normal 2.22045e-16 2.22045e-16 1
    outer loop
      vertex 55.6414 53.8809 66
      vertex 55.5089 55.2826 66
      vertex 55.5797 54.1568 66
    endloop
  endfacet
  facet normal 2.22045e-16 2.22045e-16 1
    outer loop
      vertex 55.7202 53.6094 66
      vertex 55.5089 55.2826 66
      vertex 55.6414 53.8809 66
    endloop
  endfacet
  facet normal 2.22045e-16 2.22045e-16 1
    outer loop
      vertex 55.816 53.3434 66
      vertex 55.5089 55.2826 66
      vertex 55.7202 53.6094 66
    endloop
  endfacet
  facet normal 2.22045e-16 2.22045e-16 1
    outer loop
      vertex 55.9283 53.084 66
      vertex 55.5089 55.2826 66
      vertex 55.816 53.3434 66
    endloop
  endfacet
  facet normal 2.22045e-16 2.22045e-16 1
    outer loop
      vertex 56.0566 52.8321 66
      vertex 55.5089 55.2826 66
      vertex 55.9283 53.084 66
    endloop
  endfacet
  facet normal 2.22045e-16 2.22045e-16 1
    outer loop
      vertex 56.2005 52.5888 66
      vertex 55.5089 55.2826 66
      vertex 56.0566 52.8321 66
    endloop
  endfacet
  facet normal 2.22045e-16 2.22045e-16 1
    outer loop
      vertex 56.3594 52.355 66
      vertex 55.5089 55.2826 66
      vertex 56.2005 52.5888 66
    endloop
  endfacet
  facet normal 2.22045e-16 2.22045e-16 1
    outer loop
      vertex 56.5327 52.1316 66
      vertex 55.5089 55.2826 66
      vertex 56.3594 52.355 66
    endloop
  endfacet
  facet normal 2.22045e-16 2.22045e-16 1
    outer loop
      vertex 56.7196 51.9195 66
      vertex 55.5089 55.2826 66
      vertex 56.5327 52.1316 66
    endloop
  endfacet
  facet normal 2.22045e-16 2.22045e-16 1
    outer loop
      vertex 56.9195 51.7196 66
      vertex 55.5089 55.2826 66
      vertex 56.7196 51.9195 66
    endloop
  endfacet
  facet normal 2.22045e-16 2.22045e-16 1
    outer loop
      vertex 57.1316 51.5327 66
      vertex 55.5089 55.2826 66
      vertex 56.9195 51.7196 66
    endloop
  endfacet
  facet normal 2.22045e-16 2.22045e-16 1
    outer loop
      vertex 57.355 51.3594 66
      vertex 55.5089 55.2826 66
      vertex 57.1316 51.5327 66
    endloop
  endfacet
  facet normal 2.22045e-16 2.22045e-16 1
    outer loop
      vertex 57.5888 51.2005 66
      vertex 55.5089 55.2826 66
      vertex 57.355 51.3594 66
    endloop
  endfacet
  facet normal 2.22045e-16 2.22045e-16 1
    outer loop
      vertex 57.8321 51.0566 66
      vertex 55.5089 55.2826 66
      vertex 57.5888 51.2005 66
    endloop
  endfacet
  facet normal 2.22045e-16 2.22045e-16 1
    outer loop
      vertex 58.084 50.9283 66
      vertex 55.5089 55.2826 66
      vertex 57.8321 51.0566 66
    endloop
  endfacet
  facet normal 2.22045e-16 2.22045e-16 1
    outer loop
      vertex 58.3434 50.816 66
      vertex 55.5089 55.2826 66
      vertex 58.084 50.9283 66
    endloop
  endfacet
  facet normal 2.22045e-16 2.22045e-16 1
    outer loop
      vertex 58.6094 50.7202 66
      vertex 55.5089 55.2826 66
      vertex 58.3434 50.816 66
    endloop
  endfacet
  facet normal 2.22045e-16 2.22045e-16 1
    outer loop
      vertex 58.8809 50.6414 66
      vertex 55.5089 55.2826 66
      vertex 58.6094 50.7202 66
    endloop
  endfacet
  facet normal 2.22045e-16 2.22045e-16 1
    outer loop
      vertex 59.1568 50.5797 66
      vertex 55.5089 55.2826 66
      vertex 58.8809 50.6414 66
    endloop
  endfacet
  facet normal 2.22045e-16 2.22045e-16 1
    outer loop
      vertex 59.436 50.5355 66
      vertex 55.5089 55.2826 66
      vertex 59.1568 50.5797 66
    endloop
  endfacet
  facet normal 2.22045e-16 2.22045e-16 1
    outer loop
      vertex 59.7174 50.5089 66
      vertex 55.5089 55.2826 66
      vertex 59.436 50.5355 66
    endloop
  endfacet
  facet normal 2.22045e-16 2.22045e-16 1
    outer loop
      vertex 60 50.5 66
      vertex 55.5089 55.2826 66
      vertex 59.7174 50.5089 66
    endloop
  endfacet
  facet normal 2.22045e-16 2.22045e-16 1
    outer loop
      vertex 60.2826 50.5089 66
      vertex 55.5089 55.2826 66
      vertex 60 50.5 66
    endloop
  endfacet
  facet normal 2.22045e-16 2.22045e-16 1
    outer loop
      vertex 60.564 50.5355 66
      vertex 55.5089 55.2826 66
      vertex 60.2826 50.5089 66
    endloop
  endfacet
  facet normal 2.22045e-16 2.22045e-16 1
    outer loop
      vertex 60.8432 50.5797 66
      vertex 55.5089 55.2826 66
      vertex 60.564 50.5355 66
    endloop
  endfacet
  facet normal 2.22045e-16 2.22045e-16 1
    outer loop
      vertex 61.1191 50.6414 66
      vertex 55.5089 55.2826 66
      vertex 60.8432 50.5797 66
    endloop
  endfacet
  facet normal 2.22045e-16 2.22045e-16 1
    outer loop
      vertex 61.3906 50.7202 66
      vertex 55.5089 55.2826 66
      vertex 61.1191 50.6414 66
    endloop
  endfacet
  facet normal 2.22045e-16 2.22045e-16 1
    outer loop
      vertex 61.6566 50.816 66
      vertex 55.5089 55.2826 66
      vertex 61.3906 50.7202 66
    endloop
  endfacet
  facet normal 2.22045e-16 2.22045e-16 1
    outer loop
      vertex 61.916 50.9283 66
      vertex 55.5089 55.2826 66
      vertex 61.6566 50.816 66
    endloop
  endfacet
  facet normal 2.22045e-16 2.22045e-16 1
    outer loop
      vertex 62.1679 51.0566 66
      vertex 55.5089 55.2826 66
      vertex 61.916 50.9283 66
    endloop
  endfacet
  facet normal 2.22045e-16 2.22045e-16 1
    outer loop
      vertex 62.4112 51.2005 66
      vertex 55.5089 55.2826 66
      vertex 62.1679 51.0566 66
    endloop
  endfacet
  facet normal 2.22045e-16 2.22045e-16 1
    outer loop
      vertex 62.645 51.3594 66
      vertex 55.5089 55.2826 66
      vertex 62.4112 51.2005 66
    endloop
  endfacet
  facet normal 2.22045e-16 2.22045e-16 1
    outer loop
      vertex 62.8684 51.5327 66
      vertex 55.5089 55.2826 66
      vertex 62.645 51.3594 66
    endloop
  endfacet
  facet normal 2.22045e-16 2.22045e-16 1
    outer loop
      vertex 63.0805 51.7196 66
      vertex 55.5089 55.2826 66
      vertex 62.8684 51.5327 66
    endloop
  endfacet
  facet normal 2.22045e-16 2.22045e-16 1
    outer loop
      vertex 63.2804 51.9195 66
      vertex 55.5089 55.2826 66
      vertex 63.0805 51.7196 66
    endloop
  endfacet
  facet normal 2.22045e-16 2.22045e-16 1
    outer loop
      vertex 63.4673 52.1316 66
      vertex 55.5089 55.2826 66
      vertex 63.2804 51.9195 66
    endloop
  endfacet
  facet normal 2.22045e-16 2.22045e-16 1
    outer loop
      vertex 63.6406 52.355 66
      vertex 55.5089 55.2826 66
      vertex 63.4673 52.1316 66
    endloop
  endfacet
  facet normal 2.22045e-16 2.22045e-16 1
    outer loop
      vertex 63.7995 52.5888 66
      vertex 55.5089 55.2826 66
      vertex 63.6406 52.355 66
    endloop
  endfacet
  facet normal 2.22045e-16 2.22045e-16 1
    outer loop
      vertex 63.9434 52.8321 66
      vertex 55.5089 55.2826 66
      vertex 63.7995 52.5888 66
    endloop
  endfacet
  facet normal 2.22045e-16 2.22045e-16 1
    outer loop
      vertex 64.0717 53.084 66
      vertex 55.5089 55.2826 66
      vertex 63.9434 52.8321 66
    endloop
  endfacet
  facet normal 2.22045e-16 2.22045e-16 1
    outer loop
      vertex 64.184 53.3434 66
      vertex 55.5089 55.2826 66
      vertex 64.0717 53.084 66
    endloop
  endfacet
  facet normal 2.22045e-16 2.22045e-16 1
    outer loop
      vertex 64.2798 53.6094 66
      vertex 55.5089 55.2826 66
      vertex 64.184 53.3434 66
    endloop
  endfacet
  facet normal 2.22045e-16 2.22045e-16 1
    outer loop
      vertex 64.3586 53.8809 66
      vertex 55.5089 55.2826 66
      vertex 64.2798 53.6094 66
    endloop
  endfacet
  facet normal 2.22045e-16 2.22045e-16 1
    outer loop
      vertex 64.4174 54.144 66
      vertex 55.5089 55.2826 66
      vertex 64.3586 53.8809 66
    endloop
  endfacet
  facet normal 2.22045e-16 2.22045e-16 1
    outer loop
      vertex 60 54.9229 66
      vertex 55.5089 55.2826 66
      vertex 64.4174 54.144 66
    endloop
  endfacet
  facet normal 2.22045e-16 2.22045e-16 1
    outer loop
      vertex 60 59.5 66
      vertex 55.5089 55.2826 66
      vertex 60 54.9229 66
    endloop
  endfacet
  facet normal 2.22045e-16 2.22045e-16 1
    outer loop
      vertex 59.7174 59.4911 66
      vertex 55.5089 55.2826 66
      vertex 60 59.5 66
    endloop
  endfacet
  facet normal 2.22045e-16 2.22045e-16 1
    outer loop
      vertex 59.436 59.4645 66
      vertex 55.5089 55.2826 66
      vertex 59.7174 59.4911 66
    endloop
  endfacet
  facet normal 2.22045e-16 2.22045e-16 1
    outer loop
      vertex 59.1568 59.4203 66
      vertex 55.5089 55.2826 66
      vertex 59.436 59.4645 66
    endloop
  endfacet
  facet normal 2.22045e-16 2.22045e-16 1
    outer loop
      vertex 58.8809 59.3586 66
      vertex 55.5089 55.2826 66
      vertex 59.1568 59.4203 66
    endloop
  endfacet
  facet normal 2.22045e-16 2.22045e-16 1
    outer loop
      vertex 58.6094 59.2798 66
      vertex 55.5089 55.2826 66
      vertex 58.8809 59.3586 66
    endloop
  endfacet
  facet normal 2.22045e-16 2.22045e-16 1
    outer loop
      vertex 58.3434 59.184 66
      vertex 55.5089 55.2826 66
      vertex 58.6094 59.2798 66
    endloop
  endfacet
  facet normal 2.22045e-16 2.22045e-16 1
    outer loop
      vertex 58.084 59.0717 66
      vertex 55.5089 55.2826 66
      vertex 58.3434 59.184 66
    endloop
  endfacet
  facet normal 2.22045e-16 2.22045e-16 1
    outer loop
      vertex 57.8321 58.9434 66
      vertex 55.5089 55.2826 66
      vertex 58.084 59.0717 66
    endloop
  endfacet
  facet normal 2.22045e-16 2.22045e-16 1
    outer loop
      vertex 57.5888 58.7995 66
      vertex 55.5089 55.2826 66
      vertex 57.8321 58.9434 66
    endloop
  endfacet
  facet normal 2.22045e-16 2.22045e-16 1
    outer loop
      vertex 57.355 58.6406 66
      vertex 55.5089 55.2826 66
      vertex 57.5888 58.7995 66
    endloop
  endfacet
  facet normal 2.22045e-16 2.22045e-16 1
    outer loop
      vertex 57.1316 58.4673 66
      vertex 55.5089 55.2826 66
      vertex 57.355 58.6406 66
    endloop
  endfacet
  facet normal 2.22045e-16 2.22045e-16 1
    outer loop
      vertex 56.9195 58.2804 66
      vertex 55.5089 55.2826 66
      vertex 57.1316 58.4673 66
    endloop
  endfacet
  facet normal 2.22045e-16 2.22045e-16 1
    outer loop
      vertex 56.7196 58.0805 66
      vertex 55.5089 55.2826 66
      vertex 56.9195 58.2804 66
    endloop
  endfacet
  facet normal 2.22045e-16 2.22045e-16 1
    outer loop
      vertex 56.5327 57.8684 66
      vertex 55.5089 55.2826 66
      vertex 56.7196 58.0805 66
    endloop
  endfacet
  facet normal 2.22045e-16 2.22045e-16 1
    outer loop
      vertex 56.3594 57.645 66
      vertex 55.5089 55.2826 66
      vertex 56.5327 57.8684 66
    endloop
  endfacet
  facet normal 2.22045e-16 2.22045e-16 1
    outer loop
      vertex 56.2005 57.4112 66
      vertex 55.5089 55.2826 66
      vertex 56.3594 57.645 66
    endloop
  endfacet
  facet normal 2.22045e-16 2.22045e-16 1
    outer loop
      vertex 56.0566 57.1679 66
      vertex 55.5089 55.2826 66
      vertex 56.2005 57.4112 66
    endloop
  endfacet
  facet normal 2.22045e-16 2.22045e-16 1
    outer loop
      vertex 55.9283 56.916 66
      vertex 55.5089 55.2826 66
      vertex 56.0566 57.1679 66
    endloop
  endfacet
  facet normal 2.22045e-16 2.22045e-16 1
    outer loop
      vertex 55.816 56.6566 66
      vertex 55.5089 55.2826 66
      vertex 55.9283 56.916 66
    endloop
  endfacet
  facet normal 2.22045e-16 2.22045e-16 1
    outer loop
      vertex 55.7202 56.3906 66
      vertex 55.5089 55.2826 66
      vertex 55.816 56.6566 66
    endloop
  endfacet
  facet normal 2.22045e-16 2.22045e-16 1
    outer loop
      vertex 55.6414 56.1191 66
      vertex 55.5089 55.2826 66
      vertex 55.7202 56.3906 66
    endloop
  endfacet
  facet normal 2.22045e-16 2.22045e-16 1
    outer loop
      vertex 55.5797 55.8432 66
      vertex 55.5089 55.2826 66
      vertex 55.6414 56.1191 66
    endloop
  endfacet
  facet normal 2.22045e-16 2.22045e-16 1
    outer loop
      vertex 55.5355 55.564 66
      vertex 55.5089 55.2826 66
      vertex 55.5797 55.8432 66
    endloop
  endfacet
  facet normal 0.0941076 -0.995562 2.00163e-16
    outer loop
      vertex 60.2826 50.5089 66
      vertex 60.2826 50.5089 -1.1278e-14
      vertex 60.564 50.5355 -1.13464e-14
    endloop
  endfacet
  facet normal 0.0941076 -0.995562 2.00163e-16
    outer loop
      vertex 60.564 50.5355 66
      vertex 60.2826 50.5089 66
      vertex 60.564 50.5355 -1.13464e-14
    endloop
  endfacet
  facet normal 0.156433 -0.987689 1.84576e-16
    outer loop
      vertex 60.564 50.5355 66
      vertex 60.564 50.5355 -1.13464e-14
      vertex 60.8432 50.5797 -1.14182e-14
    endloop
  endfacet
  facet normal 0.156433 -0.987689 1.84576e-16
    outer loop
      vertex 60.8432 50.5797 66
      vertex 60.564 50.5355 66
      vertex 60.8432 50.5797 -1.14182e-14
    endloop
  endfacet
  facet normal 0.218146 -0.975916 1.68259e-16
    outer loop
      vertex 60.8432 50.5797 66
      vertex 60.8432 50.5797 -1.14182e-14
      vertex 61.1191 50.6414 -1.14931e-14
    endloop
  endfacet
  facet normal 0.218146 -0.975916 1.68259e-16
    outer loop
      vertex 61.1191 50.6414 66
      vertex 60.8432 50.5797 66
      vertex 61.1191 50.6414 -1.14931e-14
    endloop
  endfacet
  facet normal 0.278991 -0.960294 1.51279e-16
    outer loop
      vertex 61.1191 50.6414 66
      vertex 61.1191 50.6414 -1.14931e-14
      vertex 61.3906 50.7202 -1.15709e-14
    endloop
  endfacet
  facet normal 0.278991 -0.960294 1.51279e-16
    outer loop
      vertex 61.3906 50.7202 66
      vertex 61.1191 50.6414 66
      vertex 61.3906 50.7202 -1.15709e-14
    endloop
  endfacet
  facet normal 0.338738 -0.940881 1.33703e-16
    outer loop
      vertex 61.3906 50.7202 66
      vertex 61.3906 50.7202 -1.15709e-14
      vertex 61.6566 50.816 -1.16513e-14
    endloop
  endfacet
  facet normal 0.338738 -0.940881 1.33703e-16
    outer loop
      vertex 61.6566 50.816 66
      vertex 61.3906 50.7202 66
      vertex 61.6566 50.816 -1.16513e-14
    endloop
  endfacet
  facet normal 0.397146 -0.917756 1.15599e-16
    outer loop
      vertex 61.6566 50.816 66
      vertex 61.6566 50.816 -1.16513e-14
      vertex 61.916 50.9283 -1.17338e-14
    endloop
  endfacet
  facet normal 0.397146 -0.917756 1.15599e-16
    outer loop
      vertex 61.916 50.9283 66
      vertex 61.6566 50.816 66
      vertex 61.916 50.9283 -1.17338e-14
    endloop
  endfacet
  facet normal 0.453991 -0.891006 9.70369e-17
    outer loop
      vertex 61.916 50.9283 66
      vertex 61.916 50.9283 -1.17338e-14
      vertex 62.1679 51.0566 -1.18182e-14
    endloop
  endfacet
  facet normal 0.453991 -0.891006 9.70369e-17
    outer loop
      vertex 62.1679 51.0566 66
      vertex 61.916 50.9283 66
      vertex 62.1679 51.0566 -1.18182e-14
    endloop
  endfacet
  facet normal 0.50904 -0.860743 7.80936e-17
    outer loop
      vertex 62.1679 51.0566 66
      vertex 62.1679 51.0566 -1.18182e-14
      vertex 62.4112 51.2005 -1.19042e-14
    endloop
  endfacet
  facet normal 0.50904 -0.860743 7.80936e-17
    outer loop
      vertex 62.4112 51.2005 66
      vertex 62.1679 51.0566 66
      vertex 62.4112 51.2005 -1.19042e-14
    endloop
  endfacet
  facet normal 0.562085 -0.827079 5.88404e-17
    outer loop
      vertex 62.4112 51.2005 66
      vertex 62.4112 51.2005 -1.19042e-14
      vertex 62.645 51.3594 -1.19914e-14
    endloop
  endfacet
  facet normal 0.562085 -0.827079 5.88404e-17
    outer loop
      vertex 62.645 51.3594 66
      vertex 62.4112 51.2005 66
      vertex 62.645 51.3594 -1.19914e-14
    endloop
  endfacet
  facet normal 0.612906 -0.790156 3.93575e-17
    outer loop
      vertex 62.645 51.3594 66
      vertex 62.645 51.3594 -1.19914e-14
      vertex 62.8684 51.5327 -1.20795e-14
    endloop
  endfacet
  facet normal 0.612906 -0.790156 3.93575e-17
    outer loop
      vertex 62.8684 51.5327 66
      vertex 62.645 51.3594 66
      vertex 62.8684 51.5327 -1.20795e-14
    endloop
  endfacet
  facet normal 0.661312 -0.750111 1.97172e-17
    outer loop
      vertex 62.8684 51.5327 66
      vertex 62.8684 51.5327 -1.20795e-14
      vertex 63.0805 51.7196 -1.21681e-14
    endloop
  endfacet
  facet normal 0.661312 -0.750111 1.97172e-17
    outer loop
      vertex 63.0805 51.7196 66
      vertex 62.8684 51.5327 66
      vertex 63.0805 51.7196 -1.21681e-14
    endloop
  endfacet
  facet normal 0.707107 -0.707107 3.48631e-32
    outer loop
      vertex 63.0805 51.7196 66
      vertex 63.0805 51.7196 -1.21681e-14
      vertex 63.2804 51.9195 -1.22568e-14
    endloop
  endfacet
  facet normal 0.707107 -0.707107 3.48631e-32
    outer loop
      vertex 63.2804 51.9195 66
      vertex 63.0805 51.7196 66
      vertex 63.2804 51.9195 -1.22568e-14
    endloop
  endfacet
  facet normal 0.750111 -0.661312 -1.97172e-17
    outer loop
      vertex 63.2804 51.9195 66
      vertex 63.2804 51.9195 -1.22568e-14
      vertex 63.4673 52.1316 -1.23454e-14
    endloop
  endfacet
  facet normal 0.750111 -0.661312 -1.97172e-17
    outer loop
      vertex 63.4673 52.1316 66
      vertex 63.2804 51.9195 66
      vertex 63.4673 52.1316 -1.23454e-14
    endloop
  endfacet
  facet normal 0.790156 -0.612906 -3.93575e-17
    outer loop
      vertex 63.4673 52.1316 66
      vertex 63.4673 52.1316 -1.23454e-14
      vertex 63.6406 52.355 -1.24335e-14
    endloop
  endfacet
  facet normal 0.790156 -0.612906 -3.93575e-17
    outer loop
      vertex 63.6406 52.355 66
      vertex 63.4673 52.1316 66
      vertex 63.6406 52.355 -1.24335e-14
    endloop
  endfacet
  facet normal 0.827079 -0.562085 -5.88404e-17
    outer loop
      vertex 63.6406 52.355 66
      vertex 63.6406 52.355 -1.24335e-14
      vertex 63.7995 52.5888 -1.25207e-14
    endloop
  endfacet
  facet normal 0.827079 -0.562085 -5.88404e-17
    outer loop
      vertex 63.7995 52.5888 66
      vertex 63.6406 52.355 66
      vertex 63.7995 52.5888 -1.25207e-14
    endloop
  endfacet
  facet normal 0.860743 -0.50904 -7.80936e-17
    outer loop
      vertex 63.7995 52.5888 66
      vertex 63.7995 52.5888 -1.25207e-14
      vertex 63.9434 52.8321 -1.26067e-14
    endloop
  endfacet
  facet normal 0.860743 -0.50904 -7.80936e-17
    outer loop
      vertex 63.9434 52.8321 66
      vertex 63.7995 52.5888 66
      vertex 63.9434 52.8321 -1.26067e-14
    endloop
  endfacet
  facet normal 0.891006 -0.453991 -9.70369e-17
    outer loop
      vertex 63.9434 52.8321 66
      vertex 63.9434 52.8321 -1.26067e-14
      vertex 64.0717 53.084 -1.26911e-14
    endloop
  endfacet
  facet normal 0.891006 -0.453991 -9.70369e-17
    outer loop
      vertex 64.0717 53.084 66
      vertex 63.9434 52.8321 66
      vertex 64.0717 53.084 -1.26911e-14
    endloop
  endfacet
  facet normal 0.917756 -0.397146 -1.15599e-16
    outer loop
      vertex 64.0717 53.084 66
      vertex 64.0717 53.084 -1.26911e-14
      vertex 64.184 53.3434 -1.27737e-14
    endloop
  endfacet
  facet normal 0.917756 -0.397146 -1.15599e-16
    outer loop
      vertex 64.184 53.3434 66
      vertex 64.0717 53.084 66
      vertex 64.184 53.3434 -1.27737e-14
    endloop
  endfacet
  facet normal 0.940881 -0.338738 -1.33703e-16
    outer loop
      vertex 64.184 53.3434 66
      vertex 64.184 53.3434 -1.27737e-14
      vertex 64.2798 53.6094 -1.2854e-14
    endloop
  endfacet
  facet normal 0.940881 -0.338738 -1.33703e-16
    outer loop
      vertex 64.2798 53.6094 66
      vertex 64.184 53.3434 66
      vertex 64.2798 53.6094 -1.2854e-14
    endloop
  endfacet
  facet normal 0.960294 -0.278991 -1.51279e-16
    outer loop
      vertex 64.2798 53.6094 66
      vertex 64.2798 53.6094 -1.2854e-14
      vertex 64.3586 53.8809 -1.29318e-14
    endloop
  endfacet
  facet normal 0.960294 -0.278991 -1.51279e-16
    outer loop
      vertex 64.3586 53.8809 66
      vertex 64.2798 53.6094 66
      vertex 64.3586 53.8809 -1.29318e-14
    endloop
  endfacet
endsolid OpenSCAD_Model
